<svg width="32" height="32" viewBox="0 0 32 32" fill="none" xmlns="http://www.w3.org/2000/svg">
<path d="M18.301 16.1798C18.2777 16.1565 18.2593 16.1289 18.2467 16.0986C18.234 16.0682 18.2276 16.0356 18.2276 16.0027C18.2276 15.9698 18.234 15.9373 18.2467 15.9069C18.2593 15.8765 18.2777 15.8489 18.301 15.8257L27.5659 6.56184C27.8472 6.28013 28.0051 5.8982 28.0048 5.50007C28.0045 5.10195 27.8461 4.72024 27.5644 4.43892C27.2826 4.1576 26.9007 3.99972 26.5026 4C26.1045 4.00028 25.7228 4.15871 25.4414 4.44042L16.1776 13.7003C16.1544 13.7236 16.1268 13.742 16.0964 13.7546C16.066 13.7672 16.0335 13.7737 16.0006 13.7737C15.9677 13.7737 15.9351 13.7672 15.9047 13.7546C15.8743 13.742 15.8468 13.7236 15.8235 13.7003L6.55968 4.44042C6.42039 4.30106 6.25501 4.1905 6.07299 4.11506C5.89096 4.03961 5.69586 4.00075 5.49883 4.00071C5.10089 4.00061 4.71921 4.1586 4.43776 4.43992C4.15631 4.72124 3.99814 5.10284 3.99805 5.50078C3.99795 5.89872 4.15594 6.28039 4.43726 6.56184L13.7001 15.8257C13.7234 15.8489 13.7419 15.8765 13.7545 15.9069C13.7671 15.9373 13.7736 15.9698 13.7736 16.0027C13.7736 16.0356 13.7671 16.0682 13.7545 16.0986C13.7419 16.1289 13.7234 16.1565 13.7001 16.1798L4.43726 25.4446C4.29797 25.584 4.18749 25.7494 4.11212 25.9314C4.03676 26.1135 3.998 26.3086 3.99805 26.5057C3.99814 26.9036 4.15631 27.2852 4.43776 27.5665C4.57712 27.7058 4.74255 27.8163 4.92461 27.8917C5.10667 27.967 5.30179 28.0058 5.49883 28.0057C5.89676 28.0056 6.27837 27.8475 6.55968 27.566L15.8235 18.3012C15.8468 18.2779 15.8743 18.2594 15.9047 18.2468C15.9351 18.2342 15.9677 18.2277 16.0006 18.2277C16.0335 18.2277 16.066 18.2342 16.0964 18.2468C16.1268 18.2594 16.1544 18.2779 16.1776 18.3012L25.4414 27.566C25.7228 27.8475 26.1044 28.0056 26.5023 28.0057C26.9002 28.0058 27.2819 27.8478 27.5634 27.5665C27.8448 27.2852 28.003 26.9036 28.0031 26.5057C28.0032 26.1077 27.8452 25.7261 27.5639 25.4446L18.301 16.1798Z" fill="white"/>
</svg>
