<svg width="31" height="24" viewBox="0 0 31 24" fill="none" xmlns="http://www.w3.org/2000/svg">
<path d="M24.1614 4.03321C22.5668 3.30156 20.8569 2.7625 19.069 2.45376C19.0364 2.44781 19.0039 2.4627 18.9872 2.49248C18.7672 2.88361 18.5236 3.39388 18.3531 3.79494C16.4301 3.50706 14.517 3.50706 12.6335 3.79494C12.4629 3.38496 12.2105 2.88361 11.9896 2.49248C11.9728 2.46369 11.9403 2.4488 11.9077 2.45376C10.1208 2.76152 8.41091 3.30057 6.81535 4.03321C6.80154 4.03917 6.7897 4.04911 6.78184 4.062C3.53844 8.90757 2.64994 13.634 3.08581 18.3019C3.08778 18.3247 3.1006 18.3466 3.11835 18.3605C5.25825 19.932 7.33111 20.886 9.36548 21.5184C9.39804 21.5283 9.43253 21.5164 9.45325 21.4896C9.93448 20.8324 10.3635 20.1395 10.7313 19.4108C10.753 19.3681 10.7322 19.3175 10.6879 19.3006C10.0075 19.0425 9.35956 18.7278 8.73632 18.3704C8.68703 18.3416 8.68308 18.2711 8.72843 18.2373C8.85958 18.1391 8.99077 18.0368 9.116 17.9336C9.13866 17.9147 9.17023 17.9107 9.19687 17.9226C13.2913 19.792 17.7239 19.792 21.77 17.9226C21.7966 17.9097 21.8282 17.9137 21.8518 17.9326C21.9771 18.0358 22.1083 18.1391 22.2404 18.2373C22.2857 18.2711 22.2828 18.3416 22.2335 18.3704C21.6103 18.7347 20.9624 19.0425 20.2809 19.2996C20.2366 19.3165 20.2169 19.3681 20.2386 19.4108C20.6143 20.1384 21.0432 20.8314 21.5156 21.4886C21.5353 21.5164 21.5708 21.5283 21.6033 21.5184C23.6476 20.886 25.7204 19.932 27.8603 18.3605C27.8791 18.3466 27.8909 18.3257 27.8929 18.3029C28.4145 12.9063 27.0192 8.21862 24.1939 4.06299C24.187 4.04911 24.1752 4.03917 24.1614 4.03321ZM11.3427 15.4597C10.11 15.4597 9.09429 14.328 9.09429 12.9381C9.09429 11.5483 10.0903 10.4166 11.3427 10.4166C12.6049 10.4166 13.6108 11.5582 13.591 12.9381C13.591 14.328 12.595 15.4597 11.3427 15.4597ZM19.6557 15.4597C18.4231 15.4597 17.4074 14.328 17.4074 12.9381C17.4074 11.5483 18.4033 10.4166 19.6557 10.4166C20.918 10.4166 21.9238 11.5582 21.9041 12.9381C21.9041 14.328 20.918 15.4597 19.6557 15.4597Z" fill="white"/>
</svg>
