<svg width="24" height="24" viewBox="0 0 24 24" fill="none" xmlns="http://www.w3.org/2000/svg">
<g clip-path="url(#clip0_204_201)">
<path d="M11.9997 0.279999C9.14289 0.279151 6.3795 1.29752 4.20642 3.15199C2.03335 5.00645 0.593157 7.57535 0.144818 10.3968C-0.303521 13.2182 0.269408 16.1069 1.76058 18.5437C3.25176 20.9804 5.56335 22.8052 8.27969 23.69H8.56969C8.71117 23.6988 8.8529 23.6774 8.98549 23.6272C9.11807 23.577 9.23847 23.4993 9.33871 23.399C9.43895 23.2988 9.51673 23.1784 9.56689 23.0458C9.61706 22.9132 9.63846 22.7715 9.62969 22.63V22.42V21.33C9.61987 21.2645 9.59714 21.2016 9.5628 21.1449C9.52847 21.0883 9.48322 21.039 9.42969 21C9.3716 20.953 9.30372 20.9196 9.23104 20.9023C9.15835 20.885 9.08272 20.8842 9.00969 20.9C6.32969 21.48 5.75969 19.8 5.71969 19.69C5.3841 18.8011 4.78372 18.0367 3.99969 17.5C3.95271 17.4594 3.90255 17.4226 3.84969 17.39C3.96589 17.3274 4.09881 17.303 4.22969 17.32C4.48102 17.3549 4.71904 17.4544 4.92056 17.6086C5.12208 17.7628 5.28026 17.9665 5.37969 18.2C5.76654 18.8736 6.39957 19.3709 7.1456 19.5872C7.89162 19.8036 8.69249 19.7221 9.37969 19.36C9.45343 19.3278 9.5183 19.2782 9.56879 19.2155C9.61928 19.1529 9.65389 19.0789 9.66969 19C9.70797 18.5374 9.90595 18.1026 10.2297 17.77C10.3016 17.7062 10.3535 17.623 10.3793 17.5304C10.4051 17.4378 10.4037 17.3397 10.3752 17.2479C10.3467 17.1561 10.2924 17.0745 10.2187 17.0128C10.145 16.9511 10.0551 16.9119 9.95969 16.9C7.58969 16.63 5.16969 15.8 5.16969 11.71C5.14971 10.6829 5.52568 9.68745 6.21969 8.93C6.2836 8.8594 6.32603 8.77201 6.34198 8.67812C6.35792 8.58423 6.34672 8.48774 6.30969 8.4C6.03177 7.62353 6.0353 6.77413 6.31969 6C7.24351 6.16376 8.11062 6.55946 8.83969 7.15C8.89992 7.19251 8.96897 7.22088 9.04169 7.233C9.1144 7.24512 9.18892 7.24068 9.25969 7.22C10.153 6.97768 11.0741 6.85329 11.9997 6.85C12.9287 6.85078 13.8535 6.97521 14.7497 7.22C14.819 7.23912 14.8916 7.24276 14.9625 7.23066C15.0333 7.21856 15.1007 7.19103 15.1597 7.15C15.8899 6.56132 16.7565 6.16584 17.6797 6C17.9519 6.76998 17.9519 7.61002 17.6797 8.38C17.6427 8.46774 17.6315 8.56423 17.6474 8.65812C17.6633 8.75202 17.7058 8.8394 17.7697 8.91C18.4565 9.65988 18.832 10.6432 18.8197 11.66C18.8197 15.75 16.3897 16.57 14.0097 16.84C13.9121 16.8502 13.8196 16.8888 13.7438 16.9512C13.668 17.0135 13.6123 17.0968 13.5835 17.1906C13.5547 17.2845 13.5541 17.3847 13.5819 17.4788C13.6097 17.573 13.6646 17.6568 13.7397 17.72C13.9612 17.9486 14.1305 18.2226 14.2358 18.523C14.3411 18.8234 14.38 19.1431 14.3497 19.46V22.64C14.3447 22.7963 14.3744 22.9518 14.4367 23.0953C14.4989 23.2388 14.5922 23.3668 14.7097 23.47C14.8594 23.5821 15.0331 23.6576 15.2172 23.6906C15.4012 23.7236 15.5904 23.7131 15.7697 23.66C18.4678 22.7574 20.7574 20.9254 22.23 18.4911C23.7026 16.0568 24.2624 13.1784 23.8095 10.3696C23.3566 7.56082 21.9204 5.00431 19.7573 3.15625C17.5942 1.30818 14.8448 0.288804 11.9997 0.279999Z" fill="white"/>
</g>
<defs>
<clipPath id="clip0_204_201">
<rect width="24" height="24" fill="white"/>
</clipPath>
</defs>
</svg>
