<svg width="1307" height="185" viewBox="0 0 1307 185" fill="none" xmlns="http://www.w3.org/2000/svg">
<g opacity="0.5">
<mask id="mask0_80_1460" style="mask-type:alpha" maskUnits="userSpaceOnUse" x="888" y="0" width="419" height="126">
<rect x="888" width="419" height="126" fill="url(#paint0_linear_80_1460)"/>
</mask>
<g mask="url(#mask0_80_1460)">
<rect x="890" y="83.7778" width="11" height="53.6667" rx="2" fill="white"/>
<rect x="895" y="71" width="1" height="69" fill="white"/>
<rect x="971" y="102" width="11" height="19" rx="2" fill="white"/>
<rect x="976" y="88" width="1" height="35" fill="white"/>
<rect x="917" y="72" width="11" height="34" rx="2" fill="white"/>
<rect x="922" y="62" width="1" height="54" fill="white"/>
<rect x="944" y="81" width="11" height="21" rx="2" fill="white"/>
<rect x="949" y="71" width="1" height="54" fill="white"/>
<rect x="998" y="62" width="11" height="42" rx="2" fill="white"/>
<rect x="1003" y="52" width="1" height="54" fill="white"/>
<rect x="1079" y="83" width="11" height="19" rx="2" fill="white"/>
<rect x="1084" y="69" width="1" height="35" fill="white"/>
<rect x="1025" y="53" width="11" height="34" rx="2" fill="white"/>
<rect x="1030" y="43" width="1" height="54" fill="white"/>
<rect x="1052" y="62" width="11" height="21" rx="2" fill="white"/>
<rect x="1057" y="52" width="1" height="54" fill="white"/>
<rect x="1107" y="45" width="11" height="42" rx="2" fill="white"/>
<rect x="1112" y="35" width="1" height="54" fill="white"/>
<rect x="1188" y="66" width="11" height="19" rx="2" fill="white"/>
<rect x="1193" y="52" width="1" height="35" fill="white"/>
<rect x="1134" y="19.7037" width="11" height="46.5926" rx="2" fill="white"/>
<rect x="1139" y="6" width="1" height="74" fill="white"/>
<rect x="1161" y="45" width="11" height="21" rx="2" fill="white"/>
<rect x="1166" y="35" width="1" height="54" fill="white"/>
<rect x="1215" y="26" width="11" height="42" rx="2" fill="white"/>
<rect x="1220" y="16" width="1" height="54" fill="white"/>
<rect x="1296" y="47" width="11" height="19" rx="2" fill="white"/>
<rect x="1301" y="33" width="1" height="35" fill="white"/>
<rect x="1242" y="17" width="11" height="34" rx="2" fill="white"/>
<rect x="1247" y="7" width="1" height="54" fill="white"/>
<rect x="1269" y="26" width="11" height="21" rx="2" fill="white"/>
<rect x="1274" y="16" width="1" height="54" fill="white"/>
</g>
<mask id="mask1_80_1460" style="mask-type:alpha" maskUnits="userSpaceOnUse" x="0" y="76" width="419" height="126">
<rect y="76" width="419" height="126" fill="url(#paint1_linear_80_1460)"/>
</mask>
<g mask="url(#mask1_80_1460)">
<rect x="7" y="184" width="1" height="54" fill="white"/>
<rect x="34" y="175" width="1" height="54" fill="white"/>
<rect x="61" y="184" width="1" height="54" fill="white"/>
<rect x="110" y="175" width="11" height="42" rx="2" fill="white"/>
<rect x="115" y="165" width="1" height="54" fill="white"/>
<rect x="196" y="182" width="1" height="35" fill="white"/>
<rect x="137" y="166" width="11" height="34" rx="2" fill="white"/>
<rect x="142" y="156" width="1" height="54" fill="white"/>
<rect x="164" y="175" width="11" height="21" rx="2" fill="white"/>
<rect x="169" y="165" width="1" height="54" fill="white"/>
<rect x="219" y="158" width="11" height="42" rx="2" fill="white"/>
<rect x="224" y="148" width="1" height="54" fill="white"/>
<rect x="300" y="179" width="11" height="19" rx="2" fill="white"/>
<rect x="305" y="165" width="1" height="35" fill="white"/>
<rect x="246" y="149" width="11" height="34" rx="2" fill="white"/>
<rect x="251" y="139" width="1" height="54" fill="white"/>
<rect x="273" y="158" width="11" height="21" rx="2" fill="white"/>
<rect x="278" y="148" width="1" height="54" fill="white"/>
<rect x="327" y="139" width="11" height="42" rx="2" fill="white"/>
<rect x="332" y="129" width="1" height="54" fill="white"/>
<rect x="408" y="160" width="11" height="19" rx="2" fill="white"/>
<rect x="413" y="146" width="1" height="35" fill="white"/>
<rect x="354" y="130" width="11" height="34" rx="2" fill="white"/>
<rect x="359" y="120" width="1" height="54" fill="white"/>
<rect x="381" y="139" width="11" height="21" rx="2" fill="white"/>
<rect x="386" y="129" width="1" height="54" fill="white"/>
</g>
<mask id="mask2_80_1460" style="mask-type:alpha" maskUnits="userSpaceOnUse" x="448" y="50" width="419" height="126">
<rect x="448" y="50" width="419" height="126" fill="url(#paint2_linear_80_1460)"/>
</mask>
<g mask="url(#mask2_80_1460)">
<rect x="450" y="131" width="11" height="42" rx="2" fill="white"/>
<rect x="455" y="121" width="1" height="54" fill="white"/>
<rect x="531" y="152" width="11" height="19" rx="2" fill="white"/>
<rect x="536" y="138" width="1" height="35" fill="white"/>
<rect x="477" y="122" width="11" height="34" rx="2" fill="white"/>
<rect x="482" y="112" width="1" height="54" fill="white"/>
<rect x="504" y="131" width="11" height="21" rx="2" fill="white"/>
<rect x="509" y="121" width="1" height="54" fill="white"/>
<rect x="558" y="112" width="11" height="42" rx="2" fill="white"/>
<rect x="563" y="102" width="1" height="54" fill="white"/>
<rect x="639" y="133" width="11" height="19" rx="2" fill="white"/>
<rect x="644" y="119" width="1" height="35" fill="white"/>
<rect x="585" y="103" width="11" height="34" rx="2" fill="white"/>
<rect x="590" y="93" width="1" height="54" fill="white"/>
<rect x="612" y="112" width="11" height="21" rx="2" fill="white"/>
<rect x="617" y="102" width="1" height="54" fill="white"/>
<rect x="667" y="95" width="11" height="42" rx="2" fill="white"/>
<rect x="672" y="85" width="1" height="54" fill="white"/>
<rect x="748" y="116" width="11" height="19" rx="2" fill="white"/>
<rect x="753" y="102" width="1" height="35" fill="white"/>
<rect x="694" y="86" width="11" height="34" rx="2" fill="white"/>
<rect x="699" y="76" width="1" height="54" fill="white"/>
<rect x="721" y="95" width="11" height="21" rx="2" fill="white"/>
<rect x="726" y="85" width="1" height="54" fill="white"/>
<rect x="775" y="76" width="11" height="42" rx="2" fill="white"/>
<rect x="780" y="66" width="1" height="54" fill="white"/>
<rect x="856" y="97" width="11" height="19" rx="2" fill="white"/>
<rect x="861" y="83" width="1" height="35" fill="white"/>
<rect x="802" y="67" width="11" height="34" rx="2" fill="white"/>
<rect x="807" y="57" width="1" height="54" fill="white"/>
<rect x="829" y="76" width="11" height="21" rx="2" fill="white"/>
<rect x="834" y="66" width="1" height="54" fill="white"/>
</g>
</g>
<defs>
<linearGradient id="paint0_linear_80_1460" x1="1097.5" y1="0" x2="1097.5" y2="126" gradientUnits="userSpaceOnUse">
<stop stop-color="white"/>
<stop offset="1" stop-color="white" stop-opacity="0.22"/>
</linearGradient>
<linearGradient id="paint1_linear_80_1460" x1="209.5" y1="76" x2="209.5" y2="202" gradientUnits="userSpaceOnUse">
<stop stop-color="white" stop-opacity="0.44"/>
<stop offset="1" stop-color="white" stop-opacity="0"/>
</linearGradient>
<linearGradient id="paint2_linear_80_1460" x1="657.5" y1="50" x2="657.5" y2="176" gradientUnits="userSpaceOnUse">
<stop stop-color="white" stop-opacity="0.43"/>
<stop offset="1" stop-color="white" stop-opacity="0"/>
</linearGradient>
</defs>
</svg>
