<svg width="1440" height="483" viewBox="0 0 1440 483" fill="none" xmlns="http://www.w3.org/2000/svg">
<g opacity="0.2">
<path d="M-109 410.485C-68.458 410.259 -28.178 416.165 12.2985 417.645C39.8408 418.65 67.5301 418.038 95.0498 416.673C146.289 414.134 197.371 408.664 248.696 407.842C298.919 407.04 348.941 405.958 399.134 403.599C446.169 401.392 494.722 396.577 541.48 403.825C587.132 410.901 631.072 426.492 676.959 432.321C723.974 438.292 768.91 424.865 815.765 425.109C862.246 425.335 908.813 425.751 955.291 425.129C1003.36 424.49 1051.34 420.611 1099.36 418.788C1128.17 417.694 1156.98 418.078 1185.76 416.228C1216.01 414.281 1246.15 410.932 1276.32 407.952C1306.74 404.948 1337.23 402.277 1367.82 401.83C1386.46 401.557 1400.73 404.643 1417.14 413.908C1433.32 423.04 1447.97 433.039 1466.97 434.48" stroke="url(#paint0_linear_200_22)" stroke-miterlimit="10"/>
<path d="M-109 396.81C-40.8908 395.002 27.5167 399.266 95.6689 399.591C147.457 399.839 199.248 398.902 251.032 399.844C300.961 400.748 350.387 397.847 400.205 394.472C446.971 391.309 494.79 386.519 541.48 392.49C587.008 398.314 631.257 411.709 676.955 416.438C723.642 421.259 768.228 408.431 814.682 409.195C861.137 409.959 907.908 412.877 954.391 411.838C1002.96 410.752 1051.2 403.454 1099.62 400.115C1128.46 398.127 1157.33 398.807 1186.19 397.53C1216.44 396.193 1246.61 393.735 1276.81 391.568C1307.28 389.384 1337.79 387.47 1368.34 387.332C1386.71 387.246 1401.08 389.942 1417.46 398.732C1433.6 407.399 1448.23 416.806 1466.96 418.04" stroke="url(#paint1_linear_200_22)" stroke-miterlimit="10"/>
<path d="M-109 382.922C-40.5767 380.211 27.8014 379.197 96.1727 382.681C148.467 385.347 200.735 388.555 253.043 390.898C349.216 395.224 445.561 370.598 541.48 380.661C586.906 385.428 631.397 396.787 676.955 400.594C723.305 404.469 767.67 392.212 813.763 393.365C860.267 394.526 907.115 399.584 953.625 398.272C1002.7 396.887 1051.08 386.508 1099.87 381.888C1128.73 379.154 1157.61 380.08 1186.56 379.296C1216.8 378.476 1247.01 376.811 1277.23 375.374C1307.73 373.919 1338.26 372.663 1368.8 372.749C1386.94 372.796 1401.4 375.194 1417.75 383.56C1433.86 391.808 1448.48 400.678 1466.96 401.78" stroke="url(#paint2_linear_200_22)" stroke-miterlimit="10"/>
<path d="M-109 368.628C-68.4105 366.929 -27.8595 364.422 12.7187 362.497C40.6948 361.168 68.6371 363.509 96.5138 365.917C149.231 370.467 201.754 377.227 254.581 380.478C350.572 386.384 445.487 359.582 541.48 368.014C586.829 371.997 631.519 381.569 676.955 384.732C699.773 386.325 722.399 386.07 745.073 383.058C767.891 380.028 789.975 376.895 813.076 377.577C859.639 378.951 906.462 385.618 953.054 384.24C1002.58 382.773 1050.99 369.78 1100.07 364.234C1128.93 360.965 1157.86 362.07 1186.84 361.654C1217.09 361.22 1247.32 360.231 1277.55 359.395C1308.08 358.543 1338.61 357.827 1369.15 357.987C1387.12 358.082 1401.65 360.307 1417.97 368.325C1434.07 376.233 1448.68 384.655 1466.96 385.722" stroke="url(#paint3_linear_200_22)" stroke-miterlimit="10"/>
<path d="M-109 353.778C-68.3157 352.567 -27.8414 347.739 12.7729 345.523C40.7671 343.993 68.802 346.305 96.6245 349.319C149.64 355.057 202.233 364.654 255.492 368.111C351.313 374.331 445.507 346.738 541.468 354.268C586.764 357.822 631.587 365.951 676.943 368.843C699.762 370.298 722.284 370.23 744.962 367.261C767.64 364.293 789.695 361.186 812.667 361.839C859.334 363.181 905.974 370.761 952.704 369.586C1002.59 368.335 1050.89 353.367 1100.21 347.315C1129.01 343.783 1158.03 344.985 1186.97 344.777C1217.22 344.552 1247.46 344.068 1277.71 343.648C1308.24 343.223 1338.78 342.866 1369.32 342.941C1387.2 342.984 1401.75 345.186 1418.08 352.963C1434.16 360.624 1448.8 368.721 1466.94 369.862" stroke="url(#paint4_linear_200_22)" stroke-miterlimit="10"/>
<path d="M-107.207 339.195C-67.1417 339.163 -27.6412 331.062 12.2885 328.802C40.2579 327.221 68.4871 329.369 96.2644 332.62C149.499 338.847 202.146 350.136 255.726 353.362C351.784 359.144 445.621 330.302 541.831 338.147C587.016 341.831 631.69 350.12 676.933 353.146C699.774 354.671 722.272 354.476 745.007 351.758C767.662 349.047 789.855 346.074 812.743 346.693C859.378 347.949 905.98 355.328 952.667 354.162C1002.46 352.922 1050.81 338.644 1100.08 332.844C1128.88 329.455 1157.88 330.689 1186.82 330.323C1217.05 329.943 1247.28 329.116 1277.51 328.407C1308.03 327.689 1338.56 327.081 1369.09 327.176C1386.99 327.23 1401.59 329.539 1417.93 337.293C1434.06 344.947 1448.81 353.069 1466.96 354.266" stroke="url(#paint5_linear_200_22)" stroke-miterlimit="10"/>
<path d="M-95.0391 329.724C-59.8311 328.576 -26.6791 315.292 7.92793 310.125C36.6858 305.833 67.0409 309.773 95.6609 313.702C148.857 321.008 201.316 333.757 254.962 337.729C352.977 344.985 447.13 305.955 545.321 317.294C589.44 322.388 632.738 333.09 676.985 337.218C722.113 341.429 766.607 333.633 811.704 334.256C858.449 334.9 905.139 339.425 951.903 338.879C1001.29 338.3 1050.06 329.275 1099.24 325.775C1128.27 323.708 1157.39 324.469 1186.45 322.788C1215.82 321.089 1245.1 318.319 1274.41 315.814C1306.14 313.103 1337.94 310.654 1369.8 310.265C1387.06 310.055 1400.8 313.125 1416.38 320.689C1432.97 328.75 1448.19 337.539 1466.96 338.908" stroke="url(#paint6_linear_200_22)" stroke-miterlimit="10"/>
<path d="M-80.9707 321.426C-48.8624 318.692 -22.5784 298.707 8.05907 290.766C34.5599 283.895 65.5566 289.973 92.1727 294.139C146.69 302.672 200.23 317.529 255.321 322.327C354.05 330.912 447.011 280.882 545.834 295.519C589.966 302.058 632.729 315.771 677.031 321.351C722.181 327.036 768.53 322.513 813.94 322.549C860.015 322.585 906.086 323.678 952.163 323.839C1000.46 324.013 1048.66 321.044 1096.93 320.181C1126.4 319.655 1155.51 319.826 1184.86 316.587C1214.57 313.308 1244.04 308.3 1273.58 303.743C1304.38 298.999 1335.32 294.672 1366.49 293.445C1384.35 292.74 1398.4 296.091 1414.43 304.048C1431.63 312.588 1447.43 322.178 1466.97 323.796" stroke="url(#paint7_linear_200_22)" stroke-miterlimit="10"/>
<path d="M-76.1426 308.889C-44.624 306.375 -22.0587 283.1 7.30457 274.305C33.1502 266.563 65.2992 273.544 91.3776 277.804C146.169 286.753 199.9 302.306 255.315 307.349C354.592 316.385 447.361 262.342 546.697 278.281C590.64 285.323 632.903 300.46 677.044 306.436C721.978 312.515 768.981 308.953 814.252 308.937C908.318 308.907 1002.38 308.845 1096.45 308.752C1125.95 308.752 1155.03 308.706 1184.35 304.956C1214.05 301.158 1243.43 295.273 1272.88 289.93C1303.58 284.363 1334.48 279.311 1365.7 278.01C1383.66 277.258 1397.8 280.859 1413.9 288.854C1431.25 297.464 1447.28 307.213 1466.95 308.962" stroke="url(#paint8_linear_200_22)" stroke-miterlimit="10"/>
<path d="M-77.8535 292.519C-46.6309 289.598 -21.9216 269.434 7.71057 261.342C33.9584 254.168 65.2737 260.632 91.7542 264.504C146.353 272.507 200.152 286.01 255.219 290.766C353.948 299.292 447.876 249.718 546.57 264.963C590.506 271.741 632.932 286.096 677.052 291.875C722.178 297.785 769.067 294.096 814.498 294.085C860.376 294.085 906.27 294.085 952.148 294.448C1000.53 294.821 1048.82 291.805 1097.19 291.06C1126.66 290.608 1155.71 290.506 1185.08 287.474C1214.54 284.433 1243.84 280.032 1273.19 275.984C1303.91 271.743 1334.72 267.873 1365.71 266.4C1383.38 265.56 1397.77 269.059 1413.93 276.187C1431.38 283.889 1447.73 292.453 1466.99 294.376" stroke="url(#paint9_linear_200_22)" stroke-miterlimit="10"/>
<path d="M-81.2988 274.619C-49.918 272.36 -22.5406 256.278 7.8439 249.803C34.713 244.079 64.7428 249.015 91.761 252.135C145.883 258.389 199.484 269.061 253.888 272.866C352.488 279.756 448.54 238.957 546.911 253.061C590.677 259.337 633.16 272.577 677.095 277.847C722.389 283.27 768.958 279.203 814.486 279.275C860.015 279.347 905.586 280.098 951.136 280.14C1000.88 280.188 1050.2 273.29 1099.83 271.018C1157.05 268.397 1214.08 266.782 1271.27 262.785C1302.85 260.578 1334.44 258.54 1366.09 257.638C1402.16 256.613 1431.7 277.375 1466.96 280.118" stroke="url(#paint10_linear_200_22)" stroke-miterlimit="10"/>
<path d="M-85.6035 256.116C-53.4613 255.022 -23.3209 243.324 8.33331 239.016C35.896 235.265 64.9475 238.358 92.5599 240.516C146.33 244.72 199.828 252.234 253.741 254.609C351.566 258.915 449.165 229.446 546.606 241.898C590.399 247.495 633.134 259.541 677.054 264.206C722.736 269.059 769.199 264.432 815.041 264.638C860.4 264.845 905.784 266.633 951.142 266.126C1001.68 265.564 1051.24 254.256 1101.47 249.971C1157.84 245.161 1215.52 248.911 1272.04 249.632C1303.4 250.032 1334.75 250.389 1366.11 250.463C1382.68 250.502 1397.99 252.045 1414.1 256.111C1431.69 260.535 1448.72 265.422 1466.95 266.158" stroke="url(#paint11_linear_200_22)" stroke-miterlimit="10"/>
<path d="M-89.9102 237.929C-56.8259 238.001 -24.451 230.765 8.46385 228.569C37.4725 226.633 66.9622 228.117 95.9844 229.326C148.141 231.499 200.214 235.652 252.421 236.648C303.093 237.606 353.476 235.137 404.029 232.028C451.451 229.111 499.532 225.747 546.888 231.124C590.531 236.079 633.324 246.837 677.092 250.884C722.954 255.124 769.183 249.98 815.145 250.312C861.007 250.646 907.084 253.75 952.94 252.381C1003.15 250.879 1051.79 235.857 1101.41 229.47C1158.22 222.157 1216.85 231.37 1273.51 236.863C1304.46 239.865 1335.45 242.588 1366.53 243.613C1382.64 244.144 1398.32 244.564 1414.3 246.937C1431.87 249.546 1449.15 252.456 1466.96 252.503" stroke="url(#paint12_linear_200_22)" stroke-miterlimit="10"/>
<path d="M-93.3457 220.987C-59.3374 221.712 -25.4421 218.459 8.54589 217.883C37.6697 217.39 66.8704 217.621 96.001 217.905C148.711 218.418 201.41 219.903 254.125 219.826C304.434 219.751 354.706 219.446 405.01 218.47C452.228 217.546 500.176 215.321 547.229 220.138C590.726 224.59 633.532 234.24 677.136 237.802C723.102 241.557 769.132 236.043 815.146 236.447C860.647 236.856 906.432 240.624 951.918 239.083C1003.75 237.33 1053.15 218.12 1104.07 210.238C1160.87 201.447 1218.87 214.941 1274.79 224.423C1305.31 229.599 1335.98 234.289 1366.92 235.828C1400 237.475 1433.84 239.802 1466.95 239.185" stroke="url(#paint13_linear_200_22)" stroke-miterlimit="10"/>
<path d="M-95.0547 206.212C21.3096 207.249 137.647 205.588 254.015 204.84C304.306 204.517 354.597 205.102 404.885 205.473C452.132 205.821 500.017 203.864 547.093 208.39C590.601 212.571 633.538 221.446 677.137 224.823C723.243 228.397 769.25 222.776 815.384 223.188C860.831 223.592 906.467 227.48 951.91 226.147C1004.31 224.615 1053.54 202.764 1104.8 194.145C1162.06 184.516 1219.37 199.947 1275.07 212.029C1305.33 218.592 1335.9 224.487 1366.9 225.81C1400.12 227.218 1433.71 226.475 1466.95 226.217" stroke="url(#paint14_linear_200_22)" stroke-miterlimit="10"/>
<path d="M-98.8145 195.857C-33.7484 195.961 31.365 193.499 96.4469 193.101C149.101 192.778 201.752 192.243 254.406 192.053C304.473 191.87 354.515 192.505 404.573 193.273C451.703 194.007 499.371 192.143 546.336 196.47C590.068 200.505 633.291 208.911 677.105 212.196C723.81 215.698 768.893 205.574 815.397 206.3C860.998 207.011 906.255 214.058 951.907 213.638C1004.27 213.154 1053.49 192.292 1104.86 184.839C1162.22 176.516 1219.17 189.947 1275.08 201.374C1305.34 207.56 1335.94 213.012 1366.9 213.574C1400.23 214.166 1433.63 213.597 1466.96 213.597" stroke="url(#paint15_linear_200_22)" stroke-miterlimit="10"/>
<path d="M-107.07 188.804C-67.4817 187.867 -28.1755 182.392 11.3409 180.206C39.265 178.66 67.4106 179.607 95.3709 179.623C148.885 179.651 202.398 179.679 255.912 179.706C305.112 179.742 354.255 180.633 403.441 181.882C449.956 183.061 496.887 181.608 543.269 185.409C588.002 189.073 632.283 197.059 677.073 200.094C700.901 201.711 723.145 201.53 746.451 195.903C770.128 190.187 792.513 183.495 817.166 184.952C862.725 187.647 906.857 201.029 952.681 201.445C1004.52 201.91 1053.58 181.751 1104.5 175.124C1162.46 167.585 1219.8 179.919 1276.43 190.743C1305.44 196.287 1334.74 201.063 1364.33 201.465C1398.52 201.928 1432.77 201.332 1466.97 201.332" stroke="url(#paint16_linear_200_22)" stroke-miterlimit="10"/>
<path d="M-108.76 178.398C-68.5996 177.461 -28.846 170.778 11.2057 168.256C39.148 166.494 67.3997 167.667 95.3894 167.698C148.97 167.757 202.549 167.806 256.127 167.845C305.207 167.945 354.25 168.783 403.256 170.36C449.708 171.783 496.499 170.434 542.829 174.117C587.688 177.682 632.153 185.165 677.066 188.165C701.048 189.767 723.121 189.819 746.441 183.42C770.163 176.927 792.165 169.476 817.114 171.06C862.649 173.947 906.783 190.781 952.668 189.324C1004.65 187.675 1053.55 165.633 1104.36 156.807C1162.29 146.742 1220.12 162.85 1276.38 175.332C1305.36 181.755 1334.63 187.483 1364.33 189.035C1398.52 190.824 1433.09 189.455 1467.32 189.455" stroke="url(#paint17_linear_200_22)" stroke-miterlimit="10"/>
<path d="M-106.717 168.973C-67.2818 167.603 -28.2173 161.467 11.125 158.806C39.0944 156.908 67.3642 158.09 95.3946 157.938C148.975 157.651 202.55 156.888 256.133 156.883C305.208 156.883 354.147 158.081 403.184 159.969C449.645 161.759 496.346 160.668 542.71 164.036C587.585 167.298 632.153 173.936 677.069 176.713C700.951 178.19 723.042 178.186 746.385 172.42C769.989 166.582 792.281 159.723 816.898 161.239C862.351 164.036 906.944 179.376 952.678 177.833C1004.14 176.098 1053.18 156.413 1103.69 148.321C1161.56 139.058 1219.56 153.808 1276.13 165.008C1305.27 170.78 1334.64 175.942 1364.35 177.517C1399.58 179.383 1435.19 177.987 1470.47 177.987" stroke="url(#paint18_linear_200_22)" stroke-miterlimit="10"/>
<path d="M-102.992 161.305C-64.8969 159.561 -27.1202 153.996 10.8915 151.192C39.7916 149.06 69.0081 150.162 97.9805 149.69C150.313 148.836 202.631 147.191 254.973 146.843C303.878 146.52 352.572 148.249 401.416 150.684C448.614 153.045 495.952 152.394 543.095 155.279C587.828 158.015 632.353 163.537 677.118 165.844C700.65 167.057 722.915 167.104 746.065 162.283C769.446 157.412 791.984 151.685 816.072 152.889C861.422 155.148 906.123 167.85 951.663 166.82C1003.23 165.652 1053.04 148.608 1103.91 141.93C1160.57 134.492 1217.51 146.448 1273.28 155.663C1303.56 160.665 1334 165.2 1364.71 166.524C1401.7 168.121 1438.96 166.899 1475.99 166.899" stroke="url(#paint19_linear_200_22)" stroke-miterlimit="10"/>
<path d="M-98.0879 154.514C-61.538 152.521 -25.2455 147.537 11.2389 144.727C40.0306 142.508 69.1115 143.371 97.98 142.524C150.315 140.994 202.617 138.313 254.972 137.517C303.876 136.774 352.472 139.248 401.255 142.341C448.474 145.332 495.633 145.239 542.849 147.413C587.634 149.475 632.287 153.784 677.09 155.499C700.324 156.389 722.899 156.497 745.904 152.787C769.211 149.037 791.884 144.79 815.611 145.621C861.085 147.216 906.071 156.85 951.653 156.194C1002.49 155.465 1052.14 142.264 1102.56 137.273C1159.36 131.652 1216.38 140.703 1272.65 147.797C1342.8 156.642 1412.26 156.231 1482.87 156.231" stroke="url(#paint20_linear_200_22)" stroke-miterlimit="10"/>
<path d="M-92.5098 147.752C-57.6972 145.718 -23.0744 141.457 11.6885 138.825C40.3537 136.654 69.2493 137.205 97.9913 135.976C150.329 133.735 202.594 129.989 254.983 128.713C303.889 127.52 352.372 130.785 401.1 134.553C448.324 138.204 495.285 138.699 542.589 140.12C587.432 141.475 632.208 144.532 677.061 145.619C700.053 146.177 722.851 146.358 745.742 143.811C768.94 141.234 791.738 138.527 815.134 138.972C860.723 139.835 906.007 146.251 951.646 146.023C1001.77 145.772 1051.22 136.568 1101.14 133.358C1158.15 129.691 1215.24 135.644 1271.99 140.533C1344.69 146.796 1417.18 146.01 1490.11 146.01" stroke="url(#paint21_linear_200_22)" stroke-miterlimit="10"/>
<path d="M-86.7559 140.138C27.1097 134.038 140.975 123.905 254.972 120.202C303.891 118.621 352.261 122.588 400.937 126.98C448.186 131.252 494.957 132.271 542.351 133.017C587.254 133.722 632.129 135.595 677.033 136.121C723.047 136.659 768.729 132.213 814.689 132.448C860.366 132.673 905.942 136.148 951.632 136.272C1001.16 136.406 1050.38 130.959 1099.84 129.35C1157.05 127.491 1214.26 130.593 1271.38 133.417C1346.46 137.138 1421.54 136.216 1496.7 136.216" stroke="url(#paint22_linear_200_22)" stroke-miterlimit="10"/>
<path d="M-81.3301 130.812C-21.6275 128.571 38.3688 126.666 97.981 122.791C150.33 119.389 202.534 113.768 254.973 111.787C303.913 109.934 352.188 114.414 400.82 119.33C448.084 124.106 494.703 125.527 542.17 125.762C632.934 126.214 723.607 125.866 814.353 125.611C860.108 125.484 905.88 126.686 951.634 126.953C1000.73 127.242 1049.75 124.92 1098.84 124.468C1156.21 123.946 1213.58 124.906 1270.94 126.063C1347.83 127.615 1424.74 126.892 1501.64 126.892" stroke="url(#paint23_linear_200_22)" stroke-miterlimit="10"/>
<path d="M-76.7344 118.908C-18.5251 118.513 39.8875 119.303 97.9815 115.221C150.335 111.541 202.507 105.28 254.974 103.247C303.938 101.351 352.152 106.005 400.767 111.249C448.01 116.346 494.588 117.966 542.075 117.97C727.494 117.987 912.91 117.966 1098.32 117.907C1233.53 117.937 1368.73 117.977 1503.94 118.027" stroke="url(#paint24_linear_200_22)" stroke-miterlimit="10"/>
<path d="M-74.7363 110.056C-17.293 110.673 40.7649 110.922 98.0795 106.803C150.512 103.035 202.745 96.4647 255.304 94.4924C304.257 92.6533 352.296 97.2193 400.856 102.797C448.049 108.219 494.58 109.756 542.058 109.722C727.511 109.585 912.962 109.443 1098.41 109.297C1233.59 109.211 1368.82 108.579 1504 109.392" stroke="url(#paint25_linear_200_22)" stroke-miterlimit="10"/>
<path d="M-74.3398 103.037C-44.7755 103.536 -15.2857 101.247 14.2674 101.003C42.4785 100.778 70.4682 100.459 98.6273 98.3534C151.225 94.4178 203.601 87.4842 256.338 85.4757C305.194 83.6141 352.889 88.3246 401.275 94.4494C448.337 100.405 494.654 101.995 542.052 101.821C632.74 101.494 723.44 102.047 814.112 101.661C860.16 101.462 906.246 102.499 952.294 102.813C1001.16 103.147 1049.96 101.024 1098.82 100.694C1156.21 100.303 1213.61 100.92 1270.99 101.132C1348.65 101.426 1426.35 99.8241 1503.99 100.554" stroke="url(#paint26_linear_200_22)" stroke-miterlimit="10"/>
<path d="M-75.1035 96.8804C-44.9427 97.3661 -14.9807 93.5548 15.144 92.8906C43.3844 92.267 71.3832 92.2286 99.5762 90.001C152.404 85.8237 204.983 78.454 257.967 76.3304C306.665 74.3784 353.874 79.4549 401.986 86.2959C448.838 92.9584 494.794 94.7454 542.075 94.35C587.228 93.9705 632.37 92.7211 677.523 92.4771C723.092 92.2309 768.57 94.3591 814.114 94.2845C860.449 94.2055 906.779 96.3901 953.116 96.7042C1001.99 97.034 1050.67 93.2114 1099.51 92.3348C1156.74 91.3069 1214.09 92.5246 1271.32 92.9245C1348.88 93.4689 1426.46 90.9228 1503.98 91.6367" stroke="url(#paint27_linear_200_22)" stroke-miterlimit="10"/>
<path d="M-76.8496 91.5305C-45.7128 91.8287 -14.9623 86.3772 16.0932 85.1143C44.4127 83.9621 72.5583 84.2106 100.857 81.8203C153.965 77.3402 206.798 69.4736 260.084 67.1737C308.583 65.0794 355.182 70.6913 402.936 78.3998C449.519 85.9208 494.977 88.0151 542.118 87.3238C587.371 86.6619 632.601 84.8206 677.858 84.3394C723.388 83.8559 768.647 87.2764 814.139 87.4526C860.856 87.6221 907.471 91.273 954.198 91.4876C1003.1 91.7135 1051.61 85.8915 1100.44 84.258C1157.44 82.3625 1214.75 84.3326 1271.78 84.9539C1302.83 85.2928 1333.88 85.5865 1364.93 85.5706C1411.31 85.5503 1457.63 82.4552 1503.99 82.7376" stroke="url(#paint28_linear_200_22)" stroke-miterlimit="10"/>
<path d="M-79.3945 86.933C-46.9745 86.8923 -15.1847 79.726 17.0952 77.7289C45.539 75.9666 73.9399 76.4772 102.393 73.904C155.828 69.0737 208.947 60.6626 262.573 58.1367C310.862 55.8617 356.726 62.1288 404.062 70.8337C450.331 79.3419 495.166 81.8135 542.162 80.7743C587.535 79.7735 632.862 77.2883 678.238 76.5156C723.769 75.7407 768.719 80.6772 814.17 81.1765C861.341 81.6961 908.274 87.0685 955.474 87.1047C1004.42 87.1431 1052.72 79.0889 1101.52 76.5586C1158.23 73.6215 1215.55 76.4501 1272.32 77.3222C1303.25 77.7966 1334.18 78.2259 1365.12 78.2417C1411.46 78.2846 1457.66 73.9785 1503.99 74.0079" stroke="url(#paint29_linear_200_22)" stroke-miterlimit="10"/>
<path d="M-82.5527 83.0358C-48.7342 82.5365 -15.8171 73.6893 17.7823 70.8133C46.269 68.3756 74.9274 69.1528 103.475 66.3988C157.096 61.2274 210.357 52.2785 264.193 49.4048C313.13 46.7931 358.688 53.9232 406.403 63.8842C452.163 73.4385 496.171 76.1451 542.829 74.7128C588.156 73.3211 633.424 70.1739 678.754 69.0782C724.164 67.9802 768.504 74.6043 813.772 75.4493C862.179 76.353 910.19 83.8084 958.657 83.4831C1006.54 83.151 1053.52 73.0161 1101.14 69.4035C1158.22 65.0726 1216.44 68.9381 1273.61 70.0926C1304.31 70.7116 1335.01 71.2561 1365.71 71.3352C1411.9 71.4527 1457.83 65.8385 1503.99 65.5425" stroke="url(#paint30_linear_200_22)" stroke-miterlimit="10"/>
<path d="M-86.1543 79.7802C-50.7814 78.7478 -16.6082 68.2355 18.4484 64.4174C47.0052 61.3019 75.9957 62.2937 104.663 59.3477C159.481 53.7177 213.886 43.9487 268.959 40.8875C317.386 38.1967 361.895 46.4294 408.763 57.4567C453.017 67.8673 495.428 71.0121 540.807 69.2838C586.995 67.5239 633.076 63.5838 679.278 62.1107C701.87 61.39 724.193 61.085 746.632 64.1802C769.071 67.2754 790.735 69.686 813.377 70.3005C862.115 71.6244 910.35 81.1245 959.177 80.5371C1007.94 79.952 1055.34 67.1195 1103.7 62.5174C1160.16 57.1449 1218.32 61.9029 1274.93 63.3352C1305.38 64.1079 1335.84 64.7834 1366.3 64.9167C1412.35 65.1178 1457.99 58.139 1503.99 57.4612" stroke="url(#paint31_linear_200_22)" stroke-miterlimit="10"/>
<path d="M-90.0117 77.1119C-52.8789 75.5011 -17.2643 63.2809 19.4574 58.5184C48.1994 54.7906 77.626 55.9135 106.537 52.746C161.737 46.6958 216.483 36.3169 271.97 32.9596C320.25 30.0362 363.756 39.0799 410.102 51.3295C431.246 56.9166 452.576 62.0564 474.375 64.2478C496.43 66.4641 518.783 65.3774 540.878 64.3359C587.213 62.1648 633.394 57.5017 679.744 55.6582C702.407 54.7545 724.552 54.4246 746.981 58.1795C769.375 61.9276 790.743 64.8781 813.437 65.7118C862.675 67.5192 911.364 79.1475 960.739 78.2054C1009.64 77.2746 1056.72 62.0021 1105.04 56.2524C1160.99 49.5944 1219.41 55.3668 1275.59 57.086C1305.9 58.0146 1336.22 58.8324 1366.55 59.0245C1412.57 59.3204 1458.04 50.9454 1504 49.8881" stroke="url(#paint32_linear_200_22)" stroke-miterlimit="10"/>
<path d="M-93.9434 74.9883C-55.1681 72.8104 -18.2047 59.02 20.0442 53.2883C48.8879 48.9642 78.6578 50.2067 107.736 46.845C163.147 40.422 218.051 29.4895 273.766 25.7369C298.285 24.0877 322.482 24.1216 346.707 28.6129C368.215 32.6005 389.091 39.2065 410.034 45.3946C430.645 51.4945 451.455 57.1562 472.841 59.7498C495.602 62.5105 518.717 61.225 541.546 59.9486C587.847 57.3595 633.949 52.0028 680.279 49.8091C702.935 48.736 724.813 48.3609 747.153 52.7461C769.431 57.111 790.329 60.6738 813.027 61.6769C862.611 63.8684 911.53 77.4328 961.276 76.4771C1010.13 75.5373 1056.74 57.8656 1104.74 50.8167C1160.88 42.5705 1220.39 49.4612 1276.89 51.4742C1306.96 52.5518 1337.05 53.5075 1367.14 53.747C1413.03 54.122 1458.19 44.3689 1503.99 42.941" stroke="url(#paint33_linear_200_22)" stroke-miterlimit="10"/>
<path d="M-97.7734 73.3233C-57.4235 70.6348 -19.152 55.3533 20.5496 48.6976C49.4678 43.8516 79.6038 45.171 108.825 41.6285C165.421 34.7649 221.452 22.9514 278.401 19.0835C302.76 17.4275 326.523 17.6354 350.504 22.6712C371.547 27.088 391.848 34.1933 412.267 40.8264C432.402 47.3782 452.771 53.3901 473.818 56.1441C496.476 59.1105 519.473 57.6329 542.198 56.1644C588.461 53.1709 634.484 47.1726 680.78 44.6423C703.438 43.4065 725.061 42.9569 747.301 47.9611C770.408 53.1574 791.681 56.9551 815.329 58.3694C865.077 61.3426 914.444 76.9562 964.438 75.1058C1013.33 73.2985 1059.33 53.494 1107.22 45.6318C1134.86 41.0998 1162.82 42.4282 1190.71 43.2054C1218.88 43.9916 1247.03 45.2545 1275.18 46.4135C1306.01 47.6855 1336.86 48.8174 1367.72 49.1246C1413.48 49.5765 1458.36 38.4904 1504 36.7327" stroke="url(#paint34_linear_200_22)" stroke-miterlimit="10"/>
<path d="M-101.311 72.0919C-59.3746 68.9809 -19.8086 52.1925 21.3819 44.7551C50.4628 39.5002 80.9557 40.8738 110.396 37.137C167.329 29.9074 223.651 17.5359 280.968 13.415C305.291 11.6731 328.909 11.8539 352.792 17.3009C373.522 22.0317 393.406 29.6137 413.407 36.7032C433.15 43.7068 453.169 50.1276 473.968 53.0895C496.583 56.3111 519.571 54.6845 542.263 53.0488C588.654 49.7074 634.751 43.0607 681.185 40.2299C703.929 38.845 725.378 38.3276 747.607 43.9283C770.712 49.7481 791.599 53.9525 815.384 55.5498C865.516 58.9138 915.33 76.3506 965.768 74.2066C1014.87 72.119 1060.48 50.1525 1108.36 41.3572C1135.91 36.2966 1163.83 37.7425 1191.68 38.61C1219.71 39.4866 1247.71 40.8896 1275.73 42.1796C1306.44 43.5939 1337.16 44.8523 1367.9 45.1957C1413.68 45.7063 1458.37 33.3912 1503.99 31.3669" stroke="url(#paint35_linear_200_22)" stroke-miterlimit="10"/>
<path d="M-104.387 71.2289C-61.215 67.8626 -20.612 49.7661 21.6968 41.6328C50.8025 36.0254 81.5507 37.4713 111.065 33.6013C168.136 26.1187 224.527 13.3246 281.988 8.87164C306.18 6.99648 329.85 6.96711 353.572 12.6152C374.016 17.4816 393.493 25.416 413.067 32.9099C433.117 40.5913 453.507 47.7396 474.83 50.8573C497.339 54.1468 520.319 52.3665 542.892 50.5839C589.224 46.9262 635.213 39.7148 681.597 36.649C704.312 35.1488 725.585 34.5569 747.694 40.6275C770.69 46.9421 791.091 51.6232 814.949 53.3199C865.33 56.9053 915.196 75.6118 965.902 73.6914C1016.03 71.7914 1061.89 47.116 1110.55 37.6317C1137.91 32.2999 1165.77 33.9695 1193.47 34.9207C1221.28 35.8831 1249.06 37.4058 1276.85 38.8133C1307.35 40.3496 1337.88 41.7051 1368.42 42.0689C1414.09 42.6111 1458.5 29.1912 1503.99 27.0043" stroke="url(#paint36_linear_200_22)" stroke-miterlimit="10"/>
<path d="M-106.812 70.6799C-62.5202 67.2436 -21.0044 47.8616 22.33 39.2042C51.5012 33.3821 82.4573 34.9116 112.069 30.9218C169.388 23.1839 225.982 9.93576 283.717 5.34499C307.866 3.42463 331.534 3.31168 355.168 9.23314C375.404 14.2983 394.555 22.5965 413.826 30.4361C433.574 38.4722 453.691 45.9412 474.866 49.1629C497.346 52.5789 520.377 50.715 542.919 48.824C589.351 44.9404 635.39 37.1935 681.876 33.9424C704.62 32.3609 725.85 31.6832 747.902 38.183C758.319 41.2556 768.515 45.0533 779.061 47.6718C791.015 50.6472 802.747 50.7647 814.958 51.6684C865.667 55.4278 915.693 75.3384 966.779 73.3729C1017.15 71.4367 1062.59 44.9923 1111.29 34.9387C1138.58 29.3042 1166.48 31.098 1194.14 32.1169C1221.85 33.1404 1249.53 34.7783 1277.21 36.2762C1307.63 37.9367 1338.07 39.3781 1368.53 39.7441C1414.25 40.2999 1458.48 25.9312 1503.99 23.7171" stroke="url(#paint37_linear_200_22)" stroke-miterlimit="10"/>
<path d="M-108.41 70.3885C-63.3384 67.1465 -21.1833 46.5603 22.8515 37.6296C52.0115 31.7104 83.0715 33.38 112.699 29.302C170.199 21.3947 226.94 7.75569 284.88 3.09489C308.984 1.15872 332.724 0.953117 356.272 7.03498C376.366 12.2312 395.273 20.8163 414.301 28.9202C433.825 37.241 453.749 44.9608 474.832 48.1983C497.289 51.6594 520.408 49.7617 542.923 47.8029C589.43 43.7589 635.489 35.5714 682.065 32.2142C704.793 30.5762 726.075 29.8194 748.035 36.6378C758.414 39.8594 768.544 43.8673 779.072 46.6055C791.017 49.7188 802.706 49.7413 814.931 50.6473C865.945 54.4315 915.919 75.142 967.342 73.2781C1017.95 71.4436 1062.99 43.5849 1111.76 33.1744C1138.96 27.3681 1166.99 29.2975 1194.59 30.3571C1222.19 31.4167 1249.82 33.1427 1277.43 34.7174C1307.79 36.4503 1338.18 37.9639 1368.59 38.3186C1414.37 38.8563 1458.43 23.7466 1503.99 21.6703" stroke="url(#paint38_linear_200_22)" stroke-miterlimit="10"/>
<path d="M-108.998 70.3027C-63.5671 67.5916 -21.0911 45.9029 23.2193 36.9225C52.2754 31.0304 83.315 32.8965 112.855 28.7892C170.465 20.7802 227.278 6.85201 285.345 2.22961C309.399 0.313777 333.3 -0.0160706 356.805 6.11324C376.826 11.3343 395.573 20.1205 414.449 28.4164C433.84 36.9315 453.66 44.7869 474.719 47.9746C497.169 51.3748 520.407 49.5087 542.907 47.5228C589.461 43.4223 635.536 34.8711 682.155 31.5251C704.811 29.894 726.258 29.04 748.109 36.0436C758.465 39.3602 768.548 43.4991 779.061 46.3118C791.005 49.4951 802.649 49.3663 814.885 50.2316C866.152 53.8577 915.857 74.8889 967.553 73.2984C1018.39 71.735 1063.04 42.862 1111.92 32.3723C1139.04 26.5503 1167.27 28.6243 1194.8 29.6974C1222.38 30.7706 1249.94 32.5553 1277.49 34.182C1307.83 35.9713 1338.19 37.5234 1368.59 37.8374C1414.43 38.3096 1458.35 22.7006 1503.97 20.9248" stroke="url(#paint39_linear_200_22)" stroke-miterlimit="10"/>
<rect x="-18" y="8" width="1553" height="475" fill="url(#paint40_linear_200_22)"/>
</g>
<defs>
<linearGradient id="paint0_linear_200_22" x1="-109" y1="417.229" x2="1466.96" y2="417.229" gradientUnits="userSpaceOnUse">
<stop offset="0.03" stop-color="#FA3CFF"/>
<stop offset="1" stop-color="#6DFBFE"/>
</linearGradient>
<linearGradient id="paint1_linear_200_22" x1="-109.002" y1="402.672" x2="1466.96" y2="402.672" gradientUnits="userSpaceOnUse">
<stop offset="0.03" stop-color="#FA3CFF"/>
<stop offset="1" stop-color="#6DFBFE"/>
</linearGradient>
<linearGradient id="paint2_linear_200_22" x1="-109.005" y1="387.253" x2="1466.96" y2="387.253" gradientUnits="userSpaceOnUse">
<stop offset="0.03" stop-color="#FA3CFF"/>
<stop offset="1" stop-color="#6DFBFE"/>
</linearGradient>
<linearGradient id="paint3_linear_200_22" x1="-109.005" y1="371.841" x2="1466.96" y2="371.841" gradientUnits="userSpaceOnUse">
<stop offset="0.03" stop-color="#FA3CFF"/>
<stop offset="1" stop-color="#6DFBFE"/>
</linearGradient>
<linearGradient id="paint4_linear_200_22" x1="-109.002" y1="356.413" x2="1466.96" y2="356.413" gradientUnits="userSpaceOnUse">
<stop offset="0.03" stop-color="#FA3CFF"/>
<stop offset="1" stop-color="#6DFBFE"/>
</linearGradient>
<linearGradient id="paint5_linear_200_22" x1="-107.207" y1="340.731" x2="1466.96" y2="340.731" gradientUnits="userSpaceOnUse">
<stop offset="0.03" stop-color="#FA3CFF"/>
<stop offset="1" stop-color="#6DFBFE"/>
</linearGradient>
<linearGradient id="paint6_linear_200_22" x1="-95.0413" y1="323.593" x2="1466.97" y2="323.593" gradientUnits="userSpaceOnUse">
<stop offset="0.03" stop-color="#FA3CFF"/>
<stop offset="1" stop-color="#6DFBFE"/>
</linearGradient>
<linearGradient id="paint7_linear_200_22" x1="-80.9797" y1="305.941" x2="1466.97" y2="305.941" gradientUnits="userSpaceOnUse">
<stop offset="0.03" stop-color="#FA3CFF"/>
<stop offset="1" stop-color="#6DFBFE"/>
</linearGradient>
<linearGradient id="paint8_linear_200_22" x1="-76.1516" y1="290.406" x2="1466.97" y2="290.406" gradientUnits="userSpaceOnUse">
<stop offset="0.03" stop-color="#FA3CFF"/>
<stop offset="1" stop-color="#6DFBFE"/>
</linearGradient>
<linearGradient id="paint9_linear_200_22" x1="-77.8671" y1="276.673" x2="1466.97" y2="276.673" gradientUnits="userSpaceOnUse">
<stop offset="0.03" stop-color="#FA3CFF"/>
<stop offset="1" stop-color="#6DFBFE"/>
</linearGradient>
<linearGradient id="paint10_linear_200_22" x1="-81.3056" y1="263.924" x2="1466.97" y2="263.924" gradientUnits="userSpaceOnUse">
<stop offset="0.03" stop-color="#FA3CFF"/>
<stop offset="1" stop-color="#6DFBFE"/>
</linearGradient>
<linearGradient id="paint11_linear_200_22" x1="-85.608" y1="251.844" x2="1466.96" y2="251.844" gradientUnits="userSpaceOnUse">
<stop offset="0.03" stop-color="#FA3CFF"/>
<stop offset="1" stop-color="#6DFBFE"/>
</linearGradient>
<linearGradient id="paint12_linear_200_22" x1="-89.9102" y1="239.745" x2="1466.96" y2="239.745" gradientUnits="userSpaceOnUse">
<stop offset="0.03" stop-color="#FA3CFF"/>
<stop offset="1" stop-color="#6DFBFE"/>
</linearGradient>
<linearGradient id="paint13_linear_200_22" x1="-93.348" y1="223.42" x2="1466.96" y2="223.42" gradientUnits="userSpaceOnUse">
<stop offset="0.03" stop-color="#FA3CFF"/>
<stop offset="1" stop-color="#6DFBFE"/>
</linearGradient>
<linearGradient id="paint14_linear_200_22" x1="-95.0569" y1="208.882" x2="1466.96" y2="208.882" gradientUnits="userSpaceOnUse">
<stop offset="0.03" stop-color="#FA3CFF"/>
<stop offset="1" stop-color="#6DFBFE"/>
</linearGradient>
<linearGradient id="paint15_linear_200_22" x1="-98.8145" y1="198.044" x2="1466.96" y2="198.044" gradientUnits="userSpaceOnUse">
<stop offset="0.03" stop-color="#FA3CFF"/>
<stop offset="1" stop-color="#6DFBFE"/>
</linearGradient>
<linearGradient id="paint16_linear_200_22" x1="-107.073" y1="187.225" x2="1466.96" y2="187.225" gradientUnits="userSpaceOnUse">
<stop offset="0.03" stop-color="#FA3CFF"/>
<stop offset="1" stop-color="#6DFBFE"/>
</linearGradient>
<linearGradient id="paint17_linear_200_22" x1="-108.762" y1="171.81" x2="1467.33" y2="171.81" gradientUnits="userSpaceOnUse">
<stop offset="0.03" stop-color="#FA3CFF"/>
<stop offset="1" stop-color="#6DFBFE"/>
</linearGradient>
<linearGradient id="paint18_linear_200_22" x1="-106.721" y1="161.933" x2="1470.47" y2="161.933" gradientUnits="userSpaceOnUse">
<stop offset="0.03" stop-color="#FA3CFF"/>
<stop offset="1" stop-color="#6DFBFE"/>
</linearGradient>
<linearGradient id="paint19_linear_200_22" x1="-102.997" y1="153.479" x2="1475.99" y2="153.479" gradientUnits="userSpaceOnUse">
<stop offset="0.03" stop-color="#FA3CFF"/>
<stop offset="1" stop-color="#6DFBFE"/>
</linearGradient>
<linearGradient id="paint20_linear_200_22" x1="-98.0947" y1="145.888" x2="1482.87" y2="145.888" gradientUnits="userSpaceOnUse">
<stop offset="0.03" stop-color="#FA3CFF"/>
<stop offset="1" stop-color="#6DFBFE"/>
</linearGradient>
<linearGradient id="paint21_linear_200_22" x1="-92.5165" y1="138.107" x2="1490.11" y2="138.107" gradientUnits="userSpaceOnUse">
<stop offset="0.03" stop-color="#FA3CFF"/>
<stop offset="1" stop-color="#6DFBFE"/>
</linearGradient>
<linearGradient id="paint22_linear_200_22" x1="-86.7626" y1="129.992" x2="1496.7" y2="129.992" gradientUnits="userSpaceOnUse">
<stop offset="0.03" stop-color="#FA3CFF"/>
<stop offset="1" stop-color="#6DFBFE"/>
</linearGradient>
<linearGradient id="paint23_linear_200_22" x1="-81.3346" y1="121.086" x2="1501.64" y2="121.086" gradientUnits="userSpaceOnUse">
<stop offset="0.03" stop-color="#FA3CFF"/>
<stop offset="1" stop-color="#6DFBFE"/>
</linearGradient>
<linearGradient id="paint24_linear_200_22" x1="-76.7344" y1="110.865" x2="1503.94" y2="110.865" gradientUnits="userSpaceOnUse">
<stop offset="0.03" stop-color="#FA3CFF"/>
<stop offset="1" stop-color="#6DFBFE"/>
</linearGradient>
<linearGradient id="paint25_linear_200_22" x1="-74.7363" y1="102.242" x2="1503.99" y2="102.242" gradientUnits="userSpaceOnUse">
<stop offset="0.03" stop-color="#FA3CFF"/>
<stop offset="1" stop-color="#6DFBFE"/>
</linearGradient>
<linearGradient id="paint26_linear_200_22" x1="-74.3421" y1="94.088" x2="1503.99" y2="94.088" gradientUnits="userSpaceOnUse">
<stop offset="0.03" stop-color="#FA3CFF"/>
<stop offset="1" stop-color="#6DFBFE"/>
</linearGradient>
<linearGradient id="paint27_linear_200_22" x1="-75.1058" y1="86.4156" x2="1503.99" y2="86.4156" gradientUnits="userSpaceOnUse">
<stop offset="0.03" stop-color="#FA3CFF"/>
<stop offset="1" stop-color="#6DFBFE"/>
</linearGradient>
<linearGradient id="paint28_linear_200_22" x1="-76.8496" y1="79.1363" x2="1503.99" y2="79.1363" gradientUnits="userSpaceOnUse">
<stop offset="0.03" stop-color="#FA3CFF"/>
<stop offset="1" stop-color="#6DFBFE"/>
</linearGradient>
<linearGradient id="paint29_linear_200_22" x1="-79.3945" y1="72.3858" x2="1503.99" y2="72.3858" gradientUnits="userSpaceOnUse">
<stop offset="0.03" stop-color="#FA3CFF"/>
<stop offset="1" stop-color="#6DFBFE"/>
</linearGradient>
<linearGradient id="paint30_linear_200_22" x1="-82.555" y1="66.1773" x2="1503.99" y2="66.1773" gradientUnits="userSpaceOnUse">
<stop offset="0.03" stop-color="#FA3CFF"/>
<stop offset="1" stop-color="#6DFBFE"/>
</linearGradient>
<linearGradient id="paint31_linear_200_22" x1="-86.1566" y1="60.4615" x2="1503.99" y2="60.4615" gradientUnits="userSpaceOnUse">
<stop offset="0.03" stop-color="#FA3CFF"/>
<stop offset="1" stop-color="#6DFBFE"/>
</linearGradient>
<linearGradient id="paint32_linear_200_22" x1="-90.0162" y1="55.3329" x2="1503.99" y2="55.3329" gradientUnits="userSpaceOnUse">
<stop offset="0.03" stop-color="#FA3CFF"/>
<stop offset="1" stop-color="#6DFBFE"/>
</linearGradient>
<linearGradient id="paint33_linear_200_22" x1="-93.9479" y1="50.6315" x2="1503.99" y2="50.6315" gradientUnits="userSpaceOnUse">
<stop offset="0.03" stop-color="#FA3CFF"/>
<stop offset="1" stop-color="#6DFBFE"/>
</linearGradient>
<linearGradient id="paint34_linear_200_22" x1="-97.7802" y1="46.7117" x2="1503.99" y2="46.7117" gradientUnits="userSpaceOnUse">
<stop offset="0.03" stop-color="#FA3CFF"/>
<stop offset="1" stop-color="#6DFBFE"/>
</linearGradient>
<linearGradient id="paint35_linear_200_22" x1="-101.32" y1="43.4199" x2="1503.99" y2="43.4199" gradientUnits="userSpaceOnUse">
<stop offset="0.03" stop-color="#FA3CFF"/>
<stop offset="1" stop-color="#6DFBFE"/>
</linearGradient>
<linearGradient id="paint36_linear_200_22" x1="-104.396" y1="40.7743" x2="1503.99" y2="40.7743" gradientUnits="userSpaceOnUse">
<stop offset="0.03" stop-color="#FA3CFF"/>
<stop offset="1" stop-color="#6DFBFE"/>
</linearGradient>
<linearGradient id="paint37_linear_200_22" x1="-106.822" y1="38.8449" x2="1503.99" y2="38.8449" gradientUnits="userSpaceOnUse">
<stop offset="0.03" stop-color="#FA3CFF"/>
<stop offset="1" stop-color="#6DFBFE"/>
</linearGradient>
<linearGradient id="paint38_linear_200_22" x1="-108.419" y1="37.6409" x2="1503.99" y2="37.6409" gradientUnits="userSpaceOnUse">
<stop offset="0.03" stop-color="#FA3CFF"/>
<stop offset="1" stop-color="#6DFBFE"/>
</linearGradient>
<linearGradient id="paint39_linear_200_22" x1="-109.005" y1="37.1913" x2="1503.99" y2="37.1913" gradientUnits="userSpaceOnUse">
<stop offset="0.03" stop-color="#FA3CFF"/>
<stop offset="1" stop-color="#6DFBFE"/>
</linearGradient>
<linearGradient id="paint40_linear_200_22" x1="758.5" y1="8" x2="759" y2="391" gradientUnits="userSpaceOnUse">
<stop stop-color="#040201" stop-opacity="0"/>
<stop offset="1" stop-color="#040201"/>
</linearGradient>
</defs>
</svg>
