<svg width="284" height="290" viewBox="0 0 284 290" fill="none" xmlns="http://www.w3.org/2000/svg">
<circle cx="75.4512" cy="273.451" r="15.5937" transform="rotate(-45 75.4512 273.451)" fill="url(#paint0_linear_248_73)"/>
<circle cx="246.6" cy="211.6" r="21.6" fill="url(#paint1_linear_248_73)"/>
<rect x="33" y="116" width="111.125" height="15.875" rx="5.29167" fill="url(#paint2_linear_248_73)"/>
<g filter="url(#filter0_b_248_73)">
<path d="M71 44.375C71 39.4735 74.9735 35.5 79.875 35.5L177.5 35.5C182.402 35.5 186.375 39.4735 186.375 44.375L186.375 239.625C186.375 244.527 182.402 248.5 177.5 248.5H79.875C74.9735 248.5 71 244.527 71 239.625L71 44.375Z" fill="#F1F1F1" fill-opacity="0.1"/>
<path d="M71 44.375C71 39.4735 74.9735 35.5 79.875 35.5L177.5 35.5C182.402 35.5 186.375 39.4735 186.375 44.375L186.375 239.625C186.375 244.527 182.402 248.5 177.5 248.5H79.875C74.9735 248.5 71 244.527 71 239.625L71 44.375Z" fill="url(#paint3_linear_248_73)" fill-opacity="0.2"/>
<path d="M71.5292 44.375C71.5292 39.7657 75.2657 36.0292 79.875 36.0292L177.5 36.0292C182.109 36.0292 185.846 39.7657 185.846 44.375L185.846 239.625C185.846 244.234 182.109 247.971 177.5 247.971H79.875C75.2657 247.971 71.5292 244.234 71.5292 239.625L71.5292 44.375Z" stroke="url(#paint4_linear_248_73)" stroke-opacity="0.1" stroke-width="1.05833"/>
</g>
<g filter="url(#filter1_bi_248_73)">
<path d="M248.5 247.482V159.907C248.5 153.672 245.229 147.894 239.882 144.686L166.471 100.639C163.513 98.8646 159.75 100.995 159.75 104.444V247.482C159.75 257.285 167.697 265.232 177.5 265.232H230.75C240.553 265.232 248.5 257.285 248.5 247.482Z" fill="#F1F1F1" fill-opacity="0.1"/>
<path d="M248.5 247.482V159.907C248.5 153.672 245.229 147.894 239.882 144.686L166.471 100.639C163.513 98.8646 159.75 100.995 159.75 104.444V247.482C159.75 257.285 167.697 265.232 177.5 265.232H230.75C240.553 265.232 248.5 257.285 248.5 247.482Z" fill="url(#paint5_linear_248_73)" fill-opacity="0.2"/>
<path d="M248.049 159.907V247.482C248.049 257.036 240.304 264.781 230.75 264.781H177.5C167.946 264.781 160.201 257.036 160.201 247.482V104.444C160.201 101.346 163.581 99.4314 166.239 101.026L239.65 145.073C244.861 148.199 248.049 153.83 248.049 159.907Z" stroke="url(#paint6_linear_248_73)" stroke-opacity="0.1" stroke-width="0.901565"/>
</g>
<g filter="url(#filter2_i_248_73)">
<path d="M88.75 57.6875C88.75 55.2367 90.7367 53.25 93.1875 53.25L102.062 53.25C104.513 53.25 106.5 55.2367 106.5 57.6875L106.5 190.812C106.5 193.263 104.513 195.25 102.063 195.25H93.1875C90.7367 195.25 88.75 193.263 88.75 190.812L88.75 57.6875Z" fill="white" fill-opacity="0.1"/>
</g>
<g filter="url(#filter3_i_248_73)">
<path d="M119.812 57.6875C119.812 55.2367 121.799 53.25 124.25 53.25L133.125 53.25C135.576 53.25 137.562 55.2367 137.562 57.6875L137.563 190.812C137.563 193.263 135.576 195.25 133.125 195.25H124.25C121.799 195.25 119.813 193.263 119.813 190.812L119.812 57.6875Z" fill="white" fill-opacity="0.1"/>
</g>
<g filter="url(#filter4_i_248_73)">
<path d="M150.875 57.6875C150.875 55.2367 152.862 53.25 155.312 53.25L164.188 53.25C166.638 53.25 168.625 55.2367 168.625 57.6875L168.625 190.812C168.625 193.263 166.638 195.25 164.188 195.25H155.313C152.862 195.25 150.875 193.263 150.875 190.812L150.875 57.6875Z" fill="white" fill-opacity="0.1"/>
</g>
<g filter="url(#filter5_bi_248_73)">
<path d="M35.5 202.896C35.5 198.516 38.696 194.79 43.0255 194.124L140.651 179.105C146.027 178.278 150.875 182.438 150.875 187.877V275.157C150.875 280.059 146.902 284.032 142 284.032H44.375C39.4735 284.032 35.5 280.059 35.5 275.157L35.5 202.896Z" fill="#F1F1F1" fill-opacity="0.1"/>
<path d="M35.5 202.896C35.5 198.516 38.696 194.79 43.0255 194.124L140.651 179.105C146.027 178.278 150.875 182.438 150.875 187.877V275.157C150.875 280.059 146.902 284.032 142 284.032H44.375C39.4735 284.032 35.5 280.059 35.5 275.157L35.5 202.896Z" fill="url(#paint7_linear_248_73)" fill-opacity="0.2"/>
<path d="M36.0344 202.896C36.0344 198.779 39.0379 195.278 43.1068 194.653L140.732 179.633C145.784 178.856 150.341 182.765 150.341 187.877V275.157C150.341 279.763 146.606 283.498 142 283.498H44.375C39.7686 283.498 36.0344 279.763 36.0344 275.157L36.0344 202.896Z" stroke="url(#paint8_linear_248_73)" stroke-opacity="0.1" stroke-width="1.06879"/>
</g>
<defs>
<filter id="filter0_b_248_73" x="55.125" y="19.625" width="147.125" height="244.75" filterUnits="userSpaceOnUse" color-interpolation-filters="sRGB">
<feFlood flood-opacity="0" result="BackgroundImageFix"/>
<feGaussianBlur in="BackgroundImage" stdDeviation="7.9375"/>
<feComposite in2="SourceAlpha" operator="in" result="effect1_backgroundBlur_248_73"/>
<feBlend mode="normal" in="SourceGraphic" in2="effect1_backgroundBlur_248_73" result="shape"/>
</filter>
<filter id="filter1_bi_248_73" x="146.227" y="86.4765" width="115.797" height="192.279" filterUnits="userSpaceOnUse" color-interpolation-filters="sRGB">
<feFlood flood-opacity="0" result="BackgroundImageFix"/>
<feGaussianBlur in="BackgroundImage" stdDeviation="6.76174"/>
<feComposite in2="SourceAlpha" operator="in" result="effect1_backgroundBlur_248_73"/>
<feBlend mode="normal" in="SourceGraphic" in2="effect1_backgroundBlur_248_73" result="shape"/>
<feColorMatrix in="SourceAlpha" type="matrix" values="0 0 0 0 0 0 0 0 0 0 0 0 0 0 0 0 0 0 127 0" result="hardAlpha"/>
<feOffset dy="2.25391"/>
<feGaussianBlur stdDeviation="4.50783"/>
<feComposite in2="hardAlpha" operator="arithmetic" k2="-1" k3="1"/>
<feColorMatrix type="matrix" values="0 0 0 0 1 0 0 0 0 1 0 0 0 0 1 0 0 0 0.15 0"/>
<feBlend mode="normal" in2="shape" result="effect2_innerShadow_248_73"/>
</filter>
<filter id="filter2_i_248_73" x="88.75" y="53.25" width="17.75" height="146.271" filterUnits="userSpaceOnUse" color-interpolation-filters="sRGB">
<feFlood flood-opacity="0" result="BackgroundImageFix"/>
<feBlend mode="normal" in="SourceGraphic" in2="BackgroundImageFix" result="shape"/>
<feColorMatrix in="SourceAlpha" type="matrix" values="0 0 0 0 0 0 0 0 0 0 0 0 0 0 0 0 0 0 127 0" result="hardAlpha"/>
<feOffset dy="4.27083"/>
<feGaussianBlur stdDeviation="2.13542"/>
<feComposite in2="hardAlpha" operator="arithmetic" k2="-1" k3="1"/>
<feColorMatrix type="matrix" values="0 0 0 0 1 0 0 0 0 1 0 0 0 0 1 0 0 0 0.1 0"/>
<feBlend mode="normal" in2="shape" result="effect1_innerShadow_248_73"/>
</filter>
<filter id="filter3_i_248_73" x="119.812" y="53.25" width="17.75" height="146.271" filterUnits="userSpaceOnUse" color-interpolation-filters="sRGB">
<feFlood flood-opacity="0" result="BackgroundImageFix"/>
<feBlend mode="normal" in="SourceGraphic" in2="BackgroundImageFix" result="shape"/>
<feColorMatrix in="SourceAlpha" type="matrix" values="0 0 0 0 0 0 0 0 0 0 0 0 0 0 0 0 0 0 127 0" result="hardAlpha"/>
<feOffset dy="4.27083"/>
<feGaussianBlur stdDeviation="2.13542"/>
<feComposite in2="hardAlpha" operator="arithmetic" k2="-1" k3="1"/>
<feColorMatrix type="matrix" values="0 0 0 0 1 0 0 0 0 1 0 0 0 0 1 0 0 0 0.1 0"/>
<feBlend mode="normal" in2="shape" result="effect1_innerShadow_248_73"/>
</filter>
<filter id="filter4_i_248_73" x="150.875" y="53.25" width="17.75" height="146.271" filterUnits="userSpaceOnUse" color-interpolation-filters="sRGB">
<feFlood flood-opacity="0" result="BackgroundImageFix"/>
<feBlend mode="normal" in="SourceGraphic" in2="BackgroundImageFix" result="shape"/>
<feColorMatrix in="SourceAlpha" type="matrix" values="0 0 0 0 0 0 0 0 0 0 0 0 0 0 0 0 0 0 127 0" result="hardAlpha"/>
<feOffset dy="4.27083"/>
<feGaussianBlur stdDeviation="2.13542"/>
<feComposite in2="hardAlpha" operator="arithmetic" k2="-1" k3="1"/>
<feColorMatrix type="matrix" values="0 0 0 0 1 0 0 0 0 1 0 0 0 0 1 0 0 0 0.1 0"/>
<feBlend mode="normal" in2="shape" result="effect1_innerShadow_248_73"/>
</filter>
<filter id="filter5_bi_248_73" x="19.4681" y="162.968" width="147.439" height="137.096" filterUnits="userSpaceOnUse" color-interpolation-filters="sRGB">
<feFlood flood-opacity="0" result="BackgroundImageFix"/>
<feGaussianBlur in="BackgroundImage" stdDeviation="8.01596"/>
<feComposite in2="SourceAlpha" operator="in" result="effect1_backgroundBlur_248_73"/>
<feBlend mode="normal" in="SourceGraphic" in2="effect1_backgroundBlur_248_73" result="shape"/>
<feColorMatrix in="SourceAlpha" type="matrix" values="0 0 0 0 0 0 0 0 0 0 0 0 0 0 0 0 0 0 127 0" result="hardAlpha"/>
<feOffset dy="2.67199"/>
<feGaussianBlur stdDeviation="5.34397"/>
<feComposite in2="hardAlpha" operator="arithmetic" k2="-1" k3="1"/>
<feColorMatrix type="matrix" values="0 0 0 0 1 0 0 0 0 1 0 0 0 0 1 0 0 0 0.15 0"/>
<feBlend mode="normal" in2="shape" result="effect2_innerShadow_248_73"/>
</filter>
<linearGradient id="paint0_linear_248_73" x1="59.8575" y1="257.858" x2="96.5952" y2="267.186" gradientUnits="userSpaceOnUse">
<stop stop-color="#36FF4A"/>
<stop offset="1" stop-color="#36FF4A"/>
</linearGradient>
<linearGradient id="paint1_linear_248_73" x1="225" y1="190" x2="275.888" y2="202.921" gradientUnits="userSpaceOnUse">
<stop stop-color="#ED6565"/>
<stop offset="1" stop-color="#ED6565"/>
</linearGradient>
<linearGradient id="paint2_linear_248_73" x1="33" y1="116" x2="66.5016" y2="175.547" gradientUnits="userSpaceOnUse">
<stop stop-color="#1C2EFF"/>
<stop offset="1" stop-color="#1C2EFF"/>
</linearGradient>
<linearGradient id="paint3_linear_248_73" x1="75.8073" y1="78.1" x2="203.28" y2="87.69" gradientUnits="userSpaceOnUse">
<stop stop-color="#FE82DB"/>
<stop offset="1" stop-color="#68E4FF"/>
</linearGradient>
<linearGradient id="paint4_linear_248_73" x1="74.6055" y1="45.1818" x2="186.375" y2="45.1818" gradientUnits="userSpaceOnUse">
<stop stop-color="#FD84DC"/>
<stop offset="1" stop-color="#7FD6FA"/>
</linearGradient>
<linearGradient id="paint5_linear_248_73" x1="159.75" y1="100" x2="269.003" y2="114.901" gradientUnits="userSpaceOnUse">
<stop stop-color="#ED6565"/>
<stop offset="1" stop-color="#ED6565"/>
</linearGradient>
<linearGradient id="paint6_linear_248_73" x1="162.523" y1="107.511" x2="248.5" y2="107.511" gradientUnits="userSpaceOnUse">
<stop stop-color="#ED6565"/>
<stop offset="1" stop-color="#ED6565"/>
</linearGradient>
<linearGradient id="paint7_linear_248_73" x1="35.5" y1="179" x2="169.728" y2="216.439" gradientUnits="userSpaceOnUse">
<stop stop-color="#3B29FF"/>
<stop offset="1" stop-color="#3B29FF"/>
</linearGradient>
<linearGradient id="paint8_linear_248_73" x1="39.1055" y1="183.774" x2="150.875" y2="183.774" gradientUnits="userSpaceOnUse">
<stop stop-color="#1C2EFF"/>
<stop offset="1" stop-color="#1C2EFF"/>
</linearGradient>
</defs>
</svg>
