<svg width="129" height="129" viewBox="0 0 129 129" fill="none" xmlns="http://www.w3.org/2000/svg">
<circle cx="40.4513" cy="34.7359" r="18.7039" transform="rotate(-45 40.4513 34.7359)" fill="url(#paint0_linear_172_21)"/>
<g filter="url(#filter0_bi_172_21)">
<path d="M94.4261 33.0098C94.4261 33.7091 94.7031 34.3778 95.1796 34.8896C98.8275 38.8078 101.742 43.4177 103.706 48.5009C104.419 50.3478 106.141 51.6584 108.121 51.6584C110.592 51.6584 112.596 53.6619 112.596 56.1334V70.5404C112.596 73.4918 110.203 75.8844 107.252 75.8844H106.776C105.594 75.8844 104.56 76.6643 104.17 77.7801C103.743 79.0012 103.261 80.1969 102.728 81.3642C102.164 82.5979 102.007 83.9882 102.375 85.2939L104.846 94.0859C105.892 97.8068 104.847 101.802 102.114 104.535L101.984 104.666C97.8097 108.84 91.0425 108.84 86.8686 104.666L86.4 104.197C84.7529 102.55 82.2408 102.192 80.0827 103.069C75.162 105.066 69.7813 106.167 64.1436 106.167C58.5058 106.167 53.1251 105.066 48.2045 103.069C46.0463 102.192 43.5342 102.55 41.8871 104.197L41.4186 104.666C37.2447 108.84 30.4774 108.84 26.3035 104.666L26.1731 104.535C23.4401 101.802 22.3955 97.8068 23.4414 94.0859L25.9126 85.2939C26.2796 83.9882 26.1227 82.598 25.5593 81.3642C23.1118 76.0053 21.748 70.0476 21.748 63.7714C21.748 40.357 40.7292 21.3759 64.1436 21.3759C67.408 21.3759 70.5863 21.7449 73.6389 22.4433C74.1292 22.5555 74.6411 22.5385 75.1188 22.3814L87.4125 18.3382C90.869 17.2015 94.4261 19.7762 94.4261 23.4147V33.0098Z" fill="#F1F1F1" fill-opacity="0.1"/>
<path d="M94.4261 33.0098C94.4261 33.7091 94.7031 34.3778 95.1796 34.8896C98.8275 38.8078 101.742 43.4177 103.706 48.5009C104.419 50.3478 106.141 51.6584 108.121 51.6584C110.592 51.6584 112.596 53.6619 112.596 56.1334V70.5404C112.596 73.4918 110.203 75.8844 107.252 75.8844H106.776C105.594 75.8844 104.56 76.6643 104.17 77.7801C103.743 79.0012 103.261 80.1969 102.728 81.3642C102.164 82.5979 102.007 83.9882 102.375 85.2939L104.846 94.0859C105.892 97.8068 104.847 101.802 102.114 104.535L101.984 104.666C97.8097 108.84 91.0425 108.84 86.8686 104.666L86.4 104.197C84.7529 102.55 82.2408 102.192 80.0827 103.069C75.162 105.066 69.7813 106.167 64.1436 106.167C58.5058 106.167 53.1251 105.066 48.2045 103.069C46.0463 102.192 43.5342 102.55 41.8871 104.197L41.4186 104.666C37.2447 108.84 30.4774 108.84 26.3035 104.666L26.1731 104.535C23.4401 101.802 22.3955 97.8068 23.4414 94.0859L25.9126 85.2939C26.2796 83.9882 26.1227 82.598 25.5593 81.3642C23.1118 76.0053 21.748 70.0476 21.748 63.7714C21.748 40.357 40.7292 21.3759 64.1436 21.3759C67.408 21.3759 70.5863 21.7449 73.6389 22.4433C74.1292 22.5555 74.6411 22.5385 75.1188 22.3814L87.4125 18.3382C90.869 17.2015 94.4261 19.7762 94.4261 23.4147V33.0098Z" fill="url(#paint1_linear_172_21)" fill-opacity="0.2"/>
<path d="M93.8917 33.0098C93.8917 33.8513 94.2248 34.6484 94.7884 35.2537C98.3907 39.123 101.269 43.6748 103.207 48.6935C103.991 50.7231 105.896 52.1928 108.121 52.1928C110.297 52.1928 112.061 53.9571 112.061 56.1334V70.5404C112.061 73.1967 109.908 75.35 107.252 75.35H106.776C105.352 75.35 104.126 76.2875 103.666 77.6035C103.244 78.8092 102.768 79.9897 102.242 81.1422C101.632 82.4779 101.455 83.9979 101.86 85.4385L104.331 94.2305C105.325 97.7654 104.333 101.561 101.736 104.158L101.606 104.288C97.6405 108.253 91.2116 108.253 87.2464 104.288L86.7778 103.819C84.9594 102.001 82.212 101.627 79.8816 102.574C75.0238 104.546 69.7112 105.633 64.1436 105.633C58.5759 105.633 53.2633 104.546 48.4055 102.574C46.0752 101.627 43.3277 102.001 41.5093 103.819L41.0407 104.288C37.0755 108.253 30.6466 108.253 26.6814 104.288L26.3035 104.666L26.6814 104.288L26.551 104.158C23.9546 101.561 22.9623 97.7654 23.9558 94.2305L26.4271 85.4385C26.832 83.9979 26.6554 82.4779 26.0454 81.1422C23.6291 75.8516 22.2824 69.9695 22.2824 63.7714C22.2824 40.6522 41.0243 21.9103 64.1436 21.9103C67.3676 21.9103 70.5059 22.2747 73.5197 22.9643C74.0999 23.097 74.7109 23.0781 75.2858 22.889L87.5795 18.8459C90.6903 17.8228 93.8917 20.14 93.8917 23.4147V33.0098Z" stroke="url(#paint2_linear_172_21)" stroke-opacity="0.1" stroke-width="1.06879"/>
</g>
<g filter="url(#filter1_i_172_21)">
<circle cx="83.2054" cy="56.1118" r="8.01596" fill="white" fill-opacity="0.1"/>
</g>
<defs>
<filter id="filter0_bi_172_21" x="5.71613" y="2.0348" width="122.911" height="121.793" filterUnits="userSpaceOnUse" color-interpolation-filters="sRGB">
<feFlood flood-opacity="0" result="BackgroundImageFix"/>
<feGaussianBlur in="BackgroundImage" stdDeviation="8.01596"/>
<feComposite in2="SourceAlpha" operator="in" result="effect1_backgroundBlur_172_21"/>
<feBlend mode="normal" in="SourceGraphic" in2="effect1_backgroundBlur_172_21" result="shape"/>
<feColorMatrix in="SourceAlpha" type="matrix" values="0 0 0 0 0 0 0 0 0 0 0 0 0 0 0 0 0 0 127 0" result="hardAlpha"/>
<feOffset dy="2.67199"/>
<feGaussianBlur stdDeviation="5.34397"/>
<feComposite in2="hardAlpha" operator="arithmetic" k2="-1" k3="1"/>
<feColorMatrix type="matrix" values="0 0 0 0 1 0 0 0 0 1 0 0 0 0 1 0 0 0 0.15 0"/>
<feBlend mode="normal" in2="shape" result="effect2_innerShadow_172_21"/>
</filter>
<filter id="filter1_i_172_21" x="75.1895" y="48.0958" width="16.0312" height="18.7039" filterUnits="userSpaceOnUse" color-interpolation-filters="sRGB">
<feFlood flood-opacity="0" result="BackgroundImageFix"/>
<feBlend mode="normal" in="SourceGraphic" in2="BackgroundImageFix" result="shape"/>
<feColorMatrix in="SourceAlpha" type="matrix" values="0 0 0 0 0 0 0 0 0 0 0 0 0 0 0 0 0 0 127 0" result="hardAlpha"/>
<feOffset dy="2.67199"/>
<feGaussianBlur stdDeviation="1.33599"/>
<feComposite in2="hardAlpha" operator="arithmetic" k2="-1" k3="1"/>
<feColorMatrix type="matrix" values="0 0 0 0 1 0 0 0 0 1 0 0 0 0 1 0 0 0 0.1 0"/>
<feBlend mode="normal" in2="shape" result="effect1_innerShadow_172_21"/>
</filter>
<linearGradient id="paint0_linear_172_21" x1="21.7474" y1="16.032" x2="65.8126" y2="27.221" gradientUnits="userSpaceOnUse">
<stop stop-color="#36FF4A"/>
<stop offset="1" stop-color="#36FF4A"/>
</linearGradient>
<linearGradient id="paint1_linear_172_21" x1="21.748" y1="16.0316" x2="129.468" y2="41.8642" gradientUnits="userSpaceOnUse">
<stop stop-color="#3B29FF"/>
<stop offset="1" stop-color="#3B29FF"/>
</linearGradient>
<linearGradient id="paint2_linear_172_21" x1="24.587" y1="20.404" x2="112.596" y2="20.404" gradientUnits="userSpaceOnUse">
<stop stop-color="#1C2EFF"/>
<stop offset="1" stop-color="#1C2EFF"/>
</linearGradient>
</defs>
</svg>
