<svg width="1116" height="964" viewBox="0 0 1116 964" fill="none" xmlns="http://www.w3.org/2000/svg">
<mask id="mask0_101_3384" style="mask-type:alpha" maskUnits="userSpaceOnUse" x="613" y="120" width="422" height="397">
<rect x="746.127" y="516.455" width="264.711" height="332.836" transform="rotate(-120 746.127 516.455)" fill="url(#paint0_linear_101_3384)"/>
</mask>
<g mask="url(#mask0_101_3384)">
<path d="M821.731 284.282C836.664 275.661 855.759 280.777 864.38 295.71C873.001 310.643 867.885 329.737 852.952 338.358C838.02 346.98 839.046 330.246 830.425 315.314C821.804 300.381 806.798 292.904 821.731 284.282Z" fill="#00FF66"/>
<g filter="url(#filter0_f_101_3384)">
<path d="M822.271 283.971C833.831 277.297 850.19 283.992 858.812 298.925C867.433 313.858 865.052 331.373 853.492 338.047C841.933 344.721 825.573 338.026 816.952 323.093C808.331 308.16 810.712 290.645 822.271 283.971Z" fill="#00FF66"/>
</g>
<g filter="url(#filter1_f_101_3384)">
<ellipse cx="836.804" cy="311.631" rx="31.221" ry="24.1678" transform="rotate(-120 836.804 311.631)" fill="#00FF66"/>
</g>
<g filter="url(#filter2_f_101_3384)">
<ellipse cx="833.839" cy="313.343" rx="31.221" ry="24.2715" transform="rotate(-120 833.839 313.343)" fill="#00FF66"/>
</g>
<g filter="url(#filter3_f_101_3384)">
<ellipse cx="824.946" cy="318.477" rx="31.221" ry="24.1678" transform="rotate(-120 824.946 318.477)" fill="#00FF66"/>
</g>
<g filter="url(#filter4_f_101_3384)">
<ellipse cx="812.908" cy="325.427" rx="26.2422" ry="24.1678" transform="rotate(-120 812.908 325.427)" fill="#00FF66"/>
</g>
</g>
<mask id="mask1_101_3384" style="mask-type:alpha" maskUnits="userSpaceOnUse" x="374" y="134" width="594" height="555">
<rect x="792.027" y="688.66" width="471.576" height="378.148" transform="rotate(-152.383 792.027 688.66)" fill="url(#paint1_linear_101_3384)"/>
</mask>
<g mask="url(#mask1_101_3384)">
<path d="M631.617 341.94C663.895 280.24 740.08 256.39 801.779 288.668C863.479 320.947 887.33 397.131 855.051 458.831C822.773 520.53 790.082 461.243 728.383 428.964C666.683 396.686 599.338 403.64 631.617 341.94Z" fill="#36FF4A"/>
<g filter="url(#filter5_f_101_3384)">
<path d="M632.782 339.713C657.768 291.952 728.041 279.401 789.741 311.68C851.441 343.958 881.203 408.843 856.216 456.604C831.23 504.365 760.957 516.916 699.257 484.637C637.558 452.359 607.796 387.474 632.782 339.713Z" fill="#36FF4A"/>
</g>
<g filter="url(#filter6_f_101_3384)">
<ellipse cx="742.169" cy="402.61" rx="126.082" ry="97.5981" transform="rotate(-152.383 742.169 402.61)" fill="#36FF4A"/>
</g>
<g filter="url(#filter7_f_101_3384)">
<ellipse cx="735.762" cy="414.861" rx="126.082" ry="98.017" transform="rotate(-152.383 735.762 414.861)" fill="#36FF4A"/>
</g>
<g filter="url(#filter8_f_101_3384)">
<ellipse cx="716.538" cy="451.604" rx="126.082" ry="97.5981" transform="rotate(-152.383 716.538 451.604)" fill="#36FF4A"/>
</g>
<g filter="url(#filter9_f_101_3384)">
<ellipse cx="690.52" cy="501.337" rx="105.976" ry="97.5981" transform="rotate(-152.383 690.52 501.337)" fill="#36FF4A"/>
</g>
</g>
<mask id="mask2_101_3384" style="mask-type:alpha" maskUnits="userSpaceOnUse" x="319" y="6" width="624" height="652">
<rect x="690.279" y="657.586" width="427.61" height="505.272" transform="rotate(-150 690.279 657.586)" fill="url(#paint2_linear_101_3384)"/>
</mask>
<g mask="url(#mask2_101_3384)">
<path d="M723.163 237.67C792.668 233.453 852.432 286.379 856.649 355.884C860.866 425.39 807.939 485.153 738.434 489.37C668.929 493.587 702.821 434.979 698.604 365.473C694.387 295.968 653.658 241.887 723.163 237.67Z" fill="#0075FF"/>
<g filter="url(#filter10_f_101_3384)">
<path d="M725.669 237.515C779.472 234.251 826.507 287.95 830.724 357.455C834.941 426.96 794.743 485.952 740.94 489.216C687.137 492.48 640.103 438.781 635.886 369.276C631.669 299.771 671.866 240.78 725.669 237.515Z" fill="#0075FF"/>
</g>
<g filter="url(#filter11_f_101_3384)">
<ellipse cx="728.289" cy="363.67" rx="126.082" ry="97.5981" transform="rotate(-93.472 728.289 363.67)" fill="#0075FF"/>
</g>
<g filter="url(#filter12_f_101_3384)">
<ellipse cx="714.494" cy="364.507" rx="126.082" ry="98.017" transform="rotate(-93.472 714.494 364.507)" fill="#0075FF"/>
</g>
<g filter="url(#filter13_f_101_3384)">
<ellipse cx="673.1" cy="367.018" rx="126.082" ry="97.5981" transform="rotate(-93.472 673.1 367.018)" fill="#0075FF"/>
</g>
<g filter="url(#filter14_f_101_3384)">
<ellipse cx="617.075" cy="370.418" rx="105.976" ry="97.5981" transform="rotate(-93.472 617.075 370.418)" fill="#0075FF"/>
</g>
</g>
<mask id="mask3_101_3384" style="mask-type:alpha" maskUnits="userSpaceOnUse" x="575" y="187" width="412" height="413">
<path d="M664.601 599.823C642.801 518.012 551.333 306.668 580.914 305.399L889.735 187.599L986.013 468.822L664.601 599.823Z" fill="url(#paint3_linear_101_3384)"/>
</mask>
<g mask="url(#mask3_101_3384)">
<path d="M722.916 305.606C752.115 297.782 784.512 320.493 791.548 346.752C798.584 373.01 795.997 410.637 764.67 419.031C749.146 423.19 735 445.794 713.052 437.66C690.71 429.38 685.383 392.423 681.834 379.177C674.798 352.918 693.718 313.429 722.916 305.606Z" fill="#0075FF"/>
<g filter="url(#filter15_f_101_3384)">
<path d="M723.171 307.95C754.485 299.559 783.642 318.73 789.69 341.301C795.738 363.872 791.86 396.657 760.545 405.048C745.027 409.206 730.386 429.93 708.937 423.63C687.104 417.217 683.123 385.29 680.072 373.904C674.024 351.333 691.856 316.34 723.171 307.95Z" fill="#0075FF"/>
</g>
<g filter="url(#filter16_f_101_3384)">
<path d="M724.118 307.695C759.216 298.291 792.651 322.599 800.107 350.426C807.564 378.253 804.107 418.32 769.009 427.724C751.616 432.384 736.371 459.96 711.995 451.64C687.18 443.17 681.163 401.582 677.401 387.545C669.945 359.718 689.021 317.099 724.118 307.695Z" fill="#0075FF"/>
</g>
<g filter="url(#filter17_f_101_3384)">
<path d="M729.053 309.905C774.214 305.12 819.779 331.594 828.506 364.162C837.232 396.73 824.672 437.831 782.58 449.11C761.721 454.699 744.417 497.379 715.29 487.802C685.638 478.052 679.473 432.096 675.071 415.667C666.344 383.099 676.735 315.449 729.053 309.905Z" fill="#0075FF"/>
</g>
<g filter="url(#filter18_f_101_3384)">
<path d="M747.184 319.174C792.507 307.03 842.768 338.536 851.3 370.378C859.832 402.22 845.374 442.988 800.052 455.132C777.592 461.15 753.578 480.609 722.645 471.903C691.157 463.04 685.697 417.956 681.393 401.893C672.861 370.052 701.862 331.318 747.184 319.174Z" fill="#0075FF"/>
</g>
<g filter="url(#filter19_f_101_3384)">
<path d="M768.229 327.157C815.066 314.608 866.887 346.721 875.614 379.289C884.34 411.857 869.301 453.622 822.465 466.172C799.255 472.391 774.404 492.371 742.483 483.542C709.988 474.554 704.469 428.425 700.067 411.996C691.341 379.428 721.392 339.707 768.229 327.157Z" fill="#0075FF"/>
</g>
<g filter="url(#filter20_f_101_3384)">
<path d="M731.614 331.419C772.596 320.437 819.377 353.901 828.103 386.469C836.83 419.037 824.85 459.983 783.868 470.964C763.559 476.406 741.222 491.676 712.748 481.923C683.763 471.995 677.446 426.08 673.043 409.651C664.317 377.083 690.632 342.4 731.614 331.419Z" fill="#0075FF"/>
</g>
</g>
<g filter="url(#filter21_bi_101_3384)">
<g filter="url(#filter22_b_101_3384)">
<path d="M633.733 468.898C638.365 467.354 640.233 462.898 641.733 462.398L651.732 476.898L650.732 480.398C650.732 481.898 648.607 482.898 649.732 484.898C653.332 491.298 662.232 491.231 666.232 490.398L677.732 492.898C706.232 500.398 723.689 501.401 751.732 494.398C780.752 487.151 803.566 469.065 818.232 456.398C823.232 452.898 829.639 442.989 837.732 431.898C851.232 413.398 864.899 349.398 872.732 311.898C874.232 284.898 854.232 280.398 854.232 280.398C842.232 274.398 786.732 287.898 786.732 287.898C724.232 289.398 702.232 305.898 702.232 305.898C666.732 332.398 656.732 371.398 656.732 371.398C653.232 383.565 646.032 410.198 645.232 419.398C644.432 428.598 632.566 448.898 626.733 457.898C625.233 463.898 630.732 469.898 633.733 468.898Z" fill="white" fill-opacity="0.05"/>
</g>
<path d="M817.447 293.509C838.984 292.202 857.504 308.603 858.81 330.141C860.117 351.678 843.717 370.197 822.179 371.504C800.641 372.811 811.143 354.65 809.837 333.112C808.53 311.574 795.909 294.816 817.447 293.509Z" fill="#0075FF"/>
<g filter="url(#filter23_f_101_3384)">
<path d="M818.225 293.461C834.897 292.45 849.472 309.09 850.778 330.627C852.085 352.165 839.629 370.445 822.957 371.456C806.285 372.468 791.71 355.828 790.403 334.29C789.097 312.753 801.553 294.473 818.225 293.461Z" fill="#0075FF"/>
</g>
<g filter="url(#filter24_f_101_3384)">
<ellipse cx="819.036" cy="332.553" rx="39.0692" ry="30.2429" transform="rotate(-93.472 819.036 332.553)" fill="#0075FF"/>
</g>
<g filter="url(#filter25_f_101_3384)">
<ellipse cx="814.761" cy="332.813" rx="39.0692" ry="30.3727" transform="rotate(-93.472 814.761 332.813)" fill="#0075FF"/>
</g>
<g filter="url(#filter26_f_101_3384)">
<ellipse cx="801.935" cy="333.591" rx="39.0692" ry="30.2429" transform="rotate(-93.472 801.935 333.591)" fill="#0075FF"/>
</g>
<g filter="url(#filter27_f_101_3384)">
<ellipse cx="784.574" cy="334.644" rx="32.8389" ry="30.2429" transform="rotate(-93.472 784.574 334.644)" fill="#0075FF"/>
</g>
<path d="M742.451 306.509C763.988 305.202 782.507 321.603 783.814 343.141C785.121 364.678 768.721 383.197 747.183 384.504C725.645 385.811 736.147 367.65 734.841 346.112C733.534 324.574 720.913 307.816 742.451 306.509Z" fill="white" fill-opacity="0.15"/>
<g filter="url(#filter28_f_101_3384)">
<path d="M743.229 306.461C759.901 305.45 774.475 322.09 775.782 343.627C777.089 365.165 764.633 383.445 747.961 384.456C731.289 385.468 716.714 368.828 715.407 347.29C714.101 325.753 726.557 307.473 743.229 306.461Z" fill="white" fill-opacity="0.15"/>
</g>
<g filter="url(#filter29_f_101_3384)">
<ellipse cx="744.04" cy="345.553" rx="39.0692" ry="30.2429" transform="rotate(-93.472 744.04 345.553)" fill="white" fill-opacity="0.15"/>
</g>
<g filter="url(#filter30_f_101_3384)">
<ellipse cx="739.765" cy="345.813" rx="39.0692" ry="30.3727" transform="rotate(-93.472 739.765 345.813)" fill="white" fill-opacity="0.15"/>
</g>
<g filter="url(#filter31_f_101_3384)">
<ellipse cx="726.939" cy="346.591" rx="39.0692" ry="30.2429" transform="rotate(-93.472 726.939 346.591)" fill="white" fill-opacity="0.15"/>
</g>
<g filter="url(#filter32_f_101_3384)">
<ellipse cx="709.578" cy="347.644" rx="32.8389" ry="30.2429" transform="rotate(-93.472 709.578 347.644)" fill="white" fill-opacity="0.15"/>
</g>
<g filter="url(#filter33_bd_101_3384)">
<path d="M633.733 468.898C638.365 467.354 640.233 462.898 641.733 462.398L651.732 476.898L650.732 480.398C650.732 481.898 648.607 482.898 649.732 484.898C653.332 491.298 662.232 491.231 666.232 490.398L677.732 492.898C706.232 500.398 723.689 501.401 751.732 494.398C780.752 487.151 803.566 469.065 818.232 456.398C823.232 452.898 829.639 442.989 837.732 431.898C851.232 413.398 864.899 349.398 872.732 311.898C874.232 284.898 854.232 280.398 854.232 280.398C842.232 274.398 786.732 287.898 786.732 287.898C724.232 289.398 702.232 305.898 702.232 305.898C666.732 332.398 656.732 371.398 656.732 371.398C653.232 383.565 646.032 410.198 645.232 419.398C644.432 428.598 632.566 448.898 626.733 457.898C625.233 463.898 630.732 469.898 633.733 468.898Z" fill="white" fill-opacity="0.2" shape-rendering="crispEdges"/>
<path d="M642.144 462.114L641.931 461.805L641.575 461.924C641.302 462.015 641.052 462.184 640.825 462.376C640.596 462.571 640.364 462.812 640.129 463.074C639.917 463.31 639.694 463.575 639.46 463.852L639.382 463.945C639.118 464.257 638.838 464.586 638.536 464.922C637.325 466.266 635.77 467.692 633.575 468.424C633.012 468.611 632.259 468.489 631.408 468.009C630.567 467.535 629.696 466.744 628.948 465.727C627.463 463.708 626.531 460.893 627.198 458.099C630.122 453.582 634.529 446.281 638.314 438.952C640.217 435.269 641.965 431.571 643.29 428.213C644.611 424.863 645.524 421.815 645.731 419.441C646.126 414.888 648.115 405.97 650.455 396.632C652.791 387.31 655.464 377.615 657.213 371.536L657.215 371.529L657.217 371.522L656.936 371.45C657.217 371.522 657.217 371.522 657.217 371.522L657.217 371.521L657.218 371.516L657.223 371.496L657.245 371.415C657.265 371.342 657.294 371.233 657.335 371.088C657.416 370.8 657.539 370.372 657.709 369.817C658.05 368.707 658.576 367.088 659.319 365.062C660.805 361.01 663.155 355.328 666.612 348.82C673.525 335.802 684.857 319.492 702.532 306.299L702.532 306.298L702.532 306.298L702.534 306.296L702.544 306.289C702.554 306.282 702.569 306.271 702.589 306.257C702.63 306.227 702.693 306.183 702.778 306.124C702.949 306.007 703.21 305.833 703.566 305.61C704.277 305.163 705.369 304.519 706.876 303.741C709.89 302.183 714.568 300.084 721.199 297.936C734.461 293.64 755.537 289.147 786.744 288.398L786.798 288.396L786.851 288.384L786.732 287.898C786.851 288.384 786.851 288.384 786.851 288.384L786.853 288.383L786.86 288.381L786.89 288.374L787.009 288.345C787.114 288.32 787.27 288.283 787.474 288.234C787.883 288.137 788.484 287.995 789.254 287.817C790.793 287.46 793.005 286.956 795.698 286.371C801.084 285.2 808.389 283.702 816.067 282.391C823.747 281.08 831.789 279.958 838.654 279.538C842.086 279.328 845.214 279.293 847.848 279.496C850.494 279.7 852.596 280.139 854.009 280.845L854.063 280.872L854.122 280.886L854.123 280.886L854.124 280.886L854.132 280.888L854.17 280.897C854.204 280.906 854.257 280.919 854.326 280.938C854.465 280.975 854.671 281.035 854.935 281.12C855.463 281.29 856.22 281.565 857.127 281.978C858.94 282.804 861.345 284.183 863.703 286.388C868.4 290.78 872.967 298.499 872.235 311.833C868.319 330.58 862.95 355.925 856.874 378.895C853.834 390.388 850.62 401.279 847.324 410.448C844.025 419.628 840.659 427.039 837.329 431.603C835.619 433.945 833.99 436.228 832.436 438.406C830.297 441.403 828.298 444.203 826.423 446.694C823.181 451 820.372 454.29 817.946 455.988L817.925 456.003L817.906 456.02C803.248 468.678 780.51 486.697 751.611 493.913C737.62 497.407 726.292 498.898 714.917 498.587C703.539 498.275 692.092 496.16 677.86 492.415L677.849 492.412L677.839 492.409L666.339 489.909L666.235 489.887L666.13 489.909C664.185 490.314 661.032 490.534 657.937 489.872C654.845 489.21 651.874 487.685 650.168 484.653C649.932 484.234 649.882 483.899 649.911 483.613C649.942 483.316 650.064 483.027 650.245 482.708C650.329 482.561 650.419 482.417 650.516 482.263L650.543 482.219C650.647 482.053 650.758 481.874 650.858 481.691C651.046 481.342 651.215 480.937 651.231 480.473L652.213 477.035L652.278 476.809L652.144 476.614L642.144 462.114Z" stroke="url(#paint4_linear_101_3384)" stroke-opacity="0.15" shape-rendering="crispEdges"/>
</g>
<g filter="url(#filter34_f_101_3384)">
<path d="M720.226 489.99C711.245 492.927 685.666 488.766 674 486.317L744 460C739.818 468.772 729.208 487.052 720.226 489.99Z" fill="white" fill-opacity="0.15"/>
</g>
<g filter="url(#filter35_i_101_3384)">
<path d="M750.762 318.907C749.806 316.807 750.105 316.049 752.245 315.15C756.244 313.47 760.3 310.405 765.129 310.475C767.18 310.506 769.023 310.754 769.224 311.028C769.865 311.901 769.631 315.493 768.862 316.592C768.453 317.175 766.607 318.224 764.759 318.922C756.773 321.941 752.142 321.936 750.762 318.907Z" fill="white" fill-opacity="0.16"/>
<path d="M724.182 333.088C725.791 331.592 729.358 329.687 731.561 329.148C733.855 328.587 734.689 328.625 736.467 329.368C741.283 331.38 741.607 337.409 737.084 340.859C734.69 342.685 730.318 344.098 727.06 344.098C724.644 344.098 724.081 343.905 722.82 342.644C721.683 341.508 721.367 340.744 721.367 339.139C721.367 336.741 722.215 334.916 724.182 333.088Z" fill="white" fill-opacity="0.16"/>
<path d="M683.988 369.699C684.049 366.704 685.589 363.535 688.078 361.287C689.597 359.915 690.464 359.514 691.917 359.514C697.082 359.514 697.871 364.52 693.57 370.006C691.12 373.132 689.658 374.136 687.64 374.079C685.128 374.008 683.931 372.572 683.988 369.699Z" fill="white" fill-opacity="0.16"/>
<path d="M661.703 381.401C657.266 379.562 658.895 368.654 664.134 365.124C666.234 363.709 666.249 363.71 665.644 365.3C665.017 366.948 664.458 370.993 664.44 374.013C664.433 375.286 664.269 376.23 664.079 376.113C663.439 375.717 663.019 379.528 663.6 380.457C664.373 381.695 663.483 382.138 661.703 381.401Z" fill="white" fill-opacity="0.16"/>
<path d="M672.632 374.165C672.632 373.785 673.893 371.683 675.435 369.492C677.049 367.199 678.474 365.64 678.792 365.819C681.716 367.465 681.949 370.75 679.44 374.931C677.39 378.347 675.906 378.746 673.941 376.411C673.221 375.555 672.632 374.544 672.632 374.165Z" fill="white" fill-opacity="0.16"/>
<path d="M655.01 393.661C654.98 390.533 655.089 390.165 656.373 389.061C658.111 387.565 659.417 387.535 660.419 388.966C661.325 390.259 661.4 392.319 660.666 395.743C660.053 398.6 658.765 400.039 657.251 399.558C655.678 399.059 655.046 397.395 655.01 393.661Z" fill="white" fill-opacity="0.16"/>
<path d="M655.713 406.739C655.163 405.711 655.438 404.034 656.343 402.904C657.854 401.014 659.767 403.701 658.717 406.238C657.987 408 656.52 408.245 655.713 406.739Z" fill="white" fill-opacity="0.16"/>
</g>
<g filter="url(#filter36_i_101_3384)">
<path fill-rule="evenodd" clip-rule="evenodd" d="M846.063 309.5C840.551 311.466 837.092 316.719 836.012 324.763C835.581 327.972 833.335 331.287 830.438 332.989C828.377 334.201 827.473 334.409 824.058 334.458C821.87 334.489 819.789 334.546 819.433 334.582C818.16 334.715 817.345 337.974 817.337 342.963C817.326 350.497 816.14 351.887 809.181 352.521C802.118 353.165 800.439 355.156 800.438 362.887C800.436 371.527 797.964 373.916 788.999 373.94C784.867 373.952 783.384 374.498 781.838 376.58C780.922 377.814 780.813 378.575 780.918 382.974C781.124 391.591 780.142 392.519 770.786 392.558L764.864 392.583C764.671 392.584 764.487 392.665 764.355 392.806L762.64 394.644C761.135 396.256 760.439 397.66 759.435 401.109C757.497 407.76 755.949 410.537 753.318 412.078C751.326 413.245 750.418 413.409 744.381 413.69C737.86 413.993 737.628 414.042 736.498 415.355C735.859 416.099 735.198 417.546 735.03 418.57C733.743 426.416 732.835 428.24 729.338 430.006C727.617 430.876 726.276 431.125 723.324 431.125C716.945 431.125 716.096 431.744 714.902 437.26C713.817 442.267 711.193 445.531 707.438 446.542C705.395 447.092 703.952 446.92 700.843 445.753C699.812 445.366 697.982 445.049 696.778 445.049C693.774 445.049 691.977 446.68 689.739 451.432C688.752 453.528 687.464 455.769 686.877 456.41C683.246 460.378 678.552 459.692 672.737 454.346C671.106 452.848 669.29 451.468 668.702 451.281C666.977 450.734 664.614 452.492 662.355 456.003C658.421 462.117 656.96 463.94 655.399 464.688C653.124 465.778 651.318 465.623 646.772 463.947C645.382 463.434 644.026 462.98 643.107 462.711C642.61 462.566 642.283 462.999 642.519 463.461C644.816 467.958 647.025 471.152 650.5 476C651.5 477.395 651.852 477.436 653.577 476.618C655.867 475.531 658.337 475.848 663.466 477.885C669.198 480.162 669.751 479.821 670.856 473.327C671.23 471.128 673.096 469.15 675.192 468.731C678.116 468.146 680.259 469.116 685.687 473.484C686.521 474.156 687.22 474.402 687.476 474.115C687.708 473.856 688.734 471.182 689.757 468.174C690.78 465.165 691.848 462.424 692.131 462.082C693.008 461.021 694.709 461.372 701.516 464.019C706.375 465.908 708.304 466.449 708.888 466.086C709.324 465.816 709.993 464.273 710.376 462.657C710.758 461.042 711.285 458.825 711.546 457.731C712.362 454.315 716.874 451.017 720.732 451.017C721.278 451.017 722.982 451.688 724.519 452.509C729.362 455.093 730.672 454.56 731.35 449.728C731.926 445.625 733.651 442.549 736.667 440.249C739.419 438.15 742.272 437.721 746.468 438.775C748.228 439.218 750.126 439.579 750.685 439.579C752.492 439.579 753.509 437.974 753.864 434.561C754.443 429.007 758.294 422.866 761.957 421.657C763.054 421.294 764.94 421.209 767.088 421.425C769.155 421.632 770.603 421.575 770.786 421.279C770.952 421.011 771.41 418.333 771.805 415.328C772.625 409.09 773.292 407.192 775.583 404.582C777.824 402.031 779.611 401.226 784.17 400.716C791.118 399.938 792.329 398.581 793.004 390.814C793.491 385.199 794.178 383.265 796.663 380.515C798.929 378.006 802.055 376.677 807.312 375.984C812.193 375.341 814.644 374.301 815.59 372.471C815.968 371.74 816.746 369.252 817.318 366.944C818.442 362.409 821.12 356.3 823.154 353.633C825.072 351.118 827.136 350.07 830.17 350.068C836.778 350.063 840.088 345.639 841.391 335.073C841.779 331.925 842.444 328.677 842.869 327.855C843.294 327.034 845.322 325.199 847.376 323.78C851.857 320.682 853.233 318.891 853.533 315.771C853.824 312.746 852.676 310.449 850.398 309.497C848.384 308.655 848.428 308.655 846.063 309.5Z" fill="white" fill-opacity="0.16"/>
</g>
<path d="M846.063 309.5L846.231 309.971C840.961 311.851 837.574 316.889 836.507 324.83L836.012 324.763L836.507 324.83C836.055 328.197 833.715 331.643 830.691 333.421C829.643 334.037 828.851 334.421 827.868 334.647C826.9 334.87 825.772 334.933 824.065 334.958C821.864 334.989 819.813 335.046 819.485 335.08L846.063 309.5ZM846.063 309.5L846.231 309.971C847.456 309.533 847.935 309.366 848.363 309.366C848.775 309.366 849.158 309.521 850.205 309.958C852.226 310.802 853.312 312.85 853.035 315.723C852.893 317.206 852.501 318.341 851.626 319.479C850.734 320.639 849.324 321.825 847.092 323.368C846.047 324.09 845.009 324.917 844.176 325.671C843.76 326.048 843.39 326.41 843.094 326.735C842.805 327.052 842.562 327.36 842.425 327.626L842.424 327.626C842.292 327.882 842.159 328.284 842.031 328.756C841.899 329.238 841.761 329.831 841.626 330.492C841.355 331.814 841.09 333.426 840.894 335.012C840.246 340.27 839.106 343.911 837.369 346.231C835.661 348.514 833.341 349.565 830.17 349.568C828.593 349.569 827.237 349.842 826.017 350.462C824.798 351.082 823.748 352.03 822.756 353.33C821.703 354.71 820.506 356.947 819.437 359.387C818.364 361.834 817.403 364.522 816.833 366.824C816.549 367.968 816.214 369.158 815.904 370.15C815.589 371.157 815.312 371.921 815.146 372.242L815.146 372.242C814.743 373.022 814.003 373.673 812.731 374.213C811.452 374.756 809.671 375.169 807.247 375.489C801.935 376.188 798.672 377.545 796.292 380.18C795.022 381.586 794.185 382.812 793.613 384.423C793.047 386.016 792.75 387.957 792.505 390.77C792.337 392.707 792.138 394.214 791.831 395.404C791.526 396.59 791.122 397.429 790.566 398.053C789.453 399.301 787.605 399.828 784.114 400.219C781.821 400.475 780.172 400.811 778.802 401.428C777.419 402.05 776.357 402.944 775.208 404.252L775.583 404.582M846.063 309.5L775.583 404.582M753.318 412.078L753.571 412.51C752.541 413.113 751.76 413.473 750.455 413.709C749.185 413.938 747.413 414.05 744.405 414.189C741.12 414.342 739.485 414.43 738.521 414.633C738.057 414.731 737.785 414.85 737.572 414.996C737.35 415.149 737.161 415.351 736.877 415.681C736.599 416.005 736.297 416.507 736.042 417.065C735.788 417.622 735.598 418.196 735.523 418.651C734.881 422.565 734.323 425.056 733.46 426.791C732.572 428.574 731.373 429.538 729.564 430.453L729.338 430.006L729.563 430.453C727.745 431.371 726.317 431.625 723.324 431.625C721.731 431.625 720.513 431.664 719.557 431.803C718.603 431.941 717.951 432.173 717.463 432.528C716.98 432.88 716.61 433.387 716.286 434.166C715.958 434.955 715.688 435.989 715.39 437.366L714.902 437.26L715.39 437.366C714.281 442.487 711.562 445.95 707.568 447.025C706.498 447.313 705.561 447.417 704.481 447.288C703.415 447.16 702.232 446.808 700.667 446.221C699.697 445.857 697.928 445.549 696.778 445.549C695.386 445.549 694.309 445.92 693.307 446.829C692.278 447.762 691.304 449.283 690.192 451.645L689.739 451.432L690.192 451.645C689.692 452.706 689.117 453.802 688.591 454.716C688.075 455.614 687.581 456.381 687.246 456.748L686.877 456.41L687.246 456.748C685.336 458.835 683.096 459.737 680.554 459.366C678.054 459.001 675.336 457.415 672.398 454.715C671.594 453.975 670.744 453.265 670.026 452.72C669.667 452.447 669.345 452.218 669.081 452.049C668.804 451.871 668.628 451.782 668.55 451.758C667.913 451.555 667.062 451.752 666.027 452.521C665.004 453.283 663.886 454.547 662.775 456.274L662.355 456.003L662.775 456.274C660.809 459.33 659.447 461.334 658.377 462.671C657.305 464.009 656.494 464.718 655.615 465.139C654.408 465.717 653.299 465.974 651.894 465.853C650.518 465.735 648.876 465.256 646.599 464.416C645.216 463.906 643.871 463.456 642.967 463.191C642.959 463.189 642.951 463.187 642.945 463.186C642.948 463.198 642.954 463.214 642.964 463.234C645.243 467.694 647.434 470.863 650.906 475.709C651.425 476.432 651.656 476.609 651.861 476.648C651.964 476.668 652.111 476.662 652.362 476.585C652.616 476.507 652.932 476.37 653.362 476.166C655.863 474.979 658.52 475.382 663.651 477.42C665.088 477.991 666.16 478.381 666.988 478.558C667.818 478.735 668.301 478.675 668.634 478.47C668.975 478.259 669.28 477.822 669.566 476.944C669.85 476.074 670.086 474.87 670.363 473.243C670.77 470.852 672.784 468.703 675.094 468.24C676.656 467.928 678.03 468.035 679.707 468.795C681.35 469.539 683.286 470.911 686 473.095L685.687 473.484L686 473.095C686.394 473.412 686.727 473.604 686.964 473.688C687.042 473.715 687.094 473.727 687.128 473.731C687.135 473.718 687.143 473.702 687.152 473.684C687.198 473.592 687.257 473.465 687.328 473.302C687.468 472.977 687.648 472.532 687.853 471.996C688.264 470.927 688.774 469.512 689.284 468.013C689.797 466.503 690.322 465.058 690.756 463.946C690.972 463.391 691.167 462.914 691.328 462.553C691.408 462.372 691.481 462.216 691.545 462.09C691.603 461.977 691.672 461.852 691.746 461.763C691.746 461.763 691.746 461.763 691.746 461.763L753.318 412.078ZM753.318 412.078L753.571 412.51C756.388 410.859 757.978 407.897 759.915 401.249C760.909 397.833 761.578 396.515 763.005 394.985L764.721 393.147C764.758 393.107 764.811 393.084 764.866 393.083L770.788 393.058C773.127 393.048 774.978 392.984 776.425 392.749C777.873 392.515 778.982 392.102 779.782 391.346C780.587 390.584 781.013 389.537 781.231 388.181C781.449 386.831 781.47 385.116 781.418 382.962C781.365 380.751 781.369 379.506 781.49 378.661C781.605 377.864 781.822 377.441 782.24 376.878C782.974 375.89 783.658 375.308 784.622 374.953C785.614 374.587 786.942 374.446 789 374.44C793.487 374.428 796.533 373.834 798.427 372.004C800.327 370.168 800.937 367.217 800.938 362.887C800.938 359.017 801.369 356.76 802.543 355.369C803.705 353.991 805.701 353.34 809.226 353.019C812.682 352.704 814.928 352.198 816.245 350.654C816.906 349.88 817.298 348.887 817.528 347.637C817.758 346.391 817.834 344.854 817.837 342.964C817.841 340.49 818.046 338.473 818.396 337.073M753.318 412.078L818.396 337.073M775.583 404.582L775.207 404.253C774.032 405.592 773.253 406.773 772.671 408.429C772.096 410.063 771.719 412.143 771.31 415.263C771.113 416.76 770.9 418.174 770.717 419.245C770.625 419.781 770.541 420.227 770.471 420.553C770.436 420.716 770.405 420.844 770.38 420.935C770.378 420.941 770.377 420.947 770.375 420.952L775.583 404.582ZM818.396 337.073C818.571 336.37 818.777 335.852 818.991 335.514M818.396 337.073L818.991 335.514M818.991 335.514C819.211 335.169 819.386 335.09 819.484 335.08L818.991 335.514ZM687.17 473.734C687.175 473.732 687.178 473.732 687.178 473.732C687.178 473.733 687.176 473.733 687.17 473.734ZM708.888 466.086C709.324 465.816 709.993 464.273 710.376 462.657L708.888 466.086Z" stroke="url(#paint5_linear_101_3384)" stroke-opacity="0.05"/>
<g filter="url(#filter37_i_101_3384)">
<path d="M853.546 362.097C853.635 361.279 853.942 360.328 854.228 359.983C854.905 359.168 855.363 359.191 856.098 360.076C856.94 361.09 855.713 363.583 854.372 363.583C853.571 363.583 853.414 363.302 853.546 362.097Z" fill="white" fill-opacity="0.16"/>
<path d="M849.903 382.729C847.601 382.729 847.302 380.383 849.284 377.88C850.349 376.535 852.141 377.632 852.141 379.628C852.141 381.471 851.233 382.729 849.903 382.729Z" fill="white" fill-opacity="0.16"/>
<path d="M839.85 407.007C838.771 406.112 839.126 405.112 841.241 403.079C843.218 401.179 845.261 400.552 845.932 401.638C846.351 402.316 845.797 404.634 844.944 405.772C844.077 406.93 840.733 407.74 839.85 407.007Z" fill="white" fill-opacity="0.16"/>
<path d="M825.454 423.903C825.872 422.239 831.001 415.465 832.623 414.434C835.359 412.697 837.587 413.595 838.739 416.901C839.206 418.241 839.071 418.839 837.684 421.586C836.81 423.319 835.209 426.138 834.127 427.851L832.366 430.64C832.238 430.843 832.014 430.966 831.774 430.966H829.53C827.928 430.966 826.683 430.704 826.343 430.295C825.63 429.436 825.072 425.424 825.454 423.903Z" fill="white" fill-opacity="0.16"/>
<path d="M821.184 420.439C820.012 419.835 820.089 418.677 821.433 416.704C822.628 414.948 823.806 414.614 824.758 415.761C825.219 416.317 825.128 416.896 824.335 418.451C823.216 420.645 822.483 421.107 821.184 420.439Z" fill="white" fill-opacity="0.16"/>
<path d="M817.33 439.146C817.33 437.122 819.103 434.547 821.3 433.379C823.336 432.297 823.119 432.328 824.304 432.962C825.833 433.78 826.078 436.589 824.8 438.657C823.399 440.924 821.963 441.907 820.054 441.907C818.106 441.907 817.33 441.12 817.33 439.146Z" fill="white" fill-opacity="0.16"/>
<path d="M816.485 436.437C815.674 436.437 815.645 435.337 816.435 434.547C817.225 433.757 818.325 433.786 818.325 434.597C818.325 435.428 817.316 436.437 816.485 436.437Z" fill="white" fill-opacity="0.16"/>
<path d="M806.127 438.601C805.186 438.239 805.199 437.435 806.169 436.05C807.098 434.725 808.379 434.596 808.379 435.829C808.379 437.178 806.962 438.921 806.127 438.601Z" fill="white" fill-opacity="0.16"/>
<path d="M802.771 448.902C803.53 448.546 804.711 447.952 805.395 447.581C806.981 446.721 807.157 446.724 808.065 447.632C808.956 448.523 809.612 452.323 809.176 454.062C808.39 457.197 801.672 459.603 799.413 457.559C798.874 457.071 798.433 456.074 798.433 455.342C798.433 453.58 801.036 449.715 802.771 448.902Z" fill="white" fill-opacity="0.16"/>
<path d="M789.481 457.872C789.481 457.358 791.55 455.517 792.465 455.216C793.425 454.9 794.454 455.716 794.454 456.793C794.454 457.831 792.672 459.81 791.735 459.81C791.002 459.81 789.481 458.502 789.481 457.872Z" fill="white" fill-opacity="0.16"/>
<path d="M788.238 460.307C787.828 460.307 787.492 459.971 787.492 459.561C787.492 459.151 787.828 458.815 788.238 458.815C788.648 458.815 788.984 459.151 788.984 459.561C788.984 459.971 788.648 460.307 788.238 460.307Z" fill="white" fill-opacity="0.16"/>
<path d="M775.557 471.427C775.557 468.927 777.029 467.012 780.281 465.279C781.854 464.44 782.831 464.271 784.952 464.472C786.427 464.611 787.829 464.92 788.067 465.159C788.305 465.397 788.547 466.671 788.605 467.991C788.7 470.187 788.557 470.52 786.909 471.937C784.653 473.878 779.63 475.91 778.284 475.428C776.288 474.713 775.557 473.642 775.557 471.427Z" fill="white" fill-opacity="0.16"/>
<path d="M755.741 480.323C755.176 479.244 755.801 477.478 757.001 476.763C757.497 476.467 758.574 476.281 759.395 476.347C760.538 476.441 760.926 476.742 761.052 477.637C761.418 480.224 756.89 482.515 755.741 480.323Z" fill="white" fill-opacity="0.16"/>
<path d="M765.148 482.458C764.14 481.835 764.621 480.139 766.219 478.679C768.018 477.036 769.15 476.847 770.3 477.996C772.215 479.911 770.388 482.919 767.362 482.834C766.436 482.807 765.44 482.638 765.148 482.458Z" fill="white" fill-opacity="0.16"/>
<path d="M741.442 487.5C741.076 486.348 743.002 484.4 746.216 482.671C748.799 481.282 751.467 481.402 752.923 482.973C754.103 484.247 754.112 484.506 753.06 487.313C752.416 489.033 748.508 491.139 745.96 491.139C744.069 491.139 742.091 489.547 741.442 487.5Z" fill="white" fill-opacity="0.16"/>
<path d="M733.029 490.44C730.277 491.131 727.927 489.571 729.274 487.949C729.956 487.126 733.065 486.878 734.138 487.559C735.066 488.149 734.307 490.119 733.029 490.44Z" fill="white" fill-opacity="0.16"/>
</g>
</g>
<defs>
<filter id="filter0_f_101_3384" x="807.77" y="277.386" width="60.2246" height="67.2459" filterUnits="userSpaceOnUse" color-interpolation-filters="sRGB">
<feFlood flood-opacity="0" result="BackgroundImageFix"/>
<feBlend mode="normal" in="SourceGraphic" in2="BackgroundImageFix" result="shape"/>
<feGaussianBlur stdDeviation="2" result="effect1_foregroundBlur_101_3384"/>
</filter>
<filter id="filter1_f_101_3384" x="796.691" y="268.008" width="80.2246" height="87.2459" filterUnits="userSpaceOnUse" color-interpolation-filters="sRGB">
<feFlood flood-opacity="0" result="BackgroundImageFix"/>
<feBlend mode="normal" in="SourceGraphic" in2="BackgroundImageFix" result="shape"/>
<feGaussianBlur stdDeviation="7" result="effect1_foregroundBlur_101_3384"/>
</filter>
<filter id="filter2_f_101_3384" x="773.654" y="249.699" width="120.369" height="127.288" filterUnits="userSpaceOnUse" color-interpolation-filters="sRGB">
<feFlood flood-opacity="0" result="BackgroundImageFix"/>
<feBlend mode="normal" in="SourceGraphic" in2="BackgroundImageFix" result="shape"/>
<feGaussianBlur stdDeviation="17" result="effect1_foregroundBlur_101_3384"/>
</filter>
<filter id="filter3_f_101_3384" x="724.834" y="214.854" width="200.225" height="207.246" filterUnits="userSpaceOnUse" color-interpolation-filters="sRGB">
<feFlood flood-opacity="0" result="BackgroundImageFix"/>
<feBlend mode="normal" in="SourceGraphic" in2="BackgroundImageFix" result="shape"/>
<feGaussianBlur stdDeviation="37" result="effect1_foregroundBlur_101_3384"/>
</filter>
<filter id="filter4_f_101_3384" x="658.203" y="169.682" width="309.412" height="311.489" filterUnits="userSpaceOnUse" color-interpolation-filters="sRGB">
<feFlood flood-opacity="0" result="BackgroundImageFix"/>
<feBlend mode="normal" in="SourceGraphic" in2="BackgroundImageFix" result="shape"/>
<feGaussianBlur stdDeviation="65" result="effect1_foregroundBlur_101_3384"/>
</filter>
<filter id="filter5_f_101_3384" x="617.32" y="287.155" width="254.357" height="222.008" filterUnits="userSpaceOnUse" color-interpolation-filters="sRGB">
<feFlood flood-opacity="0" result="BackgroundImageFix"/>
<feBlend mode="normal" in="SourceGraphic" in2="BackgroundImageFix" result="shape"/>
<feGaussianBlur stdDeviation="3.30857" result="effect1_foregroundBlur_101_3384"/>
</filter>
<filter id="filter6_f_101_3384" x="598.447" y="275.064" width="287.443" height="255.094" filterUnits="userSpaceOnUse" color-interpolation-filters="sRGB">
<feFlood flood-opacity="0" result="BackgroundImageFix"/>
<feBlend mode="normal" in="SourceGraphic" in2="BackgroundImageFix" result="shape"/>
<feGaussianBlur stdDeviation="11.58" result="effect1_foregroundBlur_101_3384"/>
</filter>
<filter id="filter7_f_101_3384" x="558.881" y="253.92" width="353.761" height="321.881" filterUnits="userSpaceOnUse" color-interpolation-filters="sRGB">
<feFlood flood-opacity="0" result="BackgroundImageFix"/>
<feBlend mode="normal" in="SourceGraphic" in2="BackgroundImageFix" result="shape"/>
<feGaussianBlur stdDeviation="28.1228" result="effect1_foregroundBlur_101_3384"/>
</filter>
<filter id="filter8_f_101_3384" x="473.56" y="224.8" width="485.957" height="453.608" filterUnits="userSpaceOnUse" color-interpolation-filters="sRGB">
<feFlood flood-opacity="0" result="BackgroundImageFix"/>
<feBlend mode="normal" in="SourceGraphic" in2="BackgroundImageFix" result="shape"/>
<feGaussianBlur stdDeviation="61.2085" result="effect1_foregroundBlur_101_3384"/>
</filter>
<filter id="filter9_f_101_3384" x="371.207" y="186.805" width="638.625" height="629.064" filterUnits="userSpaceOnUse" color-interpolation-filters="sRGB">
<feFlood flood-opacity="0" result="BackgroundImageFix"/>
<feBlend mode="normal" in="SourceGraphic" in2="BackgroundImageFix" result="shape"/>
<feGaussianBlur stdDeviation="107.528" result="effect1_foregroundBlur_101_3384"/>
</filter>
<filter id="filter10_f_101_3384" x="628.965" y="230.757" width="208.68" height="265.217" filterUnits="userSpaceOnUse" color-interpolation-filters="sRGB">
<feFlood flood-opacity="0" result="BackgroundImageFix"/>
<feBlend mode="normal" in="SourceGraphic" in2="BackgroundImageFix" result="shape"/>
<feGaussianBlur stdDeviation="3.30857" result="effect1_foregroundBlur_101_3384"/>
</filter>
<filter id="filter11_f_101_3384" x="607.406" y="214.519" width="241.765" height="298.303" filterUnits="userSpaceOnUse" color-interpolation-filters="sRGB">
<feFlood flood-opacity="0" result="BackgroundImageFix"/>
<feBlend mode="normal" in="SourceGraphic" in2="BackgroundImageFix" result="shape"/>
<feGaussianBlur stdDeviation="11.58" result="effect1_foregroundBlur_101_3384"/>
</filter>
<filter id="filter12_f_101_3384" x="560.11" y="182.269" width="308.771" height="364.477" filterUnits="userSpaceOnUse" color-interpolation-filters="sRGB">
<feFlood flood-opacity="0" result="BackgroundImageFix"/>
<feBlend mode="normal" in="SourceGraphic" in2="BackgroundImageFix" result="shape"/>
<feGaussianBlur stdDeviation="28.1228" result="effect1_foregroundBlur_101_3384"/>
</filter>
<filter id="filter13_f_101_3384" x="452.96" y="118.61" width="440.279" height="496.817" filterUnits="userSpaceOnUse" color-interpolation-filters="sRGB">
<feFlood flood-opacity="0" result="BackgroundImageFix"/>
<feBlend mode="normal" in="SourceGraphic" in2="BackgroundImageFix" result="shape"/>
<feGaussianBlur stdDeviation="61.2085" result="effect1_foregroundBlur_101_3384"/>
</filter>
<filter id="filter14_f_101_3384" x="304.385" y="49.4126" width="625.381" height="642.012" filterUnits="userSpaceOnUse" color-interpolation-filters="sRGB">
<feFlood flood-opacity="0" result="BackgroundImageFix"/>
<feBlend mode="normal" in="SourceGraphic" in2="BackgroundImageFix" result="shape"/>
<feGaussianBlur stdDeviation="107.528" result="effect1_foregroundBlur_101_3384"/>
</filter>
<filter id="filter15_f_101_3384" x="674.9" y="301.939" width="121.191" height="126.874" filterUnits="userSpaceOnUse" color-interpolation-filters="sRGB">
<feFlood flood-opacity="0" result="BackgroundImageFix"/>
<feBlend mode="normal" in="SourceGraphic" in2="BackgroundImageFix" result="shape"/>
<feGaussianBlur stdDeviation="2" result="effect1_foregroundBlur_101_3384"/>
</filter>
<filter id="filter16_f_101_3384" x="661.799" y="291.637" width="155.553" height="175.557" filterUnits="userSpaceOnUse" color-interpolation-filters="sRGB">
<feFlood flood-opacity="0" result="BackgroundImageFix"/>
<feBlend mode="normal" in="SourceGraphic" in2="BackgroundImageFix" result="shape"/>
<feGaussianBlur stdDeviation="7" result="effect1_foregroundBlur_101_3384"/>
</filter>
<filter id="filter17_f_101_3384" x="652.311" y="289.344" width="198.811" height="219.852" filterUnits="userSpaceOnUse" color-interpolation-filters="sRGB">
<feFlood flood-opacity="0" result="BackgroundImageFix"/>
<feBlend mode="normal" in="SourceGraphic" in2="BackgroundImageFix" result="shape"/>
<feGaussianBlur stdDeviation="10" result="effect1_foregroundBlur_101_3384"/>
</filter>
<filter id="filter18_f_101_3384" x="625.906" y="262.509" width="281.721" height="265.6" filterUnits="userSpaceOnUse" color-interpolation-filters="sRGB">
<feFlood flood-opacity="0" result="BackgroundImageFix"/>
<feBlend mode="normal" in="SourceGraphic" in2="BackgroundImageFix" result="shape"/>
<feGaussianBlur stdDeviation="27" result="effect1_foregroundBlur_101_3384"/>
</filter>
<filter id="filter19_f_101_3384" x="564.561" y="190.375" width="447.408" height="429.384" filterUnits="userSpaceOnUse" color-interpolation-filters="sRGB">
<feFlood flood-opacity="0" result="BackgroundImageFix"/>
<feBlend mode="normal" in="SourceGraphic" in2="BackgroundImageFix" result="shape"/>
<feGaussianBlur stdDeviation="67" result="effect1_foregroundBlur_101_3384"/>
</filter>
<filter id="filter20_f_101_3384" x="609.371" y="267.289" width="283.418" height="279.817" filterUnits="userSpaceOnUse" color-interpolation-filters="sRGB">
<feFlood flood-opacity="0" result="BackgroundImageFix"/>
<feBlend mode="normal" in="SourceGraphic" in2="BackgroundImageFix" result="shape"/>
<feGaussianBlur stdDeviation="31" result="effect1_foregroundBlur_101_3384"/>
</filter>
<filter id="filter21_bi_101_3384" x="623.479" y="275.861" width="252.334" height="226.266" filterUnits="userSpaceOnUse" color-interpolation-filters="sRGB">
<feFlood flood-opacity="0" result="BackgroundImageFix"/>
<feGaussianBlur in="BackgroundImage" stdDeviation="1.5"/>
<feComposite in2="SourceAlpha" operator="in" result="effect1_backgroundBlur_101_3384"/>
<feBlend mode="normal" in="SourceGraphic" in2="effect1_backgroundBlur_101_3384" result="shape"/>
<feColorMatrix in="SourceAlpha" type="matrix" values="0 0 0 0 0 0 0 0 0 0 0 0 0 0 0 0 0 0 127 0" result="hardAlpha"/>
<feOffset dy="0.5"/>
<feGaussianBlur stdDeviation="1"/>
<feComposite in2="hardAlpha" operator="arithmetic" k2="-1" k3="1"/>
<feColorMatrix type="matrix" values="0 0 0 0 1 0 0 0 0 1 0 0 0 0 1 0 0 0 0.15 0"/>
<feBlend mode="normal" in2="shape" result="effect2_innerShadow_101_3384"/>
</filter>
<filter id="filter22_b_101_3384" x="-373.521" y="-721.139" width="2246.33" height="2220.27" filterUnits="userSpaceOnUse" color-interpolation-filters="sRGB">
<feFlood flood-opacity="0" result="BackgroundImageFix"/>
<feGaussianBlur in="BackgroundImage" stdDeviation="500"/>
<feComposite in2="SourceAlpha" operator="in" result="effect1_backgroundBlur_101_3384"/>
<feBlend mode="normal" in="SourceGraphic" in2="effect1_backgroundBlur_101_3384" result="shape"/>
</filter>
<filter id="filter23_f_101_3384" x="783.691" y="286.8" width="73.7987" height="91.3168" filterUnits="userSpaceOnUse" color-interpolation-filters="sRGB">
<feFlood flood-opacity="0" result="BackgroundImageFix"/>
<feBlend mode="normal" in="SourceGraphic" in2="BackgroundImageFix" result="shape"/>
<feGaussianBlur stdDeviation="3.30857" result="effect1_foregroundBlur_101_3384"/>
</filter>
<filter id="filter24_f_101_3384" x="765.594" y="270.352" width="106.884" height="124.402" filterUnits="userSpaceOnUse" color-interpolation-filters="sRGB">
<feFlood flood-opacity="0" result="BackgroundImageFix"/>
<feBlend mode="normal" in="SourceGraphic" in2="BackgroundImageFix" result="shape"/>
<feGaussianBlur stdDeviation="11.58" result="effect1_foregroundBlur_101_3384"/>
</filter>
<filter id="filter25_f_101_3384" x="728.106" y="237.525" width="173.312" height="190.575" filterUnits="userSpaceOnUse" color-interpolation-filters="sRGB">
<feFlood flood-opacity="0" result="BackgroundImageFix"/>
<feBlend mode="normal" in="SourceGraphic" in2="BackgroundImageFix" result="shape"/>
<feGaussianBlur stdDeviation="28.1228" result="effect1_foregroundBlur_101_3384"/>
</filter>
<filter id="filter26_f_101_3384" x="649.235" y="172.132" width="305.398" height="322.916" filterUnits="userSpaceOnUse" color-interpolation-filters="sRGB">
<feFlood flood-opacity="0" result="BackgroundImageFix"/>
<feBlend mode="normal" in="SourceGraphic" in2="BackgroundImageFix" result="shape"/>
<feGaussianBlur stdDeviation="61.2085" result="effect1_foregroundBlur_101_3384"/>
</filter>
<filter id="filter27_f_101_3384" x="539.263" y="86.7568" width="490.622" height="495.775" filterUnits="userSpaceOnUse" color-interpolation-filters="sRGB">
<feFlood flood-opacity="0" result="BackgroundImageFix"/>
<feBlend mode="normal" in="SourceGraphic" in2="BackgroundImageFix" result="shape"/>
<feGaussianBlur stdDeviation="107.528" result="effect1_foregroundBlur_101_3384"/>
</filter>
<filter id="filter28_f_101_3384" x="708.695" y="299.8" width="73.7987" height="91.3168" filterUnits="userSpaceOnUse" color-interpolation-filters="sRGB">
<feFlood flood-opacity="0" result="BackgroundImageFix"/>
<feBlend mode="normal" in="SourceGraphic" in2="BackgroundImageFix" result="shape"/>
<feGaussianBlur stdDeviation="3.30857" result="effect1_foregroundBlur_101_3384"/>
</filter>
<filter id="filter29_f_101_3384" x="690.598" y="283.352" width="106.884" height="124.402" filterUnits="userSpaceOnUse" color-interpolation-filters="sRGB">
<feFlood flood-opacity="0" result="BackgroundImageFix"/>
<feBlend mode="normal" in="SourceGraphic" in2="BackgroundImageFix" result="shape"/>
<feGaussianBlur stdDeviation="11.58" result="effect1_foregroundBlur_101_3384"/>
</filter>
<filter id="filter30_f_101_3384" x="653.11" y="250.525" width="173.312" height="190.575" filterUnits="userSpaceOnUse" color-interpolation-filters="sRGB">
<feFlood flood-opacity="0" result="BackgroundImageFix"/>
<feBlend mode="normal" in="SourceGraphic" in2="BackgroundImageFix" result="shape"/>
<feGaussianBlur stdDeviation="28.1228" result="effect1_foregroundBlur_101_3384"/>
</filter>
<filter id="filter31_f_101_3384" x="574.239" y="185.132" width="305.398" height="322.916" filterUnits="userSpaceOnUse" color-interpolation-filters="sRGB">
<feFlood flood-opacity="0" result="BackgroundImageFix"/>
<feBlend mode="normal" in="SourceGraphic" in2="BackgroundImageFix" result="shape"/>
<feGaussianBlur stdDeviation="61.2085" result="effect1_foregroundBlur_101_3384"/>
</filter>
<filter id="filter32_f_101_3384" x="464.267" y="99.7568" width="490.622" height="495.775" filterUnits="userSpaceOnUse" color-interpolation-filters="sRGB">
<feFlood flood-opacity="0" result="BackgroundImageFix"/>
<feBlend mode="normal" in="SourceGraphic" in2="BackgroundImageFix" result="shape"/>
<feGaussianBlur stdDeviation="107.528" result="effect1_foregroundBlur_101_3384"/>
</filter>
<filter id="filter33_bd_101_3384" x="591.479" y="243.861" width="316.334" height="290.266" filterUnits="userSpaceOnUse" color-interpolation-filters="sRGB">
<feFlood flood-opacity="0" result="BackgroundImageFix"/>
<feGaussianBlur in="BackgroundImage" stdDeviation="17.5"/>
<feComposite in2="SourceAlpha" operator="in" result="effect1_backgroundBlur_101_3384"/>
<feColorMatrix in="SourceAlpha" type="matrix" values="0 0 0 0 0 0 0 0 0 0 0 0 0 0 0 0 0 0 127 0" result="hardAlpha"/>
<feOffset dx="2" dy="4"/>
<feComposite in2="hardAlpha" operator="out"/>
<feColorMatrix type="matrix" values="0 0 0 0 1 0 0 0 0 1 0 0 0 0 1 0 0 0 0.35 0"/>
<feBlend mode="normal" in2="effect1_backgroundBlur_101_3384" result="effect2_dropShadow_101_3384"/>
<feBlend mode="normal" in="SourceGraphic" in2="effect2_dropShadow_101_3384" result="shape"/>
</filter>
<filter id="filter34_f_101_3384" x="644" y="430" width="130" height="91" filterUnits="userSpaceOnUse" color-interpolation-filters="sRGB">
<feFlood flood-opacity="0" result="BackgroundImageFix"/>
<feBlend mode="normal" in="SourceGraphic" in2="BackgroundImageFix" result="shape"/>
<feGaussianBlur stdDeviation="15" result="effect1_foregroundBlur_101_3384"/>
</filter>
<filter id="filter35_i_101_3384" x="655.006" y="310.474" width="114.59" height="97.7558" filterUnits="userSpaceOnUse" color-interpolation-filters="sRGB">
<feFlood flood-opacity="0" result="BackgroundImageFix"/>
<feBlend mode="normal" in="SourceGraphic" in2="BackgroundImageFix" result="shape"/>
<feColorMatrix in="SourceAlpha" type="matrix" values="0 0 0 0 0 0 0 0 0 0 0 0 0 0 0 0 0 0 127 0" result="hardAlpha"/>
<feOffset dy="0.5"/>
<feGaussianBlur stdDeviation="0.25"/>
<feComposite in2="hardAlpha" operator="arithmetic" k2="-1" k3="1"/>
<feColorMatrix type="matrix" values="0 0 0 0 1 0 0 0 0 1 0 0 0 0 1 0 0 0 0.1 0"/>
<feBlend mode="normal" in2="shape" result="effect1_innerShadow_101_3384"/>
</filter>
<filter id="filter36_i_101_3384" x="642.439" y="308.866" width="211.139" height="170.796" filterUnits="userSpaceOnUse" color-interpolation-filters="sRGB">
<feFlood flood-opacity="0" result="BackgroundImageFix"/>
<feBlend mode="normal" in="SourceGraphic" in2="BackgroundImageFix" result="shape"/>
<feColorMatrix in="SourceAlpha" type="matrix" values="0 0 0 0 0 0 0 0 0 0 0 0 0 0 0 0 0 0 127 0" result="hardAlpha"/>
<feOffset dy="0.5"/>
<feGaussianBlur stdDeviation="0.25"/>
<feComposite in2="hardAlpha" operator="arithmetic" k2="-1" k3="1"/>
<feColorMatrix type="matrix" values="0 0 0 0 1 0 0 0 0 1 0 0 0 0 1 0 0 0 0.1 0"/>
<feBlend mode="normal" in2="shape" result="effect1_innerShadow_101_3384"/>
</filter>
<filter id="filter37_i_101_3384" x="728.883" y="359.391" width="127.492" height="132.248" filterUnits="userSpaceOnUse" color-interpolation-filters="sRGB">
<feFlood flood-opacity="0" result="BackgroundImageFix"/>
<feBlend mode="normal" in="SourceGraphic" in2="BackgroundImageFix" result="shape"/>
<feColorMatrix in="SourceAlpha" type="matrix" values="0 0 0 0 0 0 0 0 0 0 0 0 0 0 0 0 0 0 127 0" result="hardAlpha"/>
<feOffset dy="0.5"/>
<feGaussianBlur stdDeviation="0.25"/>
<feComposite in2="hardAlpha" operator="arithmetic" k2="-1" k3="1"/>
<feColorMatrix type="matrix" values="0 0 0 0 1 0 0 0 0 1 0 0 0 0 1 0 0 0 0.1 0"/>
<feBlend mode="normal" in2="shape" result="effect1_innerShadow_101_3384"/>
</filter>
<linearGradient id="paint0_linear_101_3384" x1="940.443" y1="781.491" x2="940.443" y2="516.455" gradientUnits="userSpaceOnUse">
<stop stop-color="white"/>
<stop offset="1" stop-color="white" stop-opacity="0"/>
</linearGradient>
<linearGradient id="paint1_linear_101_3384" x1="1138.2" y1="989.778" x2="1138.2" y2="688.66" gradientUnits="userSpaceOnUse">
<stop stop-color="white"/>
<stop offset="1" stop-color="white" stop-opacity="0"/>
</linearGradient>
<linearGradient id="paint2_linear_101_3384" x1="1004.17" y1="1059.93" x2="1004.17" y2="657.586" gradientUnits="userSpaceOnUse">
<stop stop-color="white"/>
<stop offset="1" stop-color="white" stop-opacity="0"/>
</linearGradient>
<linearGradient id="paint3_linear_101_3384" x1="723.788" y1="304.164" x2="764.858" y2="437.484" gradientUnits="userSpaceOnUse">
<stop stop-color="#C4C4C4"/>
<stop offset="1" stop-color="#C4C4C4" stop-opacity="0"/>
</linearGradient>
<linearGradient id="paint4_linear_101_3384" x1="768.979" y1="269.361" x2="769.478" y2="504.861" gradientUnits="userSpaceOnUse">
<stop stop-color="white"/>
<stop offset="1" stop-color="white" stop-opacity="0"/>
</linearGradient>
<linearGradient id="paint5_linear_101_3384" x1="790.978" y1="339.361" x2="747.428" y2="479.162" gradientUnits="userSpaceOnUse">
<stop stop-color="white"/>
<stop offset="1" stop-color="white" stop-opacity="0"/>
</linearGradient>
</defs>
</svg>
