<svg width="375" height="717" viewBox="0 0 375 717" fill="none" xmlns="http://www.w3.org/2000/svg">
<circle cx="192.141" cy="287.484" r="49.9764" stroke="#BAFF84" stroke-opacity="0.21" stroke-width="2.25883"/>
<circle opacity="0.4" cx="192.141" cy="287.484" r="134.341" stroke="#BAFF84" stroke-opacity="0.21" stroke-width="2.25883"/>
<mask id="mask0_298_939" style="mask-type:alpha" maskUnits="userSpaceOnUse" x="91" y="81" width="317" height="299">
<rect x="190.787" y="379.745" width="199.313" height="250.607" transform="rotate(-120 190.787 379.745)" fill="url(#paint0_linear_298_939)"/>
</mask>
<g mask="url(#mask0_298_939)">
<path d="M247.717 204.932C258.96 198.44 273.337 202.293 279.829 213.536C286.32 224.78 282.468 239.157 271.224 245.648C259.981 252.14 260.754 239.54 254.263 228.297C247.771 217.053 236.473 211.423 247.717 204.932Z" fill="#00FF66"/>
<g filter="url(#filter0_f_298_939)">
<path d="M248.121 204.697C256.824 199.673 269.142 204.714 275.633 215.957C282.125 227.201 280.332 240.389 271.628 245.414C262.925 250.439 250.607 245.398 244.115 234.154C237.624 222.911 239.417 209.722 248.121 204.697Z" fill="#00FF66"/>
</g>
<g filter="url(#filter1_f_298_939)">
<ellipse cx="259.066" cy="225.524" rx="23.5077" ry="18.197" transform="rotate(-120 259.066 225.524)" fill="#00FF66"/>
</g>
<g filter="url(#filter2_f_298_939)">
<ellipse cx="256.831" cy="226.813" rx="23.5077" ry="18.2751" transform="rotate(-120 256.831 226.813)" fill="#00FF66"/>
</g>
<g filter="url(#filter3_f_298_939)">
<ellipse cx="250.136" cy="230.679" rx="23.5077" ry="18.197" transform="rotate(-120 250.136 230.679)" fill="#00FF66"/>
</g>
<g filter="url(#filter4_f_298_939)">
<ellipse cx="241.071" cy="235.911" rx="19.7589" ry="18.197" transform="rotate(-120 241.071 235.911)" fill="#00FF66"/>
</g>
</g>
<mask id="mask1_298_939" style="mask-type:alpha" maskUnits="userSpaceOnUse" x="-90" y="92" width="448" height="418">
<rect x="225.354" y="509.406" width="355.07" height="284.724" transform="rotate(-152.383 225.354 509.406)" fill="url(#paint1_linear_298_939)"/>
</mask>
<g mask="url(#mask1_298_939)">
<path d="M104.574 248.345C128.878 201.889 186.24 183.93 232.697 208.234C279.153 232.538 297.111 289.901 272.807 336.357C248.504 382.814 223.89 338.173 177.433 313.869C130.977 289.565 80.2699 294.801 104.574 248.345Z" fill="#36FF4A"/>
<g filter="url(#filter5_f_298_939)">
<path d="M105.45 246.668C124.263 210.707 177.175 201.257 223.631 225.561C270.088 249.865 292.497 298.719 273.684 334.68C254.87 370.642 201.959 380.092 155.502 355.788C109.046 331.484 86.6368 282.63 105.45 246.668Z" fill="#36FF4A"/>
</g>
<g filter="url(#filter6_f_298_939)">
<ellipse cx="187.813" cy="294.026" rx="94.9325" ry="73.4859" transform="rotate(-152.383 187.813 294.026)" fill="#36FF4A"/>
</g>
<g filter="url(#filter7_f_298_939)">
<ellipse cx="182.988" cy="303.25" rx="94.9325" ry="73.8013" transform="rotate(-152.383 182.988 303.25)" fill="#36FF4A"/>
</g>
<g filter="url(#filter8_f_298_939)">
<ellipse cx="168.514" cy="330.916" rx="94.9325" ry="73.4859" transform="rotate(-152.383 168.514 330.916)" fill="#36FF4A"/>
</g>
<g filter="url(#filter9_f_298_939)">
<ellipse cx="148.924" cy="368.362" rx="79.7937" ry="73.4859" transform="rotate(-152.383 148.924 368.362)" fill="#36FF4A"/>
</g>
</g>
<mask id="mask2_298_939" style="mask-type:alpha" maskUnits="userSpaceOnUse" x="-131" y="-5" width="470" height="492">
<rect x="148.74" y="486.008" width="321.966" height="380.441" transform="rotate(-150 148.74 486.008)" fill="url(#paint2_linear_298_939)"/>
</mask>
<g mask="url(#mask2_298_939)">
<path d="M173.505 169.835C225.839 166.66 270.837 206.511 274.013 258.844C277.188 311.178 237.337 356.177 185.004 359.352C132.67 362.527 158.189 318.398 155.014 266.064C151.839 213.731 121.172 173.01 173.505 169.835Z" fill="#0075FF"/>
<g filter="url(#filter10_f_298_939)">
<path d="M175.394 169.719C215.904 167.261 251.319 207.693 254.494 260.027C257.669 312.36 227.403 356.778 186.892 359.236C146.381 361.693 110.967 321.261 107.792 268.928C104.617 216.594 134.883 172.177 175.394 169.719Z" fill="#0075FF"/>
</g>
<g filter="url(#filter11_f_298_939)">
<ellipse cx="177.366" cy="264.707" rx="94.9325" ry="73.4859" transform="rotate(-93.472 177.366 264.707)" fill="#0075FF"/>
</g>
<g filter="url(#filter12_f_298_939)">
<ellipse cx="166.979" cy="265.337" rx="94.9325" ry="73.8013" transform="rotate(-93.472 166.979 265.337)" fill="#0075FF"/>
</g>
<g filter="url(#filter13_f_298_939)">
<ellipse cx="135.811" cy="267.228" rx="94.9325" ry="73.4859" transform="rotate(-93.472 135.811 267.228)" fill="#0075FF"/>
</g>
<g filter="url(#filter14_f_298_939)">
<ellipse cx="93.628" cy="269.788" rx="79.7937" ry="73.4859" transform="rotate(-93.472 93.628 269.788)" fill="#0075FF"/>
</g>
</g>
<mask id="mask3_298_939" style="mask-type:alpha" maskUnits="userSpaceOnUse" x="62" y="132" width="310" height="311">
<path d="M129.405 442.517C112.991 380.917 44.1205 221.787 66.3934 220.831L298.918 132.135L371.41 343.88L129.405 442.517Z" fill="url(#paint3_linear_298_939)"/>
</mask>
<g mask="url(#mask3_298_939)">
<path d="M173.312 220.987C195.297 215.097 219.69 232.197 224.988 251.968C230.285 271.739 228.338 300.07 204.75 306.39C193.061 309.522 182.41 326.541 165.885 320.417C149.062 314.182 145.052 286.356 142.379 276.382C137.081 256.611 151.327 226.878 173.312 220.987Z" fill="#0075FF"/>
<g filter="url(#filter15_f_298_939)">
<path d="M173.505 222.752C197.083 216.434 219.037 230.869 223.59 247.864C228.144 264.858 225.224 289.544 201.646 295.862C189.962 298.993 178.938 314.596 162.788 309.853C146.349 305.024 143.351 280.985 141.054 272.412C136.5 255.417 149.927 229.07 173.505 222.752Z" fill="#0075FF"/>
</g>
<g filter="url(#filter16_f_298_939)">
<path d="M174.218 222.56C200.645 215.479 225.82 233.782 231.434 254.735C237.048 275.687 234.445 305.854 208.019 312.935C194.923 316.444 183.444 337.208 165.09 330.943C146.406 324.566 141.875 293.252 139.043 282.683C133.429 261.73 147.792 229.641 174.218 222.56Z" fill="#0075FF"/>
</g>
<g filter="url(#filter17_f_298_939)">
<path d="M177.933 224.225C211.937 220.622 246.244 240.555 252.815 265.077C259.386 289.599 249.929 320.546 218.235 329.038C202.53 333.246 189.501 365.382 167.57 358.17C145.244 350.829 140.602 316.227 137.287 303.857C130.717 279.335 138.54 228.399 177.933 224.225Z" fill="#0075FF"/>
</g>
<g filter="url(#filter18_f_298_939)">
<path d="M191.585 231.204C225.711 222.06 263.555 245.782 269.979 269.757C276.403 293.732 265.517 324.429 231.392 333.572C214.481 338.104 196.4 352.755 173.109 346.2C149.4 339.526 145.289 305.581 142.048 293.487C135.624 269.511 157.46 240.347 191.585 231.204Z" fill="#0075FF"/>
</g>
<g filter="url(#filter19_f_298_939)">
<path d="M207.432 237.214C242.697 227.765 281.716 251.945 288.286 276.467C294.857 300.988 283.534 332.435 248.268 341.885C230.792 346.567 212.081 361.611 188.046 354.963C163.58 348.196 159.424 313.463 156.11 301.093C149.539 276.571 172.166 246.664 207.432 237.214Z" fill="#0075FF"/>
</g>
<g filter="url(#filter20_f_298_939)">
<path d="M179.863 240.423C210.72 232.155 245.944 257.351 252.514 281.873C259.085 306.395 250.065 337.225 219.208 345.493C203.916 349.59 187.098 361.088 165.658 353.744C143.834 346.269 139.077 311.697 135.763 299.327C129.192 274.805 149.006 248.691 179.863 240.423Z" fill="#0075FF"/>
</g>
</g>
<g filter="url(#filter21_bi_298_939)">
<g filter="url(#filter22_b_298_939)">
<path d="M106.163 343.937C109.651 342.775 111.057 339.42 112.187 339.043L119.716 349.961L118.963 352.596C118.963 353.726 117.363 354.479 118.21 355.984C120.921 360.803 127.622 360.753 130.634 360.126L139.292 362.008C160.751 367.655 173.895 368.41 195.01 363.137C216.861 357.681 234.038 344.063 245.081 334.525C248.846 331.89 253.67 324.429 259.764 316.078C269.928 302.149 280.219 253.96 286.117 225.725C287.246 205.396 272.187 202.007 272.187 202.007C263.152 197.49 221.363 207.654 221.363 207.654C174.304 208.784 157.74 221.207 157.74 221.207C131.01 241.16 123.481 270.525 123.481 270.525C120.845 279.686 115.424 299.739 114.822 306.666C114.219 313.594 105.285 328.878 100.893 335.655C99.7631 340.172 103.904 344.69 106.163 343.937Z" fill="white" fill-opacity="0.05"/>
</g>
<path d="M244.491 211.879C260.708 210.895 274.652 223.244 275.635 239.461C276.619 255.677 264.271 269.621 248.054 270.605C231.837 271.589 239.745 257.915 238.761 241.698C237.777 225.481 228.274 212.863 244.491 211.879Z" fill="#0075FF"/>
<g filter="url(#filter23_f_298_939)">
<path d="M245.075 211.843C257.628 211.082 268.602 223.61 269.586 239.827C270.569 256.044 261.191 269.807 248.638 270.569C236.085 271.331 225.111 258.802 224.127 242.585C223.143 226.369 232.521 212.605 245.075 211.843Z" fill="#0075FF"/>
</g>
<g filter="url(#filter24_f_298_939)">
<ellipse cx="245.688" cy="241.277" rx="29.4169" ry="22.7712" transform="rotate(-93.472 245.688 241.277)" fill="#0075FF"/>
</g>
<g filter="url(#filter25_f_298_939)">
<ellipse cx="242.467" cy="241.472" rx="29.4169" ry="22.869" transform="rotate(-93.472 242.467 241.472)" fill="#0075FF"/>
</g>
<g filter="url(#filter26_f_298_939)">
<ellipse cx="232.809" cy="242.058" rx="29.4169" ry="22.7712" transform="rotate(-93.472 232.809 242.058)" fill="#0075FF"/>
</g>
<g filter="url(#filter27_f_298_939)">
<ellipse cx="219.74" cy="242.852" rx="24.7258" ry="22.7712" transform="rotate(-93.472 219.74 242.852)" fill="#0075FF"/>
</g>
<path d="M188.024 221.667C204.241 220.684 218.185 233.032 219.169 249.249C220.153 265.466 207.804 279.409 191.587 280.393C175.371 281.377 183.278 267.703 182.294 251.486C181.31 235.269 171.807 222.651 188.024 221.667Z" fill="white" fill-opacity="0.15"/>
<g filter="url(#filter28_f_298_939)">
<path d="M188.608 221.632C201.161 220.87 212.135 233.399 213.119 249.615C214.103 265.832 204.724 279.596 192.171 280.357C179.618 281.119 168.644 268.59 167.66 252.373C166.676 236.157 176.055 222.393 188.608 221.632Z" fill="white" fill-opacity="0.15"/>
</g>
<g filter="url(#filter29_f_298_939)">
<ellipse cx="189.217" cy="251.066" rx="29.4169" ry="22.7712" transform="rotate(-93.472 189.217 251.066)" fill="white" fill-opacity="0.15"/>
</g>
<g filter="url(#filter30_f_298_939)">
<ellipse cx="186.001" cy="251.261" rx="29.4169" ry="22.869" transform="rotate(-93.472 186.001 251.261)" fill="white" fill-opacity="0.15"/>
</g>
<g filter="url(#filter31_f_298_939)">
<ellipse cx="176.342" cy="251.847" rx="29.4169" ry="22.7712" transform="rotate(-93.472 176.342 251.847)" fill="white" fill-opacity="0.15"/>
</g>
<g filter="url(#filter32_f_298_939)">
<ellipse cx="163.273" cy="252.64" rx="24.7258" ry="22.7712" transform="rotate(-93.472 163.273 252.64)" fill="white" fill-opacity="0.15"/>
</g>
<g filter="url(#filter33_bd_298_939)">
<path d="M106.163 343.937C109.651 342.775 111.057 339.42 112.187 339.043L119.716 349.961L118.963 352.596C118.963 353.726 117.363 354.479 118.21 355.984C120.921 360.803 127.622 360.753 130.634 360.126L139.292 362.008C160.751 367.655 173.895 368.41 195.01 363.137C216.861 357.681 234.038 344.063 245.081 334.525C248.846 331.89 253.67 324.429 259.764 316.078C269.928 302.149 280.219 253.96 286.117 225.725C287.246 205.396 272.187 202.007 272.187 202.007C263.152 197.49 221.363 207.654 221.363 207.654C174.304 208.784 157.74 221.207 157.74 221.207C131.01 241.16 123.481 270.525 123.481 270.525C120.845 279.686 115.424 299.739 114.822 306.666C114.219 313.594 105.285 328.878 100.893 335.655C99.7631 340.172 103.904 344.69 106.163 343.937Z" fill="white" fill-opacity="0.2" shape-rendering="crispEdges"/>
<path d="M112.497 338.829L112.336 338.596L112.068 338.686C111.862 338.754 111.674 338.882 111.503 339.027C111.33 339.173 111.156 339.355 110.979 339.552C110.82 339.73 110.652 339.929 110.476 340.137L110.417 340.208C110.218 340.443 110.008 340.69 109.78 340.943C108.868 341.956 107.697 343.029 106.044 343.58C105.621 343.721 105.054 343.63 104.413 343.268C103.779 342.911 103.124 342.315 102.561 341.549C101.443 340.029 100.74 337.91 101.243 335.806C103.445 332.405 106.763 326.908 109.613 321.39C111.045 318.616 112.362 315.832 113.359 313.303C114.354 310.781 115.041 308.486 115.197 306.699C115.495 303.271 116.992 296.556 118.754 289.525C120.513 282.506 122.526 275.206 123.842 270.629L123.843 270.629L123.845 270.619L123.737 270.591C123.845 270.619 123.845 270.619 123.845 270.619L123.846 270.618L123.846 270.614L123.85 270.599L123.867 270.538C123.881 270.483 123.904 270.401 123.934 270.292C123.995 270.075 124.088 269.753 124.216 269.335C124.473 268.499 124.869 267.28 125.428 265.755C126.547 262.703 128.317 258.425 130.919 253.525C136.125 243.723 144.657 231.443 157.965 221.509L157.965 221.509L157.966 221.508L157.967 221.507L157.975 221.502L158.008 221.477C158.039 221.455 158.086 221.422 158.15 221.378C158.279 221.289 158.475 221.158 158.743 220.99C159.279 220.654 160.101 220.169 161.236 219.583C163.506 218.41 167.028 216.83 172.02 215.212C182.006 211.978 197.875 208.595 221.372 208.031L221.413 208.03L221.452 208.02L221.363 207.654C221.452 208.02 221.453 208.02 221.453 208.02L221.454 208.02L221.46 208.018L221.482 208.013L221.572 207.991C221.651 207.972 221.768 207.944 221.922 207.908C222.23 207.834 222.682 207.727 223.262 207.593C224.421 207.324 226.086 206.945 228.114 206.505C232.169 205.623 237.669 204.495 243.45 203.508C249.233 202.521 255.288 201.676 260.457 201.36C263.042 201.201 265.396 201.176 267.38 201.328C269.372 201.481 270.955 201.812 272.019 202.344L272.06 202.364L272.104 202.374L272.104 202.375L272.105 202.375L272.112 202.376L272.14 202.383C272.166 202.389 272.205 202.399 272.258 202.414C272.362 202.442 272.518 202.487 272.716 202.551C273.114 202.679 273.684 202.886 274.366 203.197C275.732 203.819 277.542 204.857 279.318 206.518C282.855 209.824 286.293 215.637 285.742 225.676C282.794 239.791 278.751 258.875 274.176 276.17C271.887 284.824 269.467 293.024 266.986 299.927C264.501 306.839 261.967 312.42 259.459 315.856C258.173 317.62 256.946 319.338 255.775 320.979C254.165 323.235 252.66 325.344 251.248 327.219C248.807 330.461 246.692 332.938 244.865 334.217L244.85 334.228L244.835 334.241C233.799 343.772 216.678 357.339 194.919 362.772C184.385 365.403 175.855 366.526 167.291 366.291C158.724 366.057 150.104 364.464 139.388 361.644L139.38 361.642L139.372 361.64L130.714 359.758L130.635 359.741L130.557 359.757C129.092 360.062 126.718 360.228 124.388 359.729C122.06 359.231 119.822 358.083 118.538 355.8C118.361 355.484 118.323 355.232 118.345 355.017C118.368 354.793 118.459 354.576 118.596 354.335C118.659 354.225 118.727 354.116 118.8 354L118.82 353.968C118.899 353.842 118.983 353.708 119.057 353.569C119.199 353.307 119.326 353.002 119.338 352.652L120.078 350.064L120.127 349.893L120.026 349.747L112.497 338.829Z" stroke="url(#paint4_linear_298_939)" stroke-opacity="0.15" stroke-width="0.752944" shape-rendering="crispEdges"/>
</g>
<g filter="url(#filter34_f_298_939)">
<path d="M171.288 359.818C164.525 362.03 145.267 358.896 136.482 357.053L189.189 337.238C186.04 343.843 178.051 357.606 171.288 359.818Z" fill="white" fill-opacity="0.15"/>
</g>
<g filter="url(#filter35_i_298_939)">
<path d="M194.279 231.002C193.559 229.422 193.784 228.851 195.396 228.174C198.406 226.909 201.461 224.601 205.096 224.654C206.641 224.677 208.028 224.864 208.18 225.07C208.662 225.727 208.486 228.432 207.907 229.259C207.599 229.698 206.209 230.488 204.818 231.014C198.805 233.287 195.318 233.283 194.279 231.002Z" fill="white" fill-opacity="0.16"/>
<path d="M174.265 241.68C175.477 240.553 178.163 239.119 179.822 238.714C181.549 238.291 182.177 238.319 183.515 238.879C187.142 240.394 187.386 244.934 183.98 247.531C182.177 248.906 178.885 249.97 176.432 249.97C174.613 249.97 174.189 249.825 173.24 248.875C172.384 248.02 172.146 247.444 172.146 246.236C172.146 244.43 172.784 243.057 174.265 241.68Z" fill="white" fill-opacity="0.16"/>
<path d="M144.002 269.246C144.047 266.991 145.207 264.605 147.081 262.912C148.225 261.879 148.877 261.577 149.972 261.577C153.861 261.577 154.455 265.346 151.217 269.477C149.371 271.831 148.27 272.587 146.751 272.544C144.86 272.49 143.958 271.409 144.002 269.246Z" fill="white" fill-opacity="0.16"/>
<path d="M127.223 278.057C123.881 276.673 125.108 268.459 129.053 265.801C130.634 264.735 130.645 264.737 130.19 265.934C129.718 267.175 129.297 270.221 129.283 272.494C129.278 273.452 129.155 274.164 129.011 274.075C128.529 273.777 128.213 276.646 128.65 277.346C129.233 278.278 128.563 278.612 127.223 278.057Z" fill="white" fill-opacity="0.16"/>
<path d="M135.451 272.608C135.451 272.323 136.401 270.74 137.562 269.09C138.777 267.364 139.85 266.19 140.089 266.325C142.291 267.564 142.466 270.037 140.577 273.185C139.033 275.757 137.917 276.058 136.437 274.3C135.895 273.655 135.451 272.894 135.451 272.608Z" fill="white" fill-opacity="0.16"/>
<path d="M122.183 287.288C122.16 284.933 122.243 284.656 123.209 283.824C124.518 282.698 125.501 282.675 126.256 283.753C126.938 284.726 126.994 286.278 126.441 288.856C125.98 291.007 125.01 292.09 123.87 291.728C122.686 291.352 122.21 290.1 122.183 287.288Z" fill="white" fill-opacity="0.16"/>
<path d="M122.712 297.135C122.298 296.361 122.505 295.098 123.186 294.247C124.324 292.825 125.765 294.848 124.974 296.758C124.424 298.085 123.319 298.269 122.712 297.135Z" fill="white" fill-opacity="0.16"/>
</g>
<g filter="url(#filter36_i_298_939)">
<path fill-rule="evenodd" clip-rule="evenodd" d="M266.038 223.919C261.888 225.4 259.283 229.355 258.47 235.412C258.146 237.828 256.455 240.324 254.273 241.606C252.721 242.518 252.041 242.674 249.47 242.712C247.822 242.735 246.255 242.777 245.987 242.805C245.029 242.905 244.415 245.359 244.409 249.116C244.401 254.788 243.508 255.834 238.268 256.312C232.95 256.797 231.686 258.296 231.685 264.117C231.684 270.622 229.822 272.421 223.072 272.44C219.961 272.448 218.844 272.86 217.68 274.427C216.991 275.356 216.908 275.929 216.988 279.242C217.143 285.729 216.404 286.428 209.359 286.458L204.9 286.477C204.755 286.477 204.616 286.538 204.517 286.644L203.225 288.028C202.092 289.242 201.568 290.299 200.812 292.896C199.353 297.904 198.187 299.994 196.207 301.155C194.707 302.034 194.022 302.158 189.478 302.369C184.567 302.597 184.392 302.634 183.542 303.622C183.06 304.182 182.563 305.272 182.436 306.043C181.467 311.951 180.783 313.324 178.151 314.654C176.855 315.308 175.845 315.496 173.623 315.496C168.819 315.496 168.18 315.962 167.281 320.115C166.465 323.885 164.488 326.344 161.661 327.105C160.123 327.519 159.037 327.389 156.696 326.511C155.919 326.219 154.542 325.981 153.635 325.981C151.373 325.981 150.02 327.208 148.335 330.786C147.591 332.365 146.622 334.052 146.18 334.535C143.446 337.522 139.912 337.006 135.533 332.981C134.305 331.852 132.938 330.814 132.495 330.673C131.196 330.26 129.417 331.584 127.716 334.228C124.754 338.832 123.654 340.204 122.479 340.768C120.766 341.588 119.406 341.472 115.983 340.209C114.937 339.824 113.915 339.482 113.224 339.279C112.849 339.169 112.603 339.496 112.781 339.844C114.51 343.229 116.174 345.635 118.79 349.285C119.543 350.335 119.808 350.366 121.107 349.75C122.831 348.931 124.691 349.17 128.553 350.704C132.869 352.419 133.285 352.162 134.117 347.272C134.399 345.617 135.804 344.127 137.382 343.811C139.584 343.371 141.197 344.102 145.284 347.391C145.912 347.896 146.438 348.082 146.631 347.865C146.806 347.67 147.578 345.657 148.349 343.392C149.119 341.127 149.923 339.063 150.136 338.805C150.796 338.006 152.077 338.271 157.202 340.264C160.861 341.686 162.313 342.093 162.753 341.82C163.081 341.616 163.585 340.455 163.873 339.238C164.161 338.022 164.558 336.353 164.755 335.529C165.369 332.957 168.766 330.474 171.671 330.474C172.082 330.474 173.365 330.979 174.522 331.597C178.169 333.543 179.155 333.141 179.666 329.503C180.099 326.414 181.398 324.098 183.669 322.366C185.741 320.786 187.889 320.463 191.049 321.256C192.374 321.59 193.803 321.862 194.224 321.862C195.585 321.862 196.35 320.654 196.618 318.083C197.053 313.901 199.953 309.277 202.711 308.367C203.537 308.094 204.957 308.03 206.575 308.193C208.131 308.349 209.221 308.306 209.359 308.083C209.484 307.881 209.829 305.864 210.126 303.602C210.743 298.906 211.246 297.476 212.971 295.511C214.658 293.59 216.004 292.984 219.436 292.6C224.667 292.014 225.579 290.993 226.087 285.144C226.454 280.917 226.972 279.461 228.842 277.39C230.549 275.501 232.902 274.5 236.861 273.979C240.536 273.494 242.381 272.711 243.094 271.333C243.378 270.783 243.964 268.91 244.395 267.172C245.241 263.757 247.257 259.157 248.789 257.149C250.233 255.256 251.787 254.466 254.072 254.465C259.047 254.461 261.539 251.13 262.52 243.175C262.812 240.804 263.313 238.359 263.633 237.74C263.953 237.122 265.48 235.74 267.027 234.671C270.4 232.339 271.437 230.991 271.663 228.641C271.882 226.364 271.017 224.634 269.302 223.917C267.786 223.283 267.819 223.283 266.038 223.919Z" fill="white" fill-opacity="0.16"/>
</g>
<path d="M269.157 224.264L269.302 223.917L121.107 349.75M269.157 224.264C268.369 223.935 268.08 223.818 267.77 223.819C267.447 223.819 267.087 223.945 266.164 224.274L266.038 223.919L266.164 224.274C262.197 225.69 259.646 229.483 258.843 235.462C258.503 237.997 256.741 240.592 254.464 241.93C253.675 242.394 253.078 242.683 252.338 242.854C251.609 243.021 250.76 243.069 249.475 243.088L249.47 242.712L249.475 243.088C247.818 243.112 246.274 243.154 246.026 243.18C245.952 243.187 245.82 243.247 245.655 243.507C245.493 243.761 245.338 244.151 245.206 244.68C244.943 245.734 244.789 247.253 244.786 249.116C244.784 250.539 244.726 251.696 244.553 252.634C244.379 253.575 244.084 254.323 243.587 254.906C242.595 256.068 240.904 256.45 238.302 256.687L238.268 256.312L238.302 256.687C235.648 256.929 234.145 257.419 233.27 258.456C232.386 259.504 232.062 261.203 232.061 264.117C232.061 267.377 231.601 269.599 230.171 270.982C228.745 272.359 226.451 272.807 223.073 272.816C221.523 272.82 220.524 272.927 219.776 273.202C219.051 273.469 218.535 273.907 217.983 274.651C217.668 275.075 217.505 275.393 217.418 275.994C217.327 276.63 217.324 277.568 217.364 279.233C217.403 280.854 217.387 282.146 217.224 283.162C217.059 284.183 216.738 284.971 216.132 285.545C215.53 286.115 214.695 286.425 213.605 286.602C212.515 286.778 211.122 286.827 209.361 286.834L204.901 286.853C204.86 286.853 204.82 286.871 204.792 286.901L203.5 288.285C202.425 289.437 201.922 290.429 201.173 293.001C199.715 298.007 198.518 300.237 196.397 301.48L196.207 301.155L196.397 301.48C195.621 301.934 195.033 302.206 194.051 302.383C193.095 302.555 191.76 302.639 189.495 302.745C187.022 302.86 185.791 302.926 185.065 303.079C184.716 303.153 184.511 303.242 184.351 303.352C184.183 303.467 184.041 303.619 183.827 303.868C183.618 304.112 183.39 304.49 183.198 304.91C183.007 305.329 182.864 305.762 182.808 306.104C182.324 309.051 181.905 310.927 181.254 312.233C180.586 313.576 179.683 314.302 178.321 314.99L178.151 314.654L178.321 314.99C176.951 315.681 175.876 315.873 173.623 315.873C172.423 315.873 171.506 315.902 170.786 316.007C170.068 316.111 169.577 316.285 169.209 316.553C168.846 316.818 168.567 317.2 168.323 317.786C168.076 318.38 167.873 319.158 167.649 320.195C166.814 324.052 164.766 326.659 161.759 327.468C160.953 327.685 160.248 327.763 159.435 327.666C158.632 327.57 157.741 327.305 156.563 326.863C155.833 326.589 154.501 326.357 153.635 326.357C152.586 326.357 151.776 326.636 151.022 327.321C150.247 328.023 149.513 329.168 148.676 330.947L148.676 330.947C148.299 331.745 147.866 332.571 147.471 333.259C147.082 333.935 146.71 334.513 146.458 334.789L146.458 334.789C145.019 336.36 143.333 337.039 141.419 336.76C139.537 336.485 137.49 335.291 135.278 333.258C134.672 332.701 134.033 332.167 133.492 331.756C133.222 331.551 132.979 331.379 132.78 331.251C132.572 331.117 132.44 331.05 132.381 331.032C131.901 330.879 131.26 331.027 130.481 331.606C129.711 332.18 128.869 333.132 128.033 334.432C126.552 336.733 125.527 338.242 124.721 339.248C123.914 340.256 123.303 340.79 122.642 341.107L122.479 340.768L122.642 341.107C121.733 341.542 120.898 341.736 119.84 341.645C118.804 341.556 117.567 341.195 115.853 340.563C114.812 340.179 113.799 339.84 113.118 339.64C113.112 339.639 113.106 339.637 113.101 339.636C113.104 339.646 113.108 339.658 113.116 339.672C114.832 343.031 116.481 345.417 119.096 349.065C119.486 349.61 119.661 349.743 119.815 349.773C119.892 349.788 120.003 349.783 120.192 349.725C120.383 349.666 120.622 349.563 120.945 349.41M269.157 224.264C270.678 224.9 271.496 226.442 271.288 228.605C271.181 229.722 270.886 230.576 270.227 231.433C269.555 232.307 268.494 233.2 266.813 234.362C266.026 234.905 265.245 235.528 264.617 236.095C264.304 236.379 264.025 236.652 263.802 236.896C263.585 237.135 263.402 237.367 263.299 237.567L263.298 237.567C263.199 237.76 263.099 238.063 263.002 238.418C262.903 238.781 262.799 239.228 262.697 239.725C262.493 240.72 262.294 241.934 262.146 243.129C261.658 247.088 260.8 249.829 259.492 251.576C258.206 253.295 256.459 254.086 254.071 254.088C252.884 254.089 251.863 254.295 250.944 254.762C250.027 255.228 249.236 255.942 248.489 256.921C247.697 257.96 246.795 259.644 245.99 261.482C245.182 263.324 244.459 265.348 244.029 267.081L244.395 267.172M269.157 224.264L244.395 267.172M120.945 349.41L121.107 349.75M120.945 349.41C120.945 349.41 120.945 349.41 120.945 349.41L121.107 349.75M120.945 349.41C122.828 348.516 124.829 348.82 128.692 350.354C129.774 350.784 130.581 351.077 131.205 351.211C131.83 351.344 132.194 351.299 132.444 351.144C132.701 350.986 132.93 350.656 133.146 349.996C133.359 349.341 133.537 348.434 133.746 347.209C134.052 345.409 135.568 343.79 137.308 343.442C138.484 343.207 139.518 343.287 140.781 343.86C142.019 344.42 143.476 345.453 145.52 347.097L145.284 347.391C141.197 344.102 139.584 343.371 137.382 343.811C135.804 344.127 134.399 345.617 134.117 347.272C133.285 352.162 132.869 352.419 128.553 350.704C124.691 349.17 122.831 348.931 121.107 349.75M244.395 267.172L244.029 267.081C243.816 267.943 243.564 268.838 243.33 269.585C243.093 270.344 242.884 270.919 242.759 271.16L242.759 271.161C242.456 271.748 241.899 272.238 240.941 272.645C239.978 273.053 238.637 273.365 236.811 273.605C232.812 274.132 230.356 275.154 228.563 277.138C227.607 278.196 226.977 279.12 226.546 280.332C226.12 281.532 225.896 282.994 225.712 285.112C225.586 286.569 225.435 287.704 225.205 288.6C224.975 289.493 224.671 290.125 224.252 290.595C223.414 291.534 222.022 291.932 219.394 292.226C217.668 292.419 216.426 292.671 215.394 293.136C214.353 293.605 213.553 294.277 212.688 295.263L212.688 295.263C211.803 296.271 211.216 297.161 210.778 298.407C210.345 299.638 210.062 301.204 209.753 303.553C209.605 304.68 209.445 305.745 209.307 306.552C209.238 306.955 209.175 307.291 209.122 307.536C209.095 307.659 209.072 307.755 209.053 307.824C209.052 307.828 209.05 307.833 209.049 307.837C209.036 307.84 209.02 307.844 209.001 307.849C208.888 307.874 208.716 307.895 208.484 307.904C208.023 307.922 207.381 307.895 206.612 307.818C204.98 307.654 203.496 307.711 202.593 308.01C202.593 308.01 202.593 308.01 202.593 308.01L202.711 308.367C199.953 309.277 197.053 313.901 196.618 318.083C196.35 320.654 195.585 321.862 194.224 321.862L244.395 267.172ZM146.369 347.576C146.351 347.61 146.343 347.622 146.343 347.622C146.343 347.623 146.346 347.62 146.35 347.615C146.35 347.615 146.35 347.615 146.35 347.615C146.35 347.615 146.35 347.615 146.35 347.614C146.372 347.59 146.391 347.581 146.401 347.578C146.395 347.579 146.384 347.579 146.369 347.576ZM163.507 339.151C163.507 339.151 163.507 339.151 163.507 339.151L163.873 339.238L163.507 339.151ZM150.136 338.805L149.846 338.565C149.846 338.565 149.846 338.565 149.846 338.565L150.136 338.805Z" stroke="url(#paint5_linear_298_939)" stroke-opacity="0.05" stroke-width="0.752944"/>
<g filter="url(#filter37_i_298_939)">
<path d="M271.671 263.522C271.738 262.906 271.969 262.19 272.185 261.931C272.694 261.317 273.039 261.334 273.592 262C274.226 262.764 273.303 264.641 272.293 264.641C271.69 264.641 271.572 264.43 271.671 263.522Z" fill="white" fill-opacity="0.16"/>
<path d="M268.928 279.057C267.195 279.057 266.97 277.29 268.462 275.406C269.264 274.393 270.613 275.219 270.613 276.722C270.613 278.11 269.93 279.057 268.928 279.057Z" fill="white" fill-opacity="0.16"/>
<path d="M261.358 297.337C260.546 296.663 260.813 295.91 262.406 294.379C263.894 292.949 265.433 292.476 265.938 293.294C266.254 293.805 265.837 295.55 265.194 296.407C264.541 297.279 262.024 297.889 261.358 297.337Z" fill="white" fill-opacity="0.16"/>
<path d="M250.519 310.059C250.834 308.806 254.696 303.705 255.917 302.929C257.977 301.621 259.655 302.298 260.522 304.787C260.874 305.795 260.772 306.246 259.728 308.314C259.07 309.619 257.865 311.741 257.05 313.032L255.724 315.131C255.627 315.284 255.459 315.377 255.278 315.377H253.588C252.382 315.377 251.444 315.179 251.189 314.871C250.652 314.224 250.232 311.204 250.519 310.059Z" fill="white" fill-opacity="0.16"/>
<path d="M247.304 307.45C246.422 306.996 246.48 306.124 247.492 304.638C248.392 303.316 249.278 303.064 249.995 303.928C250.342 304.346 250.274 304.783 249.677 305.953C248.834 307.605 248.282 307.953 247.304 307.45Z" fill="white" fill-opacity="0.16"/>
<path d="M244.402 321.536C244.402 320.012 245.737 318.073 247.392 317.194C248.925 316.379 248.761 316.402 249.653 316.879C250.805 317.496 250.989 319.611 250.027 321.167C248.972 322.874 247.891 323.615 246.453 323.615C244.987 323.615 244.402 323.022 244.402 321.536Z" fill="white" fill-opacity="0.16"/>
<path d="M243.766 319.496C243.155 319.496 243.133 318.668 243.728 318.073C244.323 317.478 245.151 317.5 245.151 318.11C245.151 318.736 244.392 319.496 243.766 319.496Z" fill="white" fill-opacity="0.16"/>
<path d="M235.967 321.125C235.259 320.853 235.268 320.247 235.999 319.205C236.698 318.207 237.663 318.11 237.663 319.038C237.663 320.054 236.596 321.367 235.967 321.125Z" fill="white" fill-opacity="0.16"/>
<path d="M233.44 328.881C234.012 328.614 234.901 328.166 235.416 327.887C236.61 327.239 236.743 327.242 237.426 327.925C238.097 328.596 238.592 331.458 238.263 332.767C237.671 335.127 232.613 336.939 230.912 335.4C230.506 335.032 230.174 334.281 230.174 333.73C230.174 332.403 232.134 329.493 233.44 328.881Z" fill="white" fill-opacity="0.16"/>
<path d="M223.434 335.635C223.434 335.248 224.991 333.862 225.681 333.635C226.403 333.398 227.178 334.012 227.178 334.823C227.178 335.605 225.836 337.094 225.131 337.094C224.579 337.094 223.434 336.11 223.434 335.635Z" fill="white" fill-opacity="0.16"/>
<path d="M222.498 337.469C222.189 337.469 221.936 337.216 221.936 336.907C221.936 336.598 222.189 336.345 222.498 336.345C222.807 336.345 223.06 336.598 223.06 336.907C223.06 337.216 222.807 337.469 222.498 337.469Z" fill="white" fill-opacity="0.16"/>
<path d="M212.95 345.842C212.95 343.959 214.058 342.517 216.507 341.212C217.691 340.581 218.427 340.454 220.024 340.605C221.134 340.71 222.19 340.942 222.369 341.122C222.548 341.301 222.731 342.261 222.774 343.254C222.846 344.908 222.738 345.159 221.497 346.226C219.798 347.687 216.017 349.217 215.003 348.854C213.5 348.316 212.95 347.509 212.95 345.842Z" fill="white" fill-opacity="0.16"/>
<path d="M198.03 352.54C197.604 351.727 198.074 350.397 198.978 349.859C199.352 349.636 200.163 349.496 200.781 349.546C201.641 349.617 201.933 349.844 202.028 350.517C202.304 352.465 198.894 354.19 198.03 352.54Z" fill="white" fill-opacity="0.16"/>
<path d="M205.112 354.147C204.353 353.678 204.716 352.401 205.919 351.302C207.273 350.065 208.125 349.922 208.992 350.788C210.433 352.23 209.058 354.494 206.779 354.43C206.082 354.41 205.332 354.283 205.112 354.147Z" fill="white" fill-opacity="0.16"/>
<path d="M187.263 357.943C186.987 357.076 188.438 355.61 190.858 354.308C192.802 353.262 194.811 353.352 195.908 354.535C196.796 355.494 196.802 355.689 196.011 357.803C195.526 359.098 192.583 360.684 190.665 360.684C189.241 360.684 187.752 359.485 187.263 357.943Z" fill="white" fill-opacity="0.16"/>
<path d="M180.929 360.157C178.856 360.678 177.087 359.503 178.101 358.281C178.615 357.662 180.956 357.475 181.764 357.988C182.462 358.432 181.891 359.916 180.929 360.157Z" fill="white" fill-opacity="0.16"/>
</g>
</g>
<defs>
<filter id="filter0_f_298_939" x="237.201" y="199.74" width="45.3458" height="50.6324" filterUnits="userSpaceOnUse" color-interpolation-filters="sRGB">
<feFlood flood-opacity="0" result="BackgroundImageFix"/>
<feBlend mode="normal" in="SourceGraphic" in2="BackgroundImageFix" result="shape"/>
<feGaussianBlur stdDeviation="1.50589" result="effect1_foregroundBlur_298_939"/>
</filter>
<filter id="filter1_f_298_939" x="228.863" y="192.679" width="60.4047" height="65.6913" filterUnits="userSpaceOnUse" color-interpolation-filters="sRGB">
<feFlood flood-opacity="0" result="BackgroundImageFix"/>
<feBlend mode="normal" in="SourceGraphic" in2="BackgroundImageFix" result="shape"/>
<feGaussianBlur stdDeviation="5.27061" result="effect1_foregroundBlur_298_939"/>
</filter>
<filter id="filter2_f_298_939" x="211.515" y="178.893" width="90.6299" height="95.8409" filterUnits="userSpaceOnUse" color-interpolation-filters="sRGB">
<feFlood flood-opacity="0" result="BackgroundImageFix"/>
<feBlend mode="normal" in="SourceGraphic" in2="BackgroundImageFix" result="shape"/>
<feGaussianBlur stdDeviation="12.8" result="effect1_foregroundBlur_298_939"/>
</filter>
<filter id="filter3_f_298_939" x="174.757" y="152.657" width="150.758" height="156.045" filterUnits="userSpaceOnUse" color-interpolation-filters="sRGB">
<feFlood flood-opacity="0" result="BackgroundImageFix"/>
<feBlend mode="normal" in="SourceGraphic" in2="BackgroundImageFix" result="shape"/>
<feGaussianBlur stdDeviation="27.8589" result="effect1_foregroundBlur_298_939"/>
</filter>
<filter id="filter4_f_298_939" x="124.586" y="118.645" width="232.971" height="234.534" filterUnits="userSpaceOnUse" color-interpolation-filters="sRGB">
<feFlood flood-opacity="0" result="BackgroundImageFix"/>
<feBlend mode="normal" in="SourceGraphic" in2="BackgroundImageFix" result="shape"/>
<feGaussianBlur stdDeviation="48.9414" result="effect1_foregroundBlur_298_939"/>
</filter>
<filter id="filter5_f_298_939" x="93.8087" y="207.095" width="191.517" height="167.16" filterUnits="userSpaceOnUse" color-interpolation-filters="sRGB">
<feFlood flood-opacity="0" result="BackgroundImageFix"/>
<feBlend mode="normal" in="SourceGraphic" in2="BackgroundImageFix" result="shape"/>
<feGaussianBlur stdDeviation="2.49117" result="effect1_foregroundBlur_298_939"/>
</filter>
<filter id="filter6_f_298_939" x="79.5989" y="197.991" width="216.429" height="192.071" filterUnits="userSpaceOnUse" color-interpolation-filters="sRGB">
<feFlood flood-opacity="0" result="BackgroundImageFix"/>
<feBlend mode="normal" in="SourceGraphic" in2="BackgroundImageFix" result="shape"/>
<feGaussianBlur stdDeviation="8.71908" result="effect1_foregroundBlur_298_939"/>
</filter>
<filter id="filter7_f_298_939" x="49.8064" y="182.071" width="266.364" height="242.358" filterUnits="userSpaceOnUse" color-interpolation-filters="sRGB">
<feFlood flood-opacity="0" result="BackgroundImageFix"/>
<feBlend mode="normal" in="SourceGraphic" in2="BackgroundImageFix" result="shape"/>
<feGaussianBlur stdDeviation="21.1749" result="effect1_foregroundBlur_298_939"/>
</filter>
<filter id="filter8_f_298_939" x="-14.4349" y="160.145" width="365.899" height="341.541" filterUnits="userSpaceOnUse" color-interpolation-filters="sRGB">
<feFlood flood-opacity="0" result="BackgroundImageFix"/>
<feBlend mode="normal" in="SourceGraphic" in2="BackgroundImageFix" result="shape"/>
<feGaussianBlur stdDeviation="46.0866" result="effect1_foregroundBlur_298_939"/>
</filter>
<filter id="filter9_f_298_939" x="-91.5" y="131.537" width="480.85" height="473.65" filterUnits="userSpaceOnUse" color-interpolation-filters="sRGB">
<feFlood flood-opacity="0" result="BackgroundImageFix"/>
<feBlend mode="normal" in="SourceGraphic" in2="BackgroundImageFix" result="shape"/>
<feGaussianBlur stdDeviation="80.9629" result="effect1_foregroundBlur_298_939"/>
</filter>
<filter id="filter10_f_298_939" x="102.58" y="164.63" width="157.125" height="199.694" filterUnits="userSpaceOnUse" color-interpolation-filters="sRGB">
<feFlood flood-opacity="0" result="BackgroundImageFix"/>
<feBlend mode="normal" in="SourceGraphic" in2="BackgroundImageFix" result="shape"/>
<feGaussianBlur stdDeviation="2.49117" result="effect1_foregroundBlur_298_939"/>
</filter>
<filter id="filter11_f_298_939" x="86.347" y="152.404" width="182.036" height="224.606" filterUnits="userSpaceOnUse" color-interpolation-filters="sRGB">
<feFlood flood-opacity="0" result="BackgroundImageFix"/>
<feBlend mode="normal" in="SourceGraphic" in2="BackgroundImageFix" result="shape"/>
<feGaussianBlur stdDeviation="8.71908" result="effect1_foregroundBlur_298_939"/>
</filter>
<filter id="filter12_f_298_939" x="50.7361" y="128.121" width="232.487" height="274.431" filterUnits="userSpaceOnUse" color-interpolation-filters="sRGB">
<feFlood flood-opacity="0" result="BackgroundImageFix"/>
<feBlend mode="normal" in="SourceGraphic" in2="BackgroundImageFix" result="shape"/>
<feGaussianBlur stdDeviation="21.1749" result="effect1_foregroundBlur_298_939"/>
</filter>
<filter id="filter13_f_298_939" x="-29.9427" y="80.1898" width="331.506" height="374.075" filterUnits="userSpaceOnUse" color-interpolation-filters="sRGB">
<feFlood flood-opacity="0" result="BackgroundImageFix"/>
<feBlend mode="normal" in="SourceGraphic" in2="BackgroundImageFix" result="shape"/>
<feGaussianBlur stdDeviation="46.0866" result="effect1_foregroundBlur_298_939"/>
</filter>
<filter id="filter14_f_298_939" x="-141.811" y="28.0882" width="470.877" height="483.399" filterUnits="userSpaceOnUse" color-interpolation-filters="sRGB">
<feFlood flood-opacity="0" result="BackgroundImageFix"/>
<feBlend mode="normal" in="SourceGraphic" in2="BackgroundImageFix" result="shape"/>
<feGaussianBlur stdDeviation="80.9629" result="effect1_foregroundBlur_298_939"/>
</filter>
<filter id="filter15_f_298_939" x="137.16" y="218.226" width="91.2501" height="95.5291" filterUnits="userSpaceOnUse" color-interpolation-filters="sRGB">
<feFlood flood-opacity="0" result="BackgroundImageFix"/>
<feBlend mode="normal" in="SourceGraphic" in2="BackgroundImageFix" result="shape"/>
<feGaussianBlur stdDeviation="1.50589" result="effect1_foregroundBlur_298_939"/>
</filter>
<filter id="filter16_f_298_939" x="127.297" y="210.469" width="117.121" height="132.185" filterUnits="userSpaceOnUse" color-interpolation-filters="sRGB">
<feFlood flood-opacity="0" result="BackgroundImageFix"/>
<feBlend mode="normal" in="SourceGraphic" in2="BackgroundImageFix" result="shape"/>
<feGaussianBlur stdDeviation="5.27061" result="effect1_foregroundBlur_298_939"/>
</filter>
<filter id="filter17_f_298_939" x="120.15" y="208.743" width="149.694" height="165.537" filterUnits="userSpaceOnUse" color-interpolation-filters="sRGB">
<feFlood flood-opacity="0" result="BackgroundImageFix"/>
<feBlend mode="normal" in="SourceGraphic" in2="BackgroundImageFix" result="shape"/>
<feGaussianBlur stdDeviation="7.52944" result="effect1_foregroundBlur_298_939"/>
</filter>
<filter id="filter18_f_298_939" x="100.269" y="188.538" width="212.121" height="199.982" filterUnits="userSpaceOnUse" color-interpolation-filters="sRGB">
<feFlood flood-opacity="0" result="BackgroundImageFix"/>
<feBlend mode="normal" in="SourceGraphic" in2="BackgroundImageFix" result="shape"/>
<feGaussianBlur stdDeviation="20.3295" result="effect1_foregroundBlur_298_939"/>
</filter>
<filter id="filter19_f_298_939" x="54.0821" y="134.225" width="336.873" height="323.302" filterUnits="userSpaceOnUse" color-interpolation-filters="sRGB">
<feFlood flood-opacity="0" result="BackgroundImageFix"/>
<feBlend mode="normal" in="SourceGraphic" in2="BackgroundImageFix" result="shape"/>
<feGaussianBlur stdDeviation="50.4473" result="effect1_foregroundBlur_298_939"/>
</filter>
<filter id="filter20_f_298_939" x="87.8214" y="192.137" width="213.396" height="210.686" filterUnits="userSpaceOnUse" color-interpolation-filters="sRGB">
<feFlood flood-opacity="0" result="BackgroundImageFix"/>
<feBlend mode="normal" in="SourceGraphic" in2="BackgroundImageFix" result="shape"/>
<feGaussianBlur stdDeviation="23.3413" result="effect1_foregroundBlur_298_939"/>
</filter>
<filter id="filter21_bi_298_939" x="98.4423" y="198.591" width="189.994" height="170.366" filterUnits="userSpaceOnUse" color-interpolation-filters="sRGB">
<feFlood flood-opacity="0" result="BackgroundImageFix"/>
<feGaussianBlur in="BackgroundImage" stdDeviation="1.12942"/>
<feComposite in2="SourceAlpha" operator="in" result="effect1_backgroundBlur_298_939"/>
<feBlend mode="normal" in="SourceGraphic" in2="effect1_backgroundBlur_298_939" result="shape"/>
<feColorMatrix in="SourceAlpha" type="matrix" values="0 0 0 0 0 0 0 0 0 0 0 0 0 0 0 0 0 0 127 0" result="hardAlpha"/>
<feOffset dy="0.376472"/>
<feGaussianBlur stdDeviation="0.752944"/>
<feComposite in2="hardAlpha" operator="arithmetic" k2="-1" k3="1"/>
<feColorMatrix type="matrix" values="0 0 0 0 1 0 0 0 0 1 0 0 0 0 1 0 0 0 0.15 0"/>
<feBlend mode="normal" in2="shape" result="effect2_innerShadow_298_939"/>
</filter>
<filter id="filter22_b_298_939" x="-652.243" y="-552.094" width="1691.36" height="1671.74" filterUnits="userSpaceOnUse" color-interpolation-filters="sRGB">
<feFlood flood-opacity="0" result="BackgroundImageFix"/>
<feGaussianBlur in="BackgroundImage" stdDeviation="376.472"/>
<feComposite in2="SourceAlpha" operator="in" result="effect1_backgroundBlur_298_939"/>
<feBlend mode="normal" in="SourceGraphic" in2="effect1_backgroundBlur_298_939" result="shape"/>
</filter>
<filter id="filter23_f_298_939" x="219.074" y="206.828" width="55.5643" height="68.7564" filterUnits="userSpaceOnUse" color-interpolation-filters="sRGB">
<feFlood flood-opacity="0" result="BackgroundImageFix"/>
<feBlend mode="normal" in="SourceGraphic" in2="BackgroundImageFix" result="shape"/>
<feGaussianBlur stdDeviation="2.49117" result="effect1_foregroundBlur_298_939"/>
</filter>
<filter id="filter24_f_298_939" x="205.451" y="194.443" width="80.4759" height="93.6681" filterUnits="userSpaceOnUse" color-interpolation-filters="sRGB">
<feFlood flood-opacity="0" result="BackgroundImageFix"/>
<feBlend mode="normal" in="SourceGraphic" in2="BackgroundImageFix" result="shape"/>
<feGaussianBlur stdDeviation="8.71908" result="effect1_foregroundBlur_298_939"/>
</filter>
<filter id="filter25_f_298_939" x="177.22" y="169.727" width="130.495" height="143.492" filterUnits="userSpaceOnUse" color-interpolation-filters="sRGB">
<feFlood flood-opacity="0" result="BackgroundImageFix"/>
<feBlend mode="normal" in="SourceGraphic" in2="BackgroundImageFix" result="shape"/>
<feGaussianBlur stdDeviation="21.1749" result="effect1_foregroundBlur_298_939"/>
</filter>
<filter id="filter26_f_298_939" x="117.837" y="120.489" width="229.946" height="243.138" filterUnits="userSpaceOnUse" color-interpolation-filters="sRGB">
<feFlood flood-opacity="0" result="BackgroundImageFix"/>
<feBlend mode="normal" in="SourceGraphic" in2="BackgroundImageFix" result="shape"/>
<feGaussianBlur stdDeviation="46.0866" result="effect1_foregroundBlur_298_939"/>
</filter>
<filter id="filter27_f_298_939" x="35.0352" y="56.2063" width="369.41" height="373.291" filterUnits="userSpaceOnUse" color-interpolation-filters="sRGB">
<feFlood flood-opacity="0" result="BackgroundImageFix"/>
<feBlend mode="normal" in="SourceGraphic" in2="BackgroundImageFix" result="shape"/>
<feGaussianBlur stdDeviation="80.9629" result="effect1_foregroundBlur_298_939"/>
</filter>
<filter id="filter28_f_298_939" x="162.608" y="216.616" width="55.5643" height="68.7564" filterUnits="userSpaceOnUse" color-interpolation-filters="sRGB">
<feFlood flood-opacity="0" result="BackgroundImageFix"/>
<feBlend mode="normal" in="SourceGraphic" in2="BackgroundImageFix" result="shape"/>
<feGaussianBlur stdDeviation="2.49117" result="effect1_foregroundBlur_298_939"/>
</filter>
<filter id="filter29_f_298_939" x="148.98" y="204.231" width="80.4759" height="93.6681" filterUnits="userSpaceOnUse" color-interpolation-filters="sRGB">
<feFlood flood-opacity="0" result="BackgroundImageFix"/>
<feBlend mode="normal" in="SourceGraphic" in2="BackgroundImageFix" result="shape"/>
<feGaussianBlur stdDeviation="8.71908" result="effect1_foregroundBlur_298_939"/>
</filter>
<filter id="filter30_f_298_939" x="120.754" y="179.515" width="130.495" height="143.492" filterUnits="userSpaceOnUse" color-interpolation-filters="sRGB">
<feFlood flood-opacity="0" result="BackgroundImageFix"/>
<feBlend mode="normal" in="SourceGraphic" in2="BackgroundImageFix" result="shape"/>
<feGaussianBlur stdDeviation="21.1749" result="effect1_foregroundBlur_298_939"/>
</filter>
<filter id="filter31_f_298_939" x="61.3698" y="130.278" width="229.946" height="243.138" filterUnits="userSpaceOnUse" color-interpolation-filters="sRGB">
<feFlood flood-opacity="0" result="BackgroundImageFix"/>
<feBlend mode="normal" in="SourceGraphic" in2="BackgroundImageFix" result="shape"/>
<feGaussianBlur stdDeviation="46.0866" result="effect1_foregroundBlur_298_939"/>
</filter>
<filter id="filter32_f_298_939" x="-21.4316" y="65.9946" width="369.41" height="373.291" filterUnits="userSpaceOnUse" color-interpolation-filters="sRGB">
<feFlood flood-opacity="0" result="BackgroundImageFix"/>
<feBlend mode="normal" in="SourceGraphic" in2="BackgroundImageFix" result="shape"/>
<feGaussianBlur stdDeviation="80.9629" result="effect1_foregroundBlur_298_939"/>
</filter>
<filter id="filter33_bd_298_939" x="74.3481" y="174.497" width="238.183" height="218.554" filterUnits="userSpaceOnUse" color-interpolation-filters="sRGB">
<feFlood flood-opacity="0" result="BackgroundImageFix"/>
<feGaussianBlur in="BackgroundImage" stdDeviation="13.1765"/>
<feComposite in2="SourceAlpha" operator="in" result="effect1_backgroundBlur_298_939"/>
<feColorMatrix in="SourceAlpha" type="matrix" values="0 0 0 0 0 0 0 0 0 0 0 0 0 0 0 0 0 0 127 0" result="hardAlpha"/>
<feOffset dx="1.50589" dy="3.01178"/>
<feComposite in2="hardAlpha" operator="out"/>
<feColorMatrix type="matrix" values="0 0 0 0 1 0 0 0 0 1 0 0 0 0 1 0 0 0 0.35 0"/>
<feBlend mode="normal" in2="effect1_backgroundBlur_298_939" result="effect2_dropShadow_298_939"/>
<feBlend mode="normal" in="SourceGraphic" in2="effect2_dropShadow_298_939" result="shape"/>
</filter>
<filter id="filter34_f_298_939" x="113.894" y="314.649" width="97.8837" height="68.5179" filterUnits="userSpaceOnUse" color-interpolation-filters="sRGB">
<feFlood flood-opacity="0" result="BackgroundImageFix"/>
<feBlend mode="normal" in="SourceGraphic" in2="BackgroundImageFix" result="shape"/>
<feGaussianBlur stdDeviation="11.2942" result="effect1_foregroundBlur_298_939"/>
</filter>
<filter id="filter35_i_298_939" x="122.18" y="224.653" width="86.2793" height="73.6047" filterUnits="userSpaceOnUse" color-interpolation-filters="sRGB">
<feFlood flood-opacity="0" result="BackgroundImageFix"/>
<feBlend mode="normal" in="SourceGraphic" in2="BackgroundImageFix" result="shape"/>
<feColorMatrix in="SourceAlpha" type="matrix" values="0 0 0 0 0 0 0 0 0 0 0 0 0 0 0 0 0 0 127 0" result="hardAlpha"/>
<feOffset dy="0.376472"/>
<feGaussianBlur stdDeviation="0.188236"/>
<feComposite in2="hardAlpha" operator="arithmetic" k2="-1" k3="1"/>
<feColorMatrix type="matrix" values="0 0 0 0 1 0 0 0 0 1 0 0 0 0 1 0 0 0 0.1 0"/>
<feBlend mode="normal" in2="shape" result="effect1_innerShadow_298_939"/>
</filter>
<filter id="filter36_i_298_939" x="112.721" y="223.442" width="158.975" height="128.6" filterUnits="userSpaceOnUse" color-interpolation-filters="sRGB">
<feFlood flood-opacity="0" result="BackgroundImageFix"/>
<feBlend mode="normal" in="SourceGraphic" in2="BackgroundImageFix" result="shape"/>
<feColorMatrix in="SourceAlpha" type="matrix" values="0 0 0 0 0 0 0 0 0 0 0 0 0 0 0 0 0 0 127 0" result="hardAlpha"/>
<feOffset dy="0.376472"/>
<feGaussianBlur stdDeviation="0.188236"/>
<feComposite in2="hardAlpha" operator="arithmetic" k2="-1" k3="1"/>
<feColorMatrix type="matrix" values="0 0 0 0 1 0 0 0 0 1 0 0 0 0 1 0 0 0 0.1 0"/>
<feBlend mode="normal" in2="shape" result="effect1_innerShadow_298_939"/>
</filter>
<filter id="filter37_i_298_939" x="177.807" y="261.485" width="95.9941" height="99.5754" filterUnits="userSpaceOnUse" color-interpolation-filters="sRGB">
<feFlood flood-opacity="0" result="BackgroundImageFix"/>
<feBlend mode="normal" in="SourceGraphic" in2="BackgroundImageFix" result="shape"/>
<feColorMatrix in="SourceAlpha" type="matrix" values="0 0 0 0 0 0 0 0 0 0 0 0 0 0 0 0 0 0 127 0" result="hardAlpha"/>
<feOffset dy="0.376472"/>
<feGaussianBlur stdDeviation="0.188236"/>
<feComposite in2="hardAlpha" operator="arithmetic" k2="-1" k3="1"/>
<feColorMatrix type="matrix" values="0 0 0 0 1 0 0 0 0 1 0 0 0 0 1 0 0 0 0.1 0"/>
<feBlend mode="normal" in2="shape" result="effect1_innerShadow_298_939"/>
</filter>
<linearGradient id="paint0_linear_298_939" x1="337.096" y1="579.302" x2="337.096" y2="379.745" gradientUnits="userSpaceOnUse">
<stop stop-color="white"/>
<stop offset="1" stop-color="white" stop-opacity="0"/>
</linearGradient>
<linearGradient id="paint1_linear_298_939" x1="485.999" y1="736.131" x2="485.999" y2="509.406" gradientUnits="userSpaceOnUse">
<stop stop-color="white"/>
<stop offset="1" stop-color="white" stop-opacity="0"/>
</linearGradient>
<linearGradient id="paint2_linear_298_939" x1="385.086" y1="788.952" x2="385.086" y2="486.008" gradientUnits="userSpaceOnUse">
<stop stop-color="white"/>
<stop offset="1" stop-color="white" stop-opacity="0"/>
</linearGradient>
<linearGradient id="paint3_linear_298_939" x1="173.97" y1="219.902" x2="204.893" y2="320.284" gradientUnits="userSpaceOnUse">
<stop stop-color="#C4C4C4"/>
<stop offset="1" stop-color="#C4C4C4" stop-opacity="0"/>
</linearGradient>
<linearGradient id="paint4_linear_298_939" x1="207.996" y1="193.697" x2="208.372" y2="371.015" gradientUnits="userSpaceOnUse">
<stop stop-color="white"/>
<stop offset="1" stop-color="white" stop-opacity="0"/>
</linearGradient>
<linearGradient id="paint5_linear_298_939" x1="224.562" y1="246.403" x2="191.771" y2="351.666" gradientUnits="userSpaceOnUse">
<stop stop-color="white"/>
<stop offset="1" stop-color="white" stop-opacity="0"/>
</linearGradient>
</defs>
</svg>
