<svg width="127" height="127" viewBox="0 0 127 127" fill="none" xmlns="http://www.w3.org/2000/svg">
<rect x="10.582" y="100.542" width="111.125" height="15.875" rx="5.29167" fill="url(#paint0_linear_91_2811)"/>
<g filter="url(#filter0_bi_91_2811)">
<mask id="path-3-inside-1_91_2811" fill="white">
<path fill-rule="evenodd" clip-rule="evenodd" d="M52.9138 23.8125C52.9138 19.4287 56.4675 15.875 60.8513 15.875H71.4346C75.8184 15.875 79.3721 19.4287 79.3721 23.8125V103.188C79.3721 107.571 75.8184 111.125 71.4346 111.125H60.8513C56.4675 111.125 52.9138 107.571 52.9138 103.188V23.8125ZM15.873 55.5625C15.873 51.1787 19.4268 47.625 23.8105 47.625H34.3939C38.7776 47.625 42.3314 51.1787 42.3314 55.5625V103.188C42.3314 107.571 38.7776 111.125 34.3939 111.125H23.8106C19.4268 111.125 15.873 107.571 15.873 103.188V55.5625ZM97.8944 63.5C93.5107 63.5 89.9569 67.0537 89.9569 71.4375V103.188C89.9569 107.571 93.5107 111.125 97.8944 111.125H108.478C112.862 111.125 116.415 107.571 116.415 103.188V71.4375C116.415 67.0537 112.862 63.5 108.478 63.5H97.8944Z"/>
</mask>
<path fill-rule="evenodd" clip-rule="evenodd" d="M52.9138 23.8125C52.9138 19.4287 56.4675 15.875 60.8513 15.875H71.4346C75.8184 15.875 79.3721 19.4287 79.3721 23.8125V103.188C79.3721 107.571 75.8184 111.125 71.4346 111.125H60.8513C56.4675 111.125 52.9138 107.571 52.9138 103.188V23.8125ZM15.873 55.5625C15.873 51.1787 19.4268 47.625 23.8105 47.625H34.3939C38.7776 47.625 42.3314 51.1787 42.3314 55.5625V103.188C42.3314 107.571 38.7776 111.125 34.3939 111.125H23.8106C19.4268 111.125 15.873 107.571 15.873 103.188V55.5625ZM97.8944 63.5C93.5107 63.5 89.9569 67.0537 89.9569 71.4375V103.188C89.9569 107.571 93.5107 111.125 97.8944 111.125H108.478C112.862 111.125 116.415 107.571 116.415 103.188V71.4375C116.415 67.0537 112.862 63.5 108.478 63.5H97.8944Z" fill="#F1F1F1" fill-opacity="0.1"/>
<path fill-rule="evenodd" clip-rule="evenodd" d="M52.9138 23.8125C52.9138 19.4287 56.4675 15.875 60.8513 15.875H71.4346C75.8184 15.875 79.3721 19.4287 79.3721 23.8125V103.188C79.3721 107.571 75.8184 111.125 71.4346 111.125H60.8513C56.4675 111.125 52.9138 107.571 52.9138 103.188V23.8125ZM15.873 55.5625C15.873 51.1787 19.4268 47.625 23.8105 47.625H34.3939C38.7776 47.625 42.3314 51.1787 42.3314 55.5625V103.188C42.3314 107.571 38.7776 111.125 34.3939 111.125H23.8106C19.4268 111.125 15.873 107.571 15.873 103.188V55.5625ZM97.8944 63.5C93.5107 63.5 89.9569 67.0537 89.9569 71.4375V103.188C89.9569 107.571 93.5107 111.125 97.8944 111.125H108.478C112.862 111.125 116.415 107.571 116.415 103.188V71.4375C116.415 67.0537 112.862 63.5 108.478 63.5H97.8944Z" fill="url(#paint1_linear_91_2811)" fill-opacity="0.2"/>
<path d="M60.8513 14.8167C55.883 14.8167 51.8554 18.8442 51.8554 23.8125H53.9721C53.9721 20.0132 57.052 16.9333 60.8513 16.9333V14.8167ZM71.4346 14.8167H60.8513V16.9333H71.4346V14.8167ZM80.4304 23.8125C80.4304 18.8442 76.4029 14.8167 71.4346 14.8167V16.9333C75.2339 16.9333 78.3138 20.0132 78.3138 23.8125H80.4304ZM80.4304 103.188V23.8125H78.3138V103.188H80.4304ZM71.4346 112.183C76.4029 112.183 80.4304 108.156 80.4304 103.188H78.3138C78.3138 106.987 75.2339 110.067 71.4346 110.067V112.183ZM60.8513 112.183H71.4346V110.067H60.8513V112.183ZM51.8554 103.188C51.8554 108.156 55.883 112.183 60.8513 112.183V110.067C57.052 110.067 53.9721 106.987 53.9721 103.188H51.8554ZM51.8554 23.8125V103.188H53.9721V23.8125H51.8554ZM23.8105 46.5667C18.8423 46.5667 14.8147 50.5942 14.8147 55.5625H16.9314C16.9314 51.7632 20.0113 48.6833 23.8105 48.6833V46.5667ZM34.3939 46.5667H23.8105V48.6833H34.3939V46.5667ZM43.3897 55.5625C43.3897 50.5942 39.3621 46.5667 34.3939 46.5667V48.6833C38.1931 48.6833 41.273 51.7632 41.273 55.5625H43.3897ZM43.3897 103.188V55.5625H41.273V103.188H43.3897ZM34.3939 112.183C39.3621 112.183 43.3897 108.156 43.3897 103.188H41.273C41.273 106.987 38.1931 110.067 34.3939 110.067V112.183ZM23.8106 112.183H34.3939V110.067H23.8106V112.183ZM14.8147 103.188C14.8147 108.156 18.8423 112.183 23.8106 112.183V110.067C20.0113 110.067 16.9314 106.987 16.9314 103.188H14.8147ZM14.8147 55.5625V103.188H16.9314V55.5625H14.8147ZM91.0153 71.4375C91.0153 67.6382 94.0952 64.5583 97.8944 64.5583V62.4417C92.9262 62.4417 88.8986 66.4692 88.8986 71.4375H91.0153ZM91.0153 103.188V71.4375H88.8986V103.188H91.0153ZM97.8944 110.067C94.0952 110.067 91.0153 106.987 91.0153 103.188H88.8986C88.8986 108.156 92.9262 112.183 97.8944 112.183V110.067ZM108.478 110.067H97.8944V112.183H108.478V110.067ZM115.357 103.188C115.357 106.987 112.277 110.067 108.478 110.067V112.183C113.446 112.183 117.474 108.156 117.474 103.188H115.357ZM115.357 71.4375V103.188H117.474V71.4375H115.357ZM108.478 64.5583C112.277 64.5583 115.357 67.6382 115.357 71.4375H117.474C117.474 66.4692 113.446 62.4417 108.478 62.4417V64.5583ZM97.8944 64.5583H108.478V62.4417H97.8944V64.5583Z" fill="url(#paint2_linear_91_2811)" fill-opacity="0.1" mask="url(#path-3-inside-1_91_2811)"/>
</g>
<defs>
<filter id="filter0_bi_91_2811" x="-0.00195217" y="9.53674e-07" width="132.293" height="127" filterUnits="userSpaceOnUse" color-interpolation-filters="sRGB">
<feFlood flood-opacity="0" result="BackgroundImageFix"/>
<feGaussianBlur in="BackgroundImage" stdDeviation="7.9375"/>
<feComposite in2="SourceAlpha" operator="in" result="effect1_backgroundBlur_91_2811"/>
<feBlend mode="normal" in="SourceGraphic" in2="effect1_backgroundBlur_91_2811" result="shape"/>
<feColorMatrix in="SourceAlpha" type="matrix" values="0 0 0 0 0 0 0 0 0 0 0 0 0 0 0 0 0 0 127 0" result="hardAlpha"/>
<feOffset dy="2.64583"/>
<feGaussianBlur stdDeviation="5.29167"/>
<feComposite in2="hardAlpha" operator="arithmetic" k2="-1" k3="1"/>
<feColorMatrix type="matrix" values="0 0 0 0 1 0 0 0 0 1 0 0 0 0 1 0 0 0 0.15 0"/>
<feBlend mode="normal" in2="shape" result="effect2_innerShadow_91_2811"/>
</filter>
<linearGradient id="paint0_linear_91_2811" x1="10.582" y1="100.542" x2="44.0836" y2="160.088" gradientUnits="userSpaceOnUse">
<stop stop-color="#1C2EFF"/>
<stop offset="1" stop-color="#1C2EFF"/>
</linearGradient>
<linearGradient id="paint1_linear_91_2811" x1="15.873" y1="15.875" x2="133.495" y2="47.4008" gradientUnits="userSpaceOnUse">
<stop stop-color="#3B29FF"/>
<stop offset="1" stop-color="#3B29FF"/>
</linearGradient>
<linearGradient id="paint2_linear_91_2811" x1="19.015" y1="20.2045" x2="116.415" y2="20.2045" gradientUnits="userSpaceOnUse">
<stop stop-color="#1C2EFF"/>
<stop offset="1" stop-color="#1C2EFF"/>
</linearGradient>
</defs>
</svg>
