<svg width="24" height="24" viewBox="0 0 24 24" fill="none" xmlns="http://www.w3.org/2000/svg">
<path d="M23.3205 6.44C23.3917 6.38085 23.445 6.30312 23.4746 6.21546C23.5042 6.1278 23.5089 6.03364 23.4882 5.94346C23.4675 5.85329 23.4221 5.77063 23.3572 5.7047C23.2923 5.63876 23.2104 5.59213 23.1205 5.57L22.3305 5.37C22.2587 5.35201 22.1918 5.3183 22.1345 5.27129C22.0773 5.22428 22.0313 5.16516 21.9997 5.09818C21.9681 5.0312 21.9518 4.95804 21.952 4.88399C21.9521 4.80994 21.9687 4.73685 22.0005 4.67L22.4405 3.78C22.4821 3.69376 22.498 3.59739 22.4864 3.50236C22.4748 3.40733 22.4362 3.31762 22.3751 3.2439C22.314 3.17019 22.2331 3.11555 22.1419 3.0865C22.0506 3.05744 21.953 3.05519 21.8605 3.08L19.8605 3.64C19.786 3.66173 19.7075 3.66582 19.6311 3.65193C19.5547 3.63805 19.4826 3.60657 19.4205 3.56C18.555 2.91089 17.5024 2.56 16.4205 2.56C15.0944 2.56 13.8227 3.08678 12.885 4.02446C11.9473 4.96215 11.4205 6.23392 11.4205 7.56V7.92C11.421 7.98142 11.3988 8.04085 11.3582 8.08696C11.3176 8.13307 11.2615 8.16263 11.2005 8.17C8.39053 8.5 5.70053 7.07 2.80053 3.73C2.73753 3.66052 2.65659 3.60976 2.56662 3.58329C2.47664 3.55683 2.38111 3.55569 2.29053 3.58C2.20893 3.61751 2.13893 3.6763 2.0879 3.75021C2.03687 3.82411 2.00669 3.9104 2.00053 4C1.59999 5.64534 1.76193 7.37742 2.46053 8.92C2.4812 8.96091 2.49022 9.00672 2.48661 9.05242C2.483 9.09812 2.4669 9.14194 2.44006 9.1791C2.41322 9.21626 2.37668 9.24533 2.33444 9.26312C2.29219 9.28092 2.24587 9.28676 2.20053 9.28L1.08053 9.06C1.00099 9.04721 0.91954 9.05383 0.843111 9.07929C0.766682 9.10476 0.697538 9.14831 0.641564 9.20625C0.58559 9.26419 0.544445 9.33479 0.52163 9.41206C0.498815 9.48932 0.495007 9.57095 0.510529 9.65C0.596868 10.4174 0.854703 11.1556 1.26495 11.81C1.67519 12.4643 2.22735 13.018 2.88053 13.43C2.9228 13.4505 2.95844 13.4824 2.98339 13.5222C3.00833 13.562 3.02156 13.608 3.02156 13.655C3.02156 13.702 3.00833 13.748 2.98339 13.7878C2.95844 13.8276 2.9228 13.8595 2.88053 13.88L2.35053 14.09C2.28616 14.1158 2.22787 14.1547 2.17935 14.2043C2.13083 14.2538 2.09315 14.3129 2.0687 14.3778C2.04425 14.4427 2.03356 14.5119 2.03732 14.5812C2.04108 14.6504 2.0592 14.7181 2.09053 14.78C2.38362 15.4213 2.82789 15.982 3.38523 16.4139C3.94257 16.8459 4.59636 17.1362 5.29053 17.26C5.33879 17.2775 5.38049 17.3095 5.40996 17.3515C5.43943 17.3936 5.45524 17.4437 5.45524 17.495C5.45524 17.5463 5.43943 17.5964 5.40996 17.6385C5.38049 17.6805 5.33879 17.7125 5.29053 17.73C3.93089 18.2923 2.47179 18.5746 1.00053 18.56C0.867921 18.5335 0.730208 18.5607 0.617686 18.6357C0.505164 18.7107 0.427051 18.8274 0.400529 18.96C0.374007 19.0926 0.40125 19.2303 0.476265 19.3428C0.551279 19.4554 0.667921 19.5335 0.800529 19.56C3.34807 20.7682 6.12171 21.4259 8.94053 21.49C11.42 21.5278 13.8553 20.832 15.9405 19.49C17.6557 18.345 19.061 16.7935 20.0312 14.9737C21.0013 13.1538 21.5061 11.1222 21.5005 9.06V8.19C21.5011 8.11739 21.5176 8.04578 21.5486 7.98016C21.5797 7.91453 21.6247 7.85647 21.6805 7.81L23.3205 6.44Z" fill="white"/>
</svg>
