<svg width="129" height="128" viewBox="0 0 129 128" fill="none" xmlns="http://www.w3.org/2000/svg">
<rect x="37.998" y="45.0709" width="53.0013" height="37.8581" rx="18.929" fill="url(#paint0_linear_175_566)"/>
<g filter="url(#filter0_bi_175_566)">
<path d="M48.4993 24C48.4993 19.5817 44.9176 16 40.4993 16C36.0811 16 32.4993 19.5817 32.4993 24V84.6863L24.8229 77.0098C21.6987 73.8856 16.6334 73.8856 13.5092 77.0098C10.385 80.134 10.385 85.1993 13.5092 88.3235L34.8425 109.657C37.9667 112.781 43.032 112.781 46.1562 109.657L67.4895 88.3235C70.6137 85.1993 70.6137 80.134 67.4895 77.0098C64.3653 73.8856 59.3 73.8856 56.1758 77.0098L48.4993 84.6863V24Z" fill="#F1F1F1" fill-opacity="0.1"/>
<path d="M48.4993 24C48.4993 19.5817 44.9176 16 40.4993 16C36.0811 16 32.4993 19.5817 32.4993 24V84.6863L24.8229 77.0098C21.6987 73.8856 16.6334 73.8856 13.5092 77.0098C10.385 80.134 10.385 85.1993 13.5092 88.3235L34.8425 109.657C37.9667 112.781 43.032 112.781 46.1562 109.657L67.4895 88.3235C70.6137 85.1993 70.6137 80.134 67.4895 77.0098C64.3653 73.8856 59.3 73.8856 56.1758 77.0098L48.4993 84.6863V24Z" fill="url(#paint1_linear_175_566)" fill-opacity="0.2"/>
<path d="M96.4993 43.3137V104C96.4993 108.418 92.9176 112 88.4993 112C84.0811 112 80.4993 108.418 80.4993 104V43.3137L72.8229 50.9902C69.6987 54.1144 64.6334 54.1144 61.5092 50.9902C58.385 47.866 58.385 42.8007 61.5092 39.6765L82.8425 18.3431C85.9667 15.219 91.032 15.219 94.1562 18.3431L115.49 39.6765C118.614 42.8007 118.614 47.866 115.49 50.9902C112.365 54.1144 107.3 54.1144 104.176 50.9902L96.4993 43.3137Z" fill="#F1F1F1" fill-opacity="0.1"/>
<path d="M96.4993 43.3137V104C96.4993 108.418 92.9176 112 88.4993 112C84.0811 112 80.4993 108.418 80.4993 104V43.3137L72.8229 50.9902C69.6987 54.1144 64.6334 54.1144 61.5092 50.9902C58.385 47.866 58.385 42.8007 61.5092 39.6765L82.8425 18.3431C85.9667 15.219 91.032 15.219 94.1562 18.3431L115.49 39.6765C118.614 42.8007 118.614 47.866 115.49 50.9902C112.365 54.1144 107.3 54.1144 104.176 50.9902L96.4993 43.3137Z" fill="url(#paint2_linear_175_566)" fill-opacity="0.2"/>
<path d="M32.1222 85.0634C32.2748 85.216 32.5042 85.2616 32.7034 85.179C32.9027 85.0965 33.0327 84.902 33.0327 84.6863V24C33.0327 19.8763 36.3756 16.5333 40.4993 16.5333C44.6231 16.5333 47.966 19.8763 47.966 24V84.6863C47.966 84.902 48.096 85.0965 48.2952 85.179C48.4945 85.2616 48.7239 85.216 48.8765 85.0634L56.5529 77.3869C59.4689 74.471 64.1965 74.471 67.1124 77.3869C70.0283 80.3029 70.0283 85.0305 67.1124 87.9464L45.7791 109.28C42.8632 112.196 38.1355 112.196 35.2196 109.28L13.8863 87.9464C10.9704 85.0305 10.9704 80.3029 13.8863 77.3869C16.8022 74.471 21.5298 74.471 24.4457 77.3869L32.1222 85.0634ZM96.8765 42.9366C96.7239 42.7841 96.4945 42.7384 96.2952 42.821C96.096 42.9035 95.966 43.098 95.966 43.3137V104C95.966 108.124 92.6231 111.467 88.4993 111.467C84.3756 111.467 81.0327 108.124 81.0327 104V43.3137C81.0327 43.098 80.9027 42.9035 80.7034 42.821C80.5042 42.7384 80.2747 42.7841 80.1222 42.9366L72.4457 50.6131C69.5298 53.529 64.8022 53.529 61.8863 50.6131C58.9704 47.6971 58.9704 42.9695 61.8863 40.0536L83.2196 18.7203C86.1355 15.8044 90.8632 15.8044 93.7791 18.7203L115.112 40.0536C118.028 42.9695 118.028 47.6971 115.112 50.6131C112.196 53.529 107.469 53.529 104.553 50.6131L96.8765 42.9366Z" stroke="url(#paint3_linear_175_566)" stroke-opacity="0.1" stroke-width="1.06667" stroke-linecap="round" stroke-linejoin="round"/>
</g>
<defs>
<filter id="filter0_bi_175_566" x="-4.83398" y="0" width="138.666" height="128" filterUnits="userSpaceOnUse" color-interpolation-filters="sRGB">
<feFlood flood-opacity="0" result="BackgroundImageFix"/>
<feGaussianBlur in="BackgroundImage" stdDeviation="8"/>
<feComposite in2="SourceAlpha" operator="in" result="effect1_backgroundBlur_175_566"/>
<feBlend mode="normal" in="SourceGraphic" in2="effect1_backgroundBlur_175_566" result="shape"/>
<feColorMatrix in="SourceAlpha" type="matrix" values="0 0 0 0 0 0 0 0 0 0 0 0 0 0 0 0 0 0 127 0" result="hardAlpha"/>
<feOffset dy="2.66667"/>
<feGaussianBlur stdDeviation="5.33333"/>
<feComposite in2="hardAlpha" operator="arithmetic" k2="-1" k3="1"/>
<feColorMatrix type="matrix" values="0 0 0 0 1 0 0 0 0 1 0 0 0 0 1 0 0 0 0.15 0"/>
<feBlend mode="normal" in2="shape" result="effect2_innerShadow_175_566"/>
</filter>
<linearGradient id="paint0_linear_175_566" x1="37.998" y1="45.0709" x2="97.0011" y2="66.0457" gradientUnits="userSpaceOnUse">
<stop stop-color="#E7F26B"/>
<stop offset="1" stop-color="#E7F26B"/>
</linearGradient>
<linearGradient id="paint1_linear_175_566" x1="11.166" y1="16" x2="135.056" y2="50.9533" gradientUnits="userSpaceOnUse">
<stop stop-color="#E7F26B"/>
<stop offset="1" stop-color="#E7F26B"/>
</linearGradient>
<linearGradient id="paint2_linear_175_566" x1="11.166" y1="16" x2="135.056" y2="50.9533" gradientUnits="userSpaceOnUse">
<stop stop-color="#E7F26B"/>
<stop offset="1" stop-color="#E7F26B"/>
</linearGradient>
<linearGradient id="paint3_linear_175_566" x1="14.4993" y1="20.3636" x2="117.833" y2="20.3636" gradientUnits="userSpaceOnUse">
<stop stop-color="#E7F26B"/>
<stop offset="1" stop-color="#E7F26B"/>
</linearGradient>
</defs>
</svg>
